<svg width="582" height="425" viewBox="0 0 582 425" fill="none" xmlns="http://www.w3.org/2000/svg">
<path d="M524.294 149.491H523.676C516.961 149.484 510.524 146.813 505.776 142.065C501.028 137.317 498.357 130.879 498.349 124.164V115.516H422.986V114.281H499.585V124.164C499.592 130.445 502.048 136.474 506.432 140.972C510.816 145.469 516.78 148.08 523.058 148.248V114.281H540.973C543.429 114.278 545.785 113.301 547.522 111.564C549.259 109.826 550.236 107.471 550.239 105.015V10.5015C550.236 8.04482 549.259 5.68959 547.522 3.95248C545.785 2.21537 543.429 1.23825 540.973 1.23547H304.999C302.542 1.23825 300.187 2.21537 298.45 3.95248C296.713 5.68959 295.736 8.04482 295.733 10.5015V79.0698H294.497V10.5015C294.5 7.71726 295.608 5.04799 297.577 3.07927C299.545 1.11054 302.215 0.00313429 304.999 0H540.973C543.757 0.00313429 546.426 1.11054 548.395 3.07927C550.364 5.04799 551.471 7.71726 551.474 10.5015V105.015C551.471 107.799 550.364 110.468 548.395 112.437C546.426 114.405 543.757 115.513 540.973 115.516H524.294V149.491Z" fill="#CCCCCC"/>
<path d="M502.043 31.2017C501.966 29.2087 501.12 27.323 499.682 25.94C498.245 24.557 496.329 23.7839 494.334 23.7827H351.638C349.59 23.7827 347.626 24.5962 346.178 26.0443C344.73 27.4924 343.916 29.4565 343.916 31.5044C343.916 33.5523 344.73 35.5163 346.178 36.9644C347.626 38.4125 349.59 39.226 351.638 39.226H494.334C496.381 39.2232 498.343 38.4088 499.791 36.9613C501.238 35.5138 502.053 33.5514 502.056 31.5044C502.058 31.4033 502.054 31.3022 502.043 31.2017Z" fill="#CCCCCC"/>
<path d="M502.043 57.1465C501.966 55.1535 501.12 53.2679 499.682 51.8848C498.245 50.5018 496.329 49.7287 494.334 49.7275H351.638C349.59 49.7275 347.626 50.5411 346.178 51.9892C344.73 53.4373 343.916 55.4013 343.916 57.4492C343.916 59.4971 344.73 61.4611 346.178 62.9092C347.626 64.3573 349.59 65.1709 351.638 65.1709H494.334C496.381 65.168 498.343 64.3536 499.791 62.9061C501.238 61.4586 502.053 59.4962 502.056 57.4492C502.058 57.3481 502.054 57.2471 502.043 57.1465Z" fill="#CCCCCC"/>
<path d="M502.043 83.0913C501.966 81.0983 501.119 79.2127 499.682 77.8297C498.245 76.4466 496.328 75.6735 494.334 75.6724H351.638C350.506 75.6724 349.388 75.9214 348.363 76.4018C347.338 76.8822 346.431 77.5822 345.707 78.4522C345.39 78.8371 345.109 79.2507 344.867 79.6876H413.102C415.559 79.6906 417.914 80.6678 419.651 82.4049C421.388 84.1419 422.365 86.497 422.368 88.9536V91.1157H494.334C496.381 91.1128 498.343 90.2984 499.791 88.8509C501.238 87.4034 502.053 85.4411 502.056 83.394C502.058 83.293 502.053 83.1919 502.043 83.0913Z" fill="#CCCCCC"/>
<path d="M15.1453 422.964C15.4813 423.24 15.8175 423.504 16.1616 423.764H101.041C101.673 423.504 102.302 423.238 102.929 422.964C111.89 419.065 120.23 413.872 127.684 407.552C132.633 403.359 137.186 399.03 140.487 394.973C145.092 389.311 149.334 383.141 151.306 376.112C153.275 369.082 152.687 361.023 148.289 355.194C146.928 353.401 145.254 351.868 143.348 350.669C143.032 350.469 142.712 350.277 142.384 350.097C136.913 347.152 130.532 346.384 124.519 347.948C116.017 350.145 108.951 356.278 103.909 363.472C98.868 370.662 95.595 378.92 92.3703 387.087C89.0974 372.511 79.1867 359.455 65.7991 352.817C52.4154 346.179 35.7868 346.259 22.6874 353.449C18.5657 355.725 14.8425 358.658 11.6643 362.132C11.3484 362.472 11.0401 362.82 10.7361 363.172C4.34649 370.57 0.349317 380.045 0.0212944 389.815C-0.126183 396.124 1.15806 402.385 3.77754 408.126C6.39703 413.867 10.2836 418.941 15.1453 422.964Z" fill="#F2F2F2"/>
<path d="M97.6477 423.765H98.848C98.8638 423.497 98.884 423.233 98.908 422.964C99.3276 417.731 100.206 412.544 101.533 407.464C104.577 395.867 109.777 384.946 116.861 375.272C123.925 365.566 132.83 357.347 143.068 351.081C143.143 351.038 143.207 350.979 143.256 350.907C143.304 350.836 143.336 350.754 143.348 350.669C143.368 350.557 143.355 350.442 143.312 350.337C143.268 350.232 143.196 350.142 143.104 350.077C143.011 350.011 142.902 349.973 142.788 349.968C142.675 349.962 142.562 349.989 142.464 350.045C142.436 350.061 142.41 350.078 142.384 350.097C136.583 353.632 131.199 357.809 126.331 362.548C117.625 371.041 110.605 381.105 105.642 392.208C101.263 401.933 98.5808 412.335 97.7116 422.964C97.6876 423.233 97.6676 423.501 97.6477 423.765Z" fill="white"/>
<path d="M10.7361 363.172C10.7448 363.177 10.7543 363.179 10.764 363.18C11.6402 363.34 12.5206 363.508 13.3929 363.688C20.5529 365.159 27.5618 367.287 34.3306 370.046C41.0814 372.801 47.5752 376.148 53.7358 380.049C59.9043 383.947 65.7212 388.376 71.1204 393.284C76.5197 398.186 81.4725 403.558 85.9205 409.337C89.2449 413.666 92.2674 418.22 94.9668 422.964C95.1188 423.228 95.2669 423.496 95.415 423.764H96.7873C96.6433 423.496 96.4952 423.228 96.3432 422.964C93.0775 417.151 89.3328 411.619 85.1482 406.428C80.5206 400.682 75.391 395.36 69.82 390.523C64.2845 385.714 58.3435 381.393 52.0633 377.608C45.757 373.808 39.1267 370.573 32.2499 367.941C25.5766 365.39 18.6868 363.446 11.6643 362.132C11.4683 362.096 11.2763 362.06 11.0801 362.024C10.3321 361.888 10.0119 363.016 10.7361 363.172Z" fill="white"/>
<path d="M34.6043 404.939C42.9627 403.789 51.451 403.981 59.7492 405.506C68.0231 407.018 76.0108 409.811 83.4247 413.784C87.5912 416.022 91.5457 418.635 95.2395 421.589C95.8429 422.071 94.9887 422.916 94.3907 422.438C87.9092 417.282 80.6436 413.198 72.8701 410.341C65.158 407.488 57.0518 405.844 48.8378 405.465C44.1901 405.252 39.5327 405.463 34.9234 406.096C34.7701 406.133 34.6086 406.11 34.4715 406.032C34.3345 405.955 34.2321 405.828 34.1851 405.677C34.1438 405.524 34.1646 405.36 34.243 405.222C34.3215 405.084 34.4513 404.982 34.6043 404.939Z" fill="white"/>
<path d="M412.484 79.6875H176.51C173.727 79.6914 171.058 80.7991 169.089 82.7677C167.121 84.7362 166.013 87.405 166.009 90.189V184.702C166.013 187.486 167.121 190.155 169.089 192.123C171.058 194.092 173.727 195.2 176.51 195.204H193.189V229.179H193.807C200.522 229.172 206.96 226.501 211.708 221.753C216.456 217.005 219.127 210.567 219.134 203.852V195.204H412.484C415.268 195.2 417.937 194.092 419.906 192.123C421.874 190.155 422.982 187.486 422.986 184.702V90.189C422.982 87.405 421.874 84.7362 419.906 82.7677C417.937 80.7991 415.268 79.6914 412.484 79.6875ZM421.75 184.702C421.747 187.159 420.77 189.514 419.033 191.251C417.296 192.988 414.941 193.965 412.484 193.968H217.899V203.852C217.89 210.132 215.433 216.161 211.05 220.659C206.667 225.156 200.703 227.767 194.425 227.937V193.968H176.51C174.054 193.965 171.699 192.988 169.962 191.251C168.225 189.514 167.247 187.159 167.244 184.702V90.189C167.247 87.7324 168.225 85.3773 169.962 83.6402C171.699 81.9032 174.054 80.926 176.51 80.923H412.484C414.941 80.926 417.296 81.9032 419.033 83.6402C420.77 85.3773 421.747 87.7324 421.75 90.189V184.702Z" fill="#3F3D56"/>
<path d="M365.846 103.47H223.149C221.155 103.471 219.238 104.244 217.801 105.628C216.364 107.011 215.518 108.896 215.44 110.889C215.43 110.99 215.426 111.091 215.428 111.192C215.431 113.239 216.245 115.201 217.692 116.649C219.14 118.096 221.102 118.911 223.149 118.914H365.846C367.893 118.914 369.857 118.1 371.306 116.652C372.754 115.204 373.567 113.24 373.567 111.192C373.567 109.144 372.754 107.18 371.306 105.732C369.857 104.284 367.893 103.47 365.846 103.47Z" fill="#EF6D53"/>
<path d="M365.846 129.415H223.149C221.155 129.416 219.238 130.189 217.801 131.572C216.364 132.955 215.518 134.841 215.44 136.834C215.43 136.935 215.426 137.036 215.428 137.137C215.431 139.184 216.245 141.146 217.692 142.594C219.14 144.041 221.102 144.855 223.149 144.858H365.846C367.893 144.858 369.857 144.045 371.306 142.597C372.754 141.149 373.567 139.185 373.567 137.137C373.567 135.089 372.754 133.125 371.306 131.677C369.857 130.229 367.893 129.415 365.846 129.415Z" fill="#EF6D53"/>
<path d="M365.846 155.36H223.149C221.155 155.361 219.238 156.134 217.801 157.517C216.364 158.9 215.518 160.786 215.44 162.779C215.43 162.879 215.426 162.98 215.428 163.082C215.431 165.129 216.245 167.091 217.692 168.538C219.14 169.986 221.102 170.8 223.149 170.803H365.846C367.893 170.803 369.857 169.99 371.306 168.542C372.754 167.093 373.567 165.129 373.567 163.082C373.567 161.034 372.754 159.07 371.306 157.621C369.857 156.173 367.893 155.36 365.846 155.36Z" fill="#EF6D53"/>
<path d="M138.821 292.014C138.543 292.014 138.265 291.997 137.989 291.962C137.038 291.845 136.123 291.529 135.303 291.035C134.484 290.54 133.778 289.877 133.232 289.09C132.686 288.304 132.312 287.41 132.136 286.469C131.959 285.528 131.983 284.56 132.207 283.629C132.26 283.413 132.324 283.199 132.399 282.99L111.788 256.604C110.881 255.433 110.375 254.001 110.346 252.52C110.317 251.039 110.767 249.588 111.627 248.383L118.847 238.356L128.283 245.636L124.492 252.148L139.505 278.463C139.807 278.491 140.106 278.539 140.401 278.609C142.019 278.997 143.437 279.966 144.389 281.33C145.34 282.695 145.758 284.361 145.563 286.013C145.368 287.665 144.574 289.189 143.332 290.295C142.089 291.401 140.484 292.012 138.821 292.014Z" fill="#A0616A"/>
<path d="M174.489 417.042L182.063 417.042L185.665 387.83L174.488 387.831L174.489 417.042Z" fill="#A0616A"/>
<path d="M196.668 424.073L172.866 424.075L172.866 414.878L187.472 414.878C188.679 414.878 189.875 415.116 190.991 415.578C192.107 416.04 193.12 416.717 193.974 417.571C194.828 418.425 195.506 419.439 195.968 420.554C196.43 421.67 196.668 422.866 196.668 424.073Z" fill="#2F2E41"/>
<path d="M112.098 417.042L119.671 417.042L123.274 387.83L112.097 387.831L112.098 417.042Z" fill="#A0616A"/>
<path d="M134.277 424.073L110.475 424.075L110.475 414.878L125.081 414.878C126.288 414.878 127.484 415.116 128.6 415.578C129.716 416.04 130.729 416.717 131.583 417.571C132.437 418.425 133.115 419.439 133.577 420.554C134.039 421.67 134.277 422.866 134.277 424.073Z" fill="#2F2E41"/>
<path d="M116.746 239.778L133.749 246.239L137.9 234.708C138.452 233.177 138.444 231.501 137.878 229.975C137.313 228.449 136.226 227.172 134.81 226.369C133.378 225.558 131.703 225.285 130.087 225.601C128.472 225.916 127.022 226.799 126 228.089L116.746 239.778Z" fill="#63A3B2"/>
<path d="M173.143 393.462C172.464 393.461 171.804 393.234 171.269 392.818C170.733 392.401 170.35 391.818 170.182 391.16C161.704 358.722 153.094 342.463 143.863 323.663C143.632 323.194 143.258 322.811 142.794 322.57C142.331 322.328 141.802 322.241 141.286 322.321C140.77 322.4 140.292 322.643 139.923 323.012C139.554 323.382 139.312 323.86 139.233 324.377L127.79 390.504C127.676 391.242 127.298 391.913 126.725 392.392C126.153 392.872 125.426 393.127 124.68 393.11L107.691 392.696C107.279 392.687 106.873 392.595 106.497 392.425C106.122 392.256 105.785 392.011 105.506 391.707C105.212 391.416 104.987 391.062 104.848 390.672C104.708 390.282 104.658 389.866 104.701 389.454C112.395 338.71 118.453 292.778 130.104 278.766C130.427 278.46 130.797 278.208 131.2 278.021L130.847 277.966C130.746 277.951 130.477 277.909 130.473 277.639L130.47 277.377L130.736 277.327C131.16 277.312 131.583 277.376 131.984 277.515L158.574 281.607C159.311 281.721 159.981 282.098 160.46 282.669C160.939 283.24 161.194 283.966 161.177 284.711C162.623 291.473 164.838 301.68 165.036 302.183C179.223 329.154 184.728 350.393 190.45 386.66C190.569 387.429 190.392 388.214 189.955 388.858C189.518 389.502 188.854 389.957 188.095 390.131L173.835 393.383C173.608 393.435 173.376 393.462 173.143 393.462Z" fill="#2F2E41"/>
<path d="M158.221 286.03C157.982 286.03 157.744 286.002 157.512 285.946L131.334 279.719C130.933 279.625 130.555 279.45 130.224 279.205C129.893 278.96 129.616 278.649 129.409 278.293C129.196 277.924 129.06 277.516 129.009 277.093C128.957 276.67 128.992 276.241 129.11 275.832C131.933 266.045 128.232 253.913 123.811 242.26C123.249 238.853 123.799 235.355 125.382 232.285C126.964 229.216 129.493 226.737 132.595 225.218L132.666 225.184L146.41 225.878C148.667 226.469 150.76 227.565 152.533 229.082C154.305 230.599 155.711 232.498 156.644 234.637C161.941 247.035 163.458 262.944 161.281 283.274C161.201 284.03 160.844 284.729 160.279 285.238C159.714 285.747 158.981 286.029 158.221 286.03Z" fill="#63A3B2"/>
<path d="M161.743 257.728C160.345 257.731 158.982 257.298 157.843 256.489L147.703 249.262L154.937 239.791L161.468 243.55L187.71 228.411C187.736 228.109 187.784 227.81 187.852 227.514C188.159 226.206 188.848 225.018 189.83 224.102C190.813 223.185 192.045 222.58 193.372 222.363C194.698 222.147 196.059 222.328 197.282 222.885C198.505 223.442 199.536 224.349 200.243 225.492C200.951 226.634 201.304 227.961 201.257 229.304C201.211 230.647 200.767 231.946 199.983 233.037C199.198 234.128 198.107 234.962 196.848 235.433C195.59 235.904 194.22 235.992 192.911 235.684C192.695 235.632 192.481 235.569 192.271 235.495L165.91 256.292C164.722 257.225 163.254 257.731 161.743 257.728Z" fill="#A0616A"/>
<path d="M144.486 252.211L159.527 241.983L152.459 231.972C151.52 230.642 150.142 229.687 148.567 229.276C146.993 228.864 145.324 229.023 143.855 229.723C142.369 230.431 141.185 231.648 140.517 233.152C139.849 234.657 139.742 236.351 140.213 237.928L144.486 252.211Z" fill="#63A3B2"/>
<path d="M137.253 220.05C145.632 220.05 152.425 213.257 152.425 204.878C152.425 196.499 145.632 189.706 137.253 189.706C128.873 189.706 122.081 196.499 122.081 204.878C122.081 213.257 128.873 220.05 137.253 220.05Z" fill="#A0616A"/>
<path d="M138.643 220.401C136.366 220.391 134.609 217.994 134.711 215.719C134.813 213.444 136.341 211.442 138.182 210.102C140.023 208.761 142.182 207.945 144.235 206.959C146.287 205.973 148.322 204.744 149.59 202.852C150.355 201.614 150.813 200.21 150.923 198.758C151.033 197.307 150.792 195.85 150.222 194.51C149.042 191.831 147.017 189.613 144.457 188.194C140.653 185.968 136.15 185.256 131.844 186.2C127.539 187.145 123.748 189.676 121.225 193.291L118.626 200.369C115.977 203.554 115.557 208.284 117.185 212.093C118.814 215.902 122.28 218.768 126.193 220.131C130.162 221.406 134.411 221.534 138.449 220.498" fill="#2F2E41"/>
<path d="M122.249 197.685C121.21 196.082 119.792 194.76 118.121 193.834C116.45 192.909 114.577 192.409 112.667 192.378C110.757 192.347 108.869 192.787 107.169 193.658C105.469 194.53 104.009 195.806 102.919 197.374C101.094 200 100.431 203.237 99.1763 206.178C96.9033 211.445 92.7696 215.69 87.5648 218.102C92.122 218.903 96.6622 216.585 100.306 213.732C103.949 210.88 107.153 207.398 111.234 205.216C114.444 203.506 118.05 202.678 121.684 202.816" fill="#2F2E41"/>
<path d="M249.955 425H14.5988C14.435 425 14.2779 424.935 14.162 424.819C14.0462 424.703 13.9811 424.546 13.9811 424.382C13.9811 424.218 14.0462 424.061 14.162 423.945C14.2779 423.829 14.435 423.764 14.5988 423.764H249.955C250.119 423.764 250.276 423.829 250.392 423.945C250.508 424.061 250.573 424.218 250.573 424.382C250.573 424.546 250.508 424.703 250.392 424.819C250.276 424.935 250.119 425 249.955 425Z" fill="#3F3D56"/>
<path d="M538.663 246.475C558.792 246.475 575.109 230.158 575.109 210.029C575.109 189.901 558.792 173.583 538.663 173.583C518.534 173.583 502.217 189.901 502.217 210.029C502.217 230.158 518.534 246.475 538.663 246.475Z" fill="#E6E6E6"/>
<path d="M542.139 236.006C540.654 235.965 538.807 235.913 537.384 234.874C536.961 234.552 536.613 234.141 536.364 233.67C536.116 233.199 535.974 232.679 535.948 232.148C535.922 231.77 535.984 231.391 536.129 231.041C536.274 230.691 536.498 230.38 536.783 230.131C537.207 229.814 537.703 229.609 538.227 229.533C538.751 229.458 539.285 229.515 539.781 229.699L538.569 220.843L539.459 220.721L540.883 231.132L540.141 230.792C539.279 230.396 538.097 230.196 537.362 230.816C537.182 230.979 537.042 231.18 536.952 231.406C536.862 231.631 536.826 231.874 536.845 232.116C536.867 232.512 536.973 232.898 537.158 233.249C537.342 233.6 537.6 233.906 537.914 234.149C539.021 234.958 540.493 235.062 542.164 235.109L542.139 236.006Z" fill="#3F3D56"/>
<path d="M540.804 201.222H535.968V202.12H540.804V201.222Z" fill="#3F3D56"/>
<path d="M549.434 221.607H544.598V222.505H549.434V221.607Z" fill="#3F3D56"/>
<path d="M520.933 209.208C517.038 208.764 514.022 205.033 513.691 201.247C513.297 196.743 515.92 192.465 519.518 189.938C523.282 187.295 527.97 186.191 532.506 185.948C541.356 185.508 550.052 188.375 556.906 193.991C560.305 196.814 563.479 200.41 564.683 204.754C565.727 208.526 564.877 212.8 561.843 215.442C561.093 216.089 560.216 216.574 559.269 216.866C558.321 217.157 557.324 217.25 556.339 217.136C553.985 216.892 551.813 215.654 549.932 214.287C546.275 211.628 543.272 207.923 538.816 206.533C535.549 205.515 531.309 206.411 529.313 209.366C528.859 210.042 528.566 210.813 528.454 211.619C528.413 211.791 528.438 211.972 528.526 212.126C528.613 212.28 528.755 212.395 528.924 212.448C529.096 212.494 529.28 212.471 529.435 212.383C529.59 212.294 529.704 212.149 529.753 211.977C530.277 208.256 534.853 206.867 538.064 207.717C542.746 208.956 545.888 213.134 549.73 215.788C551.718 217.271 554.061 218.206 556.523 218.5C558.659 218.667 560.778 218.016 562.451 216.679C565.732 214.088 566.987 209.631 566.262 205.618C565.421 200.971 562.294 196.989 558.862 193.906C551.905 187.721 542.874 184.384 533.567 184.561C528.82 184.67 523.867 185.65 519.778 188.159C515.811 190.593 512.745 194.664 512.344 199.397C511.991 203.563 514.226 207.92 518.063 209.745C518.968 210.173 519.938 210.447 520.933 210.555C521.792 210.653 521.785 209.305 520.933 209.208Z" fill="#3F3D56"/>
</svg>
