<?xml version="1.0" standalone="no"?>
<!DOCTYPE svg PUBLIC "-//W3C//DTD SVG 20010904//EN"
 "http://www.w3.org/TR/2001/REC-SVG-20010904/DTD/svg10.dtd">
<svg version="1.0" xmlns="http://www.w3.org/2000/svg"
 width="200.000000pt" height="200.000000pt" viewBox="0 0 200.000000 200.000000"
 preserveAspectRatio="xMidYMid meet">

<g transform="translate(0.000000,200.000000) scale(0.100000,-0.100000)"
fill="#000000" stroke="none">
<path d="M1013 1704 c-7 -18 6 -45 24 -51 6 -2 18 3 27 12 12 12 13 21 6 36
-13 23 -48 25 -57 3z"/>
<path d="M1730 1553 c-20 -7 -50 -34 -50 -44 0 -4 25 -5 57 -2 l56 6 -6 -30
c-5 -28 -4 -31 18 -29 19 1 25 7 25 23 0 35 -11 53 -41 68 -30 16 -35 17 -59
8z"/>
<path d="M700 1418 c0 -9 5 -20 11 -23 17 -11 18 -2 3 19 -12 17 -14 17 -14 4z"/>
<path d="M681 1404 c0 -11 3 -14 6 -6 3 7 2 16 -1 19 -3 4 -6 -2 -5 -13z"/>
<path d="M320 1373 c-29 -11 -50 -36 -56 -69 -3 -18 -19 -44 -35 -58 -16 -15
-29 -36 -29 -50 0 -12 -9 -31 -20 -41 -11 -10 -20 -26 -20 -36 0 -9 -9 -38
-20 -64 -11 -26 -29 -81 -40 -124 -16 -64 -18 -90 -11 -154 9 -83 18 -100 65
-124 23 -12 45 -14 95 -8 86 9 183 6 196 -6 12 -12 23 -149 24 -296 1 -62 5
-103 11 -103 6 0 10 -22 10 -48 l0 -49 78 -11 c42 -7 88 -15 101 -19 36 -9 17
16 -25 33 -39 16 -74 62 -56 73 6 3 12 40 14 81 l3 75 30 -47 c17 -27 38 -48
48 -48 11 0 24 -14 33 -36 l15 -35 67 47 c88 62 101 74 80 74 -8 0 -32 -7 -52
-15 -28 -12 -41 -13 -57 -5 -15 9 -18 15 -10 24 8 10 -9 55 -69 177 l-79 164
-4 -115 c-1 -68 -4 -28 -5 98 -2 254 6 241 -137 218 -49 -8 -92 -12 -95 -9
-13 13 37 31 102 37 39 3 73 8 75 9 1 2 6 18 9 35 l6 31 -83 3 -84 3 -3 37
c-3 36 -2 38 48 59 42 18 70 43 147 132 l95 110 -31 30 c-17 17 -32 29 -34 26
-1 -2 -39 -45 -84 -95 -57 -63 -92 -93 -117 -101 l-34 -11 -7 47 c-7 54 -5 67
11 63 6 -1 15 14 19 35 5 29 3 40 -11 50 -18 13 -47 16 -74 6z"/>
<path d="M1070 1335 c0 -22 4 -25 40 -25 36 0 40 3 40 25 0 23 -4 25 -40 25
-36 0 -40 -2 -40 -25z"/>
<path d="M1655 1305 c-22 -8 -41 -15 -42 -15 -4 0 -64 -112 -61 -115 2 -1 18
-10 36 -19 45 -23 54 -54 50 -173 -2 -93 -1 -104 17 -117 17 -12 18 -17 7 -28
-11 -11 -12 -10 -7 5 4 9 3 17 -3 17 -15 0 -20 -57 -27 -280 -3 -107 -8 -237
-12 -287 l-6 -93 41 0 c39 0 41 1 56 48 21 64 39 188 33 226 -6 35 34 346 44
346 4 0 10 -84 13 -187 3 -104 9 -243 12 -310 l6 -123 38 0 38 0 15 88 c11 65
15 179 16 456 1 203 4 372 6 376 3 4 19 10 36 14 l32 6 -7 62 c-3 33 -11 67
-17 74 -6 8 -35 21 -65 31 l-53 16 -21 -26 c-28 -36 -73 -37 -96 -2 -19 29
-24 29 -79 10z m122 -451 c-3 -3 -12 -4 -19 -1 -8 3 -5 6 6 6 11 1 17 -2 13
-5z m124 -11 c13 -16 12 -17 -3 -4 -17 13 -22 21 -14 21 2 0 10 -8 17 -17z"/>
<path d="M1395 1150 c3 -5 8 -10 11 -10 2 0 4 5 4 10 0 6 -5 10 -11 10 -5 0
-7 -4 -4 -10z"/>
<path d="M900 975 c0 -21 5 -25 30 -25 25 0 30 4 30 25 0 21 -5 25 -30 25 -25
0 -30 -4 -30 -25z"/>
<path d="M1965 720 c-3 -5 -1 -10 4 -10 6 0 11 5 11 10 0 6 -2 10 -4 10 -3 0
-8 -4 -11 -10z"/>
<path d="M1842 139 c-24 -16 -32 -28 -32 -50 l0 -29 70 0 c39 0 70 4 70 9 0 5
-17 27 -38 50 l-37 40 -33 -20z"/>
<path d="M1550 113 c-30 -18 -56 -38 -58 -43 -5 -13 185 -13 193 0 3 5 3 21
-1 35 -5 19 -13 25 -33 25 -15 0 -31 4 -36 8 -6 5 -34 -6 -65 -25z"/>
</g>
</svg>
