<svg xmlns="http://www.w3.org/2000/svg" xmlns:xlink="http://www.w3.org/1999/xlink" width="500" zoomAndPan="magnify" viewBox="0 0 375 374.999991" height="500" preserveAspectRatio="xMidYMid meet" version="1.0"><defs><clipPath id="a22d9929b0"><path d="M 52.511719 103.644531 L 309 103.644531 L 309 362.785156 L 52.511719 362.785156 Z M 52.511719 103.644531 " clip-rule="nonzero"/></clipPath><clipPath id="7637c24626"><path d="M 3.378906 175.316406 L 51.820312 175.316406 L 51.820312 223.757812 L 3.378906 223.757812 Z M 3.378906 175.316406 " clip-rule="nonzero"/></clipPath><clipPath id="e3b691d720"><path d="M 27.601562 175.316406 C 14.222656 175.316406 3.378906 186.160156 3.378906 199.535156 C 3.378906 212.914062 14.222656 223.757812 27.601562 223.757812 C 40.976562 223.757812 51.820312 212.914062 51.820312 199.535156 C 51.820312 186.160156 40.976562 175.316406 27.601562 175.316406 Z M 27.601562 175.316406 " clip-rule="nonzero"/></clipPath><clipPath id="35760d6bff"><path d="M 94.621094 73.835938 L 131.035156 73.835938 L 131.035156 110.25 L 94.621094 110.25 Z M 94.621094 73.835938 " clip-rule="nonzero"/></clipPath><clipPath id="b01b92b72a"><path d="M 112.828125 73.835938 C 102.773438 73.835938 94.621094 81.988281 94.621094 92.042969 C 94.621094 102.097656 102.773438 110.25 112.828125 110.25 C 122.882812 110.25 131.035156 102.097656 131.035156 92.042969 C 131.035156 81.988281 122.882812 73.835938 112.828125 73.835938 Z M 112.828125 73.835938 " clip-rule="nonzero"/></clipPath><clipPath id="361fbee009"><path d="M 287.832031 121.992188 L 330.9375 121.992188 L 330.9375 165.097656 L 287.832031 165.097656 Z M 287.832031 121.992188 " clip-rule="nonzero"/></clipPath><clipPath id="c05fa01b1e"><path d="M 309.386719 121.992188 C 297.480469 121.992188 287.832031 131.640625 287.832031 143.542969 C 287.832031 155.445312 297.480469 165.097656 309.386719 165.097656 C 321.289062 165.097656 330.9375 155.445312 330.9375 143.542969 C 330.9375 131.640625 321.289062 121.992188 309.386719 121.992188 Z M 309.386719 121.992188 " clip-rule="nonzero"/></clipPath><clipPath id="925f7b2b63"><path d="M 308 194 L 365 194 L 365 252 L 308 252 Z M 308 194 " clip-rule="nonzero"/></clipPath><clipPath id="9cfac3e98d"><path d="M 326.554688 184.535156 L 375 213.195312 L 346.339844 261.636719 L 297.898438 232.976562 Z M 326.554688 184.535156 " clip-rule="nonzero"/></clipPath><clipPath id="b43208b766"><path d="M 350.777344 198.867188 C 337.402344 190.953125 320.140625 195.378906 312.226562 208.757812 C 304.3125 222.132812 308.742188 239.394531 322.117188 247.308594 C 335.496094 255.222656 352.753906 250.792969 360.667969 237.417969 C 368.582031 224.039062 364.15625 206.78125 350.777344 198.867188 Z M 350.777344 198.867188 " clip-rule="nonzero"/></clipPath><clipPath id="346279b1af"><path d="M 38.324219 136.722656 L 66.695312 136.722656 L 66.695312 165.097656 L 38.324219 165.097656 Z M 38.324219 136.722656 " clip-rule="nonzero"/></clipPath><clipPath id="0f035007e9"><path d="M 52.511719 136.722656 C 44.675781 136.722656 38.324219 143.074219 38.324219 150.910156 C 38.324219 158.746094 44.675781 165.097656 52.511719 165.097656 C 60.34375 165.097656 66.695312 158.746094 66.695312 150.910156 C 66.695312 143.074219 60.34375 136.722656 52.511719 136.722656 Z M 52.511719 136.722656 " clip-rule="nonzero"/></clipPath><clipPath id="51c698b805"><path d="M 86.921875 105.296875 L 102.320312 105.296875 L 102.320312 120.695312 L 86.921875 120.695312 Z M 86.921875 105.296875 " clip-rule="nonzero"/></clipPath><clipPath id="b916f2f63c"><path d="M 94.621094 105.296875 C 90.367188 105.296875 86.921875 108.746094 86.921875 112.996094 C 86.921875 117.25 90.367188 120.695312 94.621094 120.695312 C 98.871094 120.695312 102.320312 117.25 102.320312 112.996094 C 102.320312 108.746094 98.871094 105.296875 94.621094 105.296875 Z M 94.621094 105.296875 " clip-rule="nonzero"/></clipPath><clipPath id="d74f18a5ec"><path d="M 142.957031 103.644531 L 166.84375 103.644531 L 166.84375 127.53125 L 142.957031 127.53125 Z M 142.957031 103.644531 " clip-rule="nonzero"/></clipPath><clipPath id="970f1ca2e0"><path d="M 154.902344 103.644531 C 148.304688 103.644531 142.957031 108.992188 142.957031 115.589844 C 142.957031 122.183594 148.304688 127.53125 154.902344 127.53125 C 161.496094 127.53125 166.84375 122.183594 166.84375 115.589844 C 166.84375 108.992188 161.496094 103.644531 154.902344 103.644531 Z M 154.902344 103.644531 " clip-rule="nonzero"/></clipPath><clipPath id="14fb408e3d"><path d="M 88.214844 143.210938 L 103.613281 143.210938 L 103.613281 158.609375 L 88.214844 158.609375 Z M 88.214844 143.210938 " clip-rule="nonzero"/></clipPath><clipPath id="2ac1d03996"><path d="M 95.914062 143.210938 C 91.664062 143.210938 88.214844 146.65625 88.214844 150.910156 C 88.214844 155.160156 91.664062 158.609375 95.914062 158.609375 C 100.167969 158.609375 103.613281 155.160156 103.613281 150.910156 C 103.613281 146.65625 100.167969 143.210938 95.914062 143.210938 Z M 95.914062 143.210938 " clip-rule="nonzero"/></clipPath><clipPath id="7a4b2fdacb"><path d="M 42.75 221.378906 L 71.125 221.378906 L 71.125 249.753906 L 42.75 249.753906 Z M 42.75 221.378906 " clip-rule="nonzero"/></clipPath><clipPath id="2c8b08b059"><path d="M 56.9375 221.378906 C 49.101562 221.378906 42.75 227.730469 42.75 235.566406 C 42.75 243.402344 49.101562 249.753906 56.9375 249.753906 C 64.773438 249.753906 71.125 243.402344 71.125 235.566406 C 71.125 227.730469 64.773438 221.378906 56.9375 221.378906 Z M 56.9375 221.378906 " clip-rule="nonzero"/></clipPath><clipPath id="85bc2944f4"><path d="M 187.597656 77.339844 L 212.605469 77.339844 L 212.605469 102.347656 L 187.597656 102.347656 Z M 187.597656 77.339844 " clip-rule="nonzero"/></clipPath><clipPath id="5363c14b75"><path d="M 200.101562 77.339844 C 193.195312 77.339844 187.597656 82.9375 187.597656 89.84375 C 187.597656 96.75 193.195312 102.347656 200.101562 102.347656 C 207.007812 102.347656 212.605469 96.75 212.605469 89.84375 C 212.605469 82.9375 207.007812 77.339844 200.101562 77.339844 Z M 200.101562 77.339844 " clip-rule="nonzero"/></clipPath><clipPath id="4c5d2c489a"><path d="M 288 226 L 307 226 L 307 245 L 288 245 Z M 288 226 " clip-rule="nonzero"/></clipPath><clipPath id="43e331a49a"><path d="M 294.542969 223.757812 L 309.382812 232.539062 L 300.601562 247.375 L 285.761719 238.597656 Z M 294.542969 223.757812 " clip-rule="nonzero"/></clipPath><clipPath id="3de8f5e79a"><path d="M 301.960938 228.148438 C 297.863281 225.722656 292.578125 227.082031 290.152344 231.179688 C 287.726562 235.277344 289.085938 240.5625 293.183594 242.988281 C 297.28125 245.410156 302.566406 244.054688 304.992188 239.957031 C 307.414062 235.859375 306.058594 230.574219 301.960938 228.148438 Z M 301.960938 228.148438 " clip-rule="nonzero"/></clipPath><clipPath id="2ed0d68c7d"><path d="M 260 222 L 282 222 L 282 244 L 260 244 Z M 260 222 " clip-rule="nonzero"/></clipPath><clipPath id="a2e7b60e67"><path d="M 267.367188 218.578125 L 285.761719 229.460938 L 274.878906 247.855469 L 256.484375 236.972656 Z M 267.367188 218.578125 " clip-rule="nonzero"/></clipPath><clipPath id="4884347021"><path d="M 276.566406 224.019531 C 271.484375 221.015625 264.929688 222.695312 261.925781 227.777344 C 258.921875 232.855469 260.601562 239.410156 265.683594 242.414062 C 270.761719 245.421875 277.316406 243.738281 280.320312 238.660156 C 283.328125 233.578125 281.644531 227.023438 276.566406 224.019531 Z M 276.566406 224.019531 " clip-rule="nonzero"/></clipPath><clipPath id="050d37daa6"><path d="M 277.84375 158.609375 L 293.203125 158.609375 L 293.203125 173.96875 L 277.84375 173.96875 Z M 277.84375 158.609375 " clip-rule="nonzero"/></clipPath><clipPath id="f7967a249e"><path d="M 285.523438 158.609375 C 281.28125 158.609375 277.84375 162.046875 277.84375 166.289062 C 277.84375 170.527344 281.28125 173.96875 285.523438 173.96875 C 289.765625 173.96875 293.203125 170.527344 293.203125 166.289062 C 293.203125 162.046875 289.765625 158.609375 285.523438 158.609375 Z M 285.523438 158.609375 " clip-rule="nonzero"/></clipPath><clipPath id="9417f4ad4f"><path d="M 235.640625 121.992188 L 253.027344 121.992188 L 253.027344 139.375 L 235.640625 139.375 Z M 235.640625 121.992188 " clip-rule="nonzero"/></clipPath><clipPath id="ef93d69407"><path d="M 244.335938 121.992188 C 239.535156 121.992188 235.640625 125.882812 235.640625 130.683594 C 235.640625 135.484375 239.535156 139.375 244.335938 139.375 C 249.136719 139.375 253.027344 135.484375 253.027344 130.683594 C 253.027344 125.882812 249.136719 121.992188 244.335938 121.992188 Z M 244.335938 121.992188 " clip-rule="nonzero"/></clipPath><clipPath id="6354cdf0d0"><path d="M 221.625 135.84375 L 236.355469 135.84375 L 236.355469 150.574219 L 221.625 150.574219 Z M 221.625 135.84375 " clip-rule="nonzero"/></clipPath><clipPath id="672b3d4039"><path d="M 228.992188 135.84375 C 224.921875 135.84375 221.625 139.140625 221.625 143.210938 C 221.625 147.277344 224.921875 150.574219 228.992188 150.574219 C 233.058594 150.574219 236.355469 147.277344 236.355469 143.210938 C 236.355469 139.140625 233.058594 135.84375 228.992188 135.84375 Z M 228.992188 135.84375 " clip-rule="nonzero"/></clipPath><clipPath id="0b5a7257cb"><path d="M 293.203125 173.96875 L 315.714844 173.96875 L 315.714844 196.480469 L 293.203125 196.480469 Z M 293.203125 173.96875 " clip-rule="nonzero"/></clipPath><clipPath id="8ea6ce6c85"><path d="M 304.460938 173.96875 C 298.242188 173.96875 293.203125 179.007812 293.203125 185.222656 C 293.203125 191.441406 298.242188 196.480469 304.460938 196.480469 C 310.675781 196.480469 315.714844 191.441406 315.714844 185.222656 C 315.714844 179.007812 310.675781 173.96875 304.460938 173.96875 Z M 304.460938 173.96875 " clip-rule="nonzero"/></clipPath><clipPath id="fe68483e35"><path d="M 329.59375 157.222656 L 363.085938 157.222656 L 363.085938 190.710938 L 329.59375 190.710938 Z M 329.59375 157.222656 " clip-rule="nonzero"/></clipPath><clipPath id="c19898ea47"><path d="M 346.339844 157.222656 C 337.089844 157.222656 329.59375 164.71875 329.59375 173.96875 C 329.59375 183.214844 337.089844 190.710938 346.339844 190.710938 C 355.589844 190.710938 363.085938 183.214844 363.085938 173.96875 C 363.085938 164.71875 355.589844 157.222656 346.339844 157.222656 Z M 346.339844 157.222656 " clip-rule="nonzero"/></clipPath><clipPath id="81b4ec48ad"><path d="M 212.605469 92.042969 L 238.363281 92.042969 L 238.363281 117.800781 L 212.605469 117.800781 Z M 212.605469 92.042969 " clip-rule="nonzero"/></clipPath><clipPath id="ecb4423907"><path d="M 225.484375 92.042969 C 218.371094 92.042969 212.605469 97.808594 212.605469 104.921875 C 212.605469 112.035156 218.371094 117.800781 225.484375 117.800781 C 232.597656 117.800781 238.363281 112.035156 238.363281 104.921875 C 238.363281 97.808594 232.597656 92.042969 225.484375 92.042969 Z M 225.484375 92.042969 " clip-rule="nonzero"/></clipPath><clipPath id="bc7e35eb62"><path d="M 258.25 112.996094 L 284.007812 112.996094 L 284.007812 138.753906 L 258.25 138.753906 Z M 258.25 112.996094 " clip-rule="nonzero"/></clipPath><clipPath id="047a83626a"><path d="M 271.128906 112.996094 C 264.015625 112.996094 258.25 118.761719 258.25 125.875 C 258.25 132.988281 264.015625 138.753906 271.128906 138.753906 C 278.242188 138.753906 284.007812 132.988281 284.007812 125.875 C 284.007812 118.761719 278.242188 112.996094 271.128906 112.996094 Z M 271.128906 112.996094 " clip-rule="nonzero"/></clipPath><clipPath id="fe714cf737"><path d="M 241.382812 70.007812 L 281.054688 70.007812 L 281.054688 109.679688 L 241.382812 109.679688 Z M 241.382812 70.007812 " clip-rule="nonzero"/></clipPath><clipPath id="f607c5582e"><path d="M 261.21875 70.007812 C 250.261719 70.007812 241.382812 78.890625 241.382812 89.84375 C 241.382812 100.800781 250.261719 109.679688 261.21875 109.679688 C 272.171875 109.679688 281.054688 100.800781 281.054688 89.84375 C 281.054688 78.890625 272.171875 70.007812 261.21875 70.007812 Z M 261.21875 70.007812 " clip-rule="nonzero"/></clipPath><clipPath id="d8bcaa5cc7"><path d="M 138.082031 57.289062 L 180.550781 57.289062 L 180.550781 99.757812 L 138.082031 99.757812 Z M 138.082031 57.289062 " clip-rule="nonzero"/></clipPath><clipPath id="78f1480fbd"><path d="M 159.316406 57.289062 C 147.589844 57.289062 138.082031 66.792969 138.082031 78.523438 C 138.082031 90.25 147.589844 99.757812 159.316406 99.757812 C 171.042969 99.757812 180.550781 90.25 180.550781 78.523438 C 180.550781 66.792969 171.042969 57.289062 159.316406 57.289062 Z M 159.316406 57.289062 " clip-rule="nonzero"/></clipPath><clipPath id="d0aa3f3b8b"><path d="M 214.492188 57.289062 L 239.496094 57.289062 L 239.496094 82.292969 L 214.492188 82.292969 Z M 214.492188 57.289062 " clip-rule="nonzero"/></clipPath><clipPath id="acf4ff9091"><path d="M 226.992188 57.289062 C 220.089844 57.289062 214.492188 62.886719 214.492188 69.792969 C 214.492188 76.695312 220.089844 82.292969 226.992188 82.292969 C 233.898438 82.292969 239.496094 76.695312 239.496094 69.792969 C 239.496094 62.886719 233.898438 57.289062 226.992188 57.289062 Z M 226.992188 57.289062 " clip-rule="nonzero"/></clipPath><clipPath id="ceaed1b339"><path d="M 168.160156 12.214844 L 221.625 12.214844 L 221.625 65.679688 L 168.160156 65.679688 Z M 168.160156 12.214844 " clip-rule="nonzero"/></clipPath><clipPath id="5a9418885a"><path d="M 194.890625 12.214844 C 180.128906 12.214844 168.160156 24.183594 168.160156 38.945312 C 168.160156 53.710938 180.128906 65.679688 194.890625 65.679688 C 209.65625 65.679688 221.625 53.710938 221.625 38.945312 C 221.625 24.183594 209.65625 12.214844 194.890625 12.214844 Z M 194.890625 12.214844 " clip-rule="nonzero"/></clipPath><clipPath id="16f82aea7d"><path d="M 52.84375 105.675781 L 77.851562 105.675781 L 77.851562 130.683594 L 52.84375 130.683594 Z M 52.84375 105.675781 " clip-rule="nonzero"/></clipPath><clipPath id="8956b1d119"><path d="M 65.347656 105.675781 C 58.441406 105.675781 52.84375 111.273438 52.84375 118.179688 C 52.84375 125.085938 58.441406 130.683594 65.347656 130.683594 C 72.253906 130.683594 77.851562 125.085938 77.851562 118.179688 C 77.851562 111.273438 72.253906 105.675781 65.347656 105.675781 Z M 65.347656 105.675781 " clip-rule="nonzero"/></clipPath><clipPath id="670981f7eb"><path d="M 155.652344 147.894531 L 172.855469 147.894531 L 172.855469 165.097656 L 155.652344 165.097656 Z M 155.652344 147.894531 " clip-rule="nonzero"/></clipPath><clipPath id="b3f37262ca"><path d="M 164.253906 147.894531 C 159.503906 147.894531 155.652344 151.746094 155.652344 156.496094 C 155.652344 161.246094 159.503906 165.097656 164.253906 165.097656 C 169.003906 165.097656 172.855469 161.246094 172.855469 156.496094 C 172.855469 151.746094 169.003906 147.894531 164.253906 147.894531 Z M 164.253906 147.894531 " clip-rule="nonzero"/></clipPath><clipPath id="e118c913b3"><path d="M 275.113281 175.316406 L 286.992188 175.316406 L 286.992188 187.195312 L 275.113281 187.195312 Z M 275.113281 175.316406 " clip-rule="nonzero"/></clipPath><clipPath id="181a57bed0"><path d="M 281.054688 175.316406 C 277.773438 175.316406 275.113281 177.976562 275.113281 181.253906 C 275.113281 184.535156 277.773438 187.195312 281.054688 187.195312 C 284.335938 187.195312 286.992188 184.535156 286.992188 181.253906 C 286.992188 177.976562 284.335938 175.316406 281.054688 175.316406 Z M 281.054688 175.316406 " clip-rule="nonzero"/></clipPath><clipPath id="6a23f2ef42"><path d="M 285.765625 78.523438 L 321.539062 78.523438 L 321.539062 114.292969 L 285.765625 114.292969 Z M 285.765625 78.523438 " clip-rule="nonzero"/></clipPath><clipPath id="50b18d9ce9"><path d="M 303.652344 78.523438 C 293.773438 78.523438 285.765625 86.53125 285.765625 96.410156 C 285.765625 106.285156 293.773438 114.292969 303.652344 114.292969 C 313.53125 114.292969 321.539062 106.285156 321.539062 96.410156 C 321.539062 86.53125 313.53125 78.523438 303.652344 78.523438 Z M 303.652344 78.523438 " clip-rule="nonzero"/></clipPath><clipPath id="640918deeb"><path d="M 0 135.84375 L 33.140625 135.84375 L 33.140625 168.984375 L 0 168.984375 Z M 0 135.84375 " clip-rule="nonzero"/></clipPath><clipPath id="2fd29f2068"><path d="M 16.570312 135.84375 C 7.417969 135.84375 0 143.261719 0 152.414062 C 0 161.566406 7.417969 168.984375 16.570312 168.984375 C 25.722656 168.984375 33.140625 161.566406 33.140625 152.414062 C 33.140625 143.261719 25.722656 135.84375 16.570312 135.84375 Z M 16.570312 135.84375 " clip-rule="nonzero"/></clipPath></defs><path fill="#ef6d53" d="M 150.792969 137.644531 C 151.441406 137.605469 151.554688 138.007812 152.238281 137.941406 C 151.203125 138.867188 150.289062 139.890625 148.625 140.300781 C 148.769531 138.941406 150.539062 138.910156 150.792969 137.644531 Z M 150.792969 137.644531 " fill-opacity="1" fill-rule="evenodd"/><path fill="#ef6d53" d="M 272.195312 148.554688 C 269.132812 149.203125 265.445312 149.335938 262.4375 150.027344 C 263.171875 148.003906 266.703125 148.570312 268.941406 148.554688 C 270.148438 148.546875 271.136719 148.015625 272.195312 148.554688 Z M 272.195312 148.554688 " fill-opacity="1" fill-rule="evenodd"/><path fill="#ef6d53" d="M 272.550781 149.144531 C 273.367188 148.59375 276.402344 148.742188 277.25 149.144531 C 276.015625 150.035156 274.148438 148.933594 272.550781 149.144531 Z M 272.550781 149.144531 " fill-opacity="1" fill-rule="evenodd"/><path fill="#ef6d53" d="M 260.269531 149.441406 C 260.714844 149.570312 261.007812 149.816406 260.992188 150.324219 C 253.902344 152.699219 247.121094 155.320312 245.816406 162.417969 C 245.496094 162.285156 245.171875 162.15625 245.09375 161.828125 C 240.019531 167.121094 237.734375 174.691406 234.617188 181.585938 C 234.742188 181.972656 235.25 182.050781 235.339844 182.46875 C 243.617188 180.675781 255.980469 181.75 262.074219 177.457031 C 263.199219 178.585938 259.710938 178.464844 259.90625 179.816406 C 259.738281 180.738281 260.222656 181.132812 261.351562 180.996094 C 260.476562 181.835938 259.285156 180.703125 258.101562 180.699219 C 255.265625 180.699219 251.164062 182.515625 246.898438 182.765625 C 245.199219 182.863281 243.402344 182.621094 241.839844 182.765625 C 238.175781 183.101562 235.570312 184.921875 233.171875 185.417969 C 232.957031 184.359375 233.589844 183.992188 233.894531 183.355469 C 234.046875 182.878906 232.546875 182.363281 232.449219 183.058594 C 232.699219 181.144531 233.144531 179.234375 233.894531 177.457031 C 235.308594 174.085938 237.789062 171.277344 239.675781 167.722656 C 239.910156 167.28125 240.539062 167.03125 240.757812 166.546875 C 240.941406 166.140625 240.546875 165.464844 240.757812 165.070312 C 242.328125 162.167969 245.328125 159.714844 246.898438 156.8125 C 251.003906 154.070312 254.449219 150.785156 260.269531 149.441406 Z M 260.269531 149.441406 " fill-opacity="1" fill-rule="evenodd"/><path fill="#ef6d53" d="M 74.558594 159.761719 C 75.714844 160.097656 76.253906 160.9375 76.367188 162.121094 C 75.449219 161.589844 75.007812 160.675781 74.558594 159.761719 Z M 74.558594 159.761719 " fill-opacity="1" fill-rule="evenodd"/><path fill="#ef6d53" d="M 249.070312 227.296875 C 251.257812 228.363281 252.699219 230.039062 255.574219 230.539062 C 252.832031 231.269531 249.074219 228.816406 249.070312 227.296875 Z M 249.070312 227.296875 " fill-opacity="1" fill-rule="evenodd"/><g clip-path="url(#a22d9929b0)"><path fill="#ef6d53" d="M 159.105469 166.542969 C 159.195312 166.207031 161.019531 166.925781 161.273438 167.429688 C 161.273438 169 159.414062 169.054688 158.746094 170.082031 C 155.917969 173.878906 155.710938 179.464844 158.382812 184.535156 C 159.488281 186.632812 161.554688 188.78125 163.082031 191.316406 C 165.941406 196.066406 168.351562 201.5 172.113281 205.472656 C 173.488281 205.710938 172.574219 204.078125 172.835938 203.410156 C 174 201.703125 174.984375 199.851562 175.367188 197.507812 C 176.933594 197.019531 177.34375 195.585938 177.894531 194.265625 C 180.8125 192.417969 182.886719 189.886719 185.480469 187.777344 C 185.453125 187.3125 185.65625 186.652344 185.121094 186.597656 C 185.90625 186.257812 186.433594 185.707031 187.289062 185.417969 C 186.785156 183.828125 188.570312 182.738281 188.734375 181.878906 C 189.144531 179.683594 188.175781 177.023438 186.925781 175.097656 C 183.375 169.613281 176.792969 163.8125 174.640625 158.285156 C 174.472656 154.707031 175.355469 152.253906 176.085938 148.261719 C 178.078125 146.050781 180.152344 143.910156 183.3125 142.65625 C 181.664062 146.476562 178.332031 148.613281 178.617188 152.976562 C 178.816406 156.046875 180.757812 158.34375 181.507812 161.234375 C 185.316406 166.089844 190.308594 169.976562 194.152344 174.800781 C 195.507812 172.921875 195.058594 170.65625 195.238281 168.3125 C 195.855469 160.210938 196.226562 150.0625 192.707031 143.835938 C 193.421875 141.476562 190.761719 140.992188 191.621094 139.414062 C 187.253906 133.871094 184.691406 127.734375 185.480469 121.128906 C 186.050781 116.355469 188.242188 113.050781 191.261719 109.921875 C 192.871094 108.25 194.800781 106.332031 195.597656 103.726562 C 198.316406 105.203125 194.886719 106.84375 194.875 108.742188 C 190.046875 110.992188 190.691406 117.714844 189.09375 122.601562 C 190.148438 123.914062 189.519531 125.433594 189.816406 126.730469 C 191.378906 133.5625 197.363281 137.832031 198.847656 144.722656 C 200.269531 144.503906 200.570312 143.375 200.65625 142.066406 C 202.367188 140.8125 203.671875 139.222656 204.628906 137.347656 C 207.164062 135.285156 210.253906 133.683594 212.21875 131.15625 C 215.4375 130.292969 219.734375 127.371094 224.140625 126.730469 C 227.773438 126.203125 232.683594 126.371094 233.535156 129.976562 C 231.535156 130.636719 228.503906 129.820312 227.03125 129.089844 C 221.894531 130.335938 216.3125 132.109375 212.941406 135.578125 C 215.847656 135.980469 219.648438 136.671875 222.695312 135.875 C 222.007812 137.773438 219.175781 138.9375 217.636719 139.117188 C 216.402344 139.261719 215.324219 138.394531 213.300781 138.527344 C 207.226562 138.929688 202.816406 146.0625 202.101562 151.207031 C 201.800781 153.382812 202.25 155.84375 202.464844 157.992188 C 203.078125 164.085938 201.886719 173.511719 199.574219 179.519531 C 199.25 180.359375 198.441406 181.097656 198.128906 181.878906 C 196.734375 185.363281 195.339844 188.804688 193.070312 191.90625 C 189.195312 197.210938 182.292969 201.039062 182.59375 207.535156 C 184.054688 207.253906 184.527344 206.164062 185.121094 205.179688 C 189 204.214844 190.445312 201.265625 195.238281 201.050781 C 203.039062 197.183594 209.746094 197.542969 215.472656 194.855469 C 217.734375 193.792969 218.996094 191.785156 221.253906 190.433594 C 222.628906 189.609375 224.0625 189.515625 225.226562 188.367188 C 230.519531 183.136719 231.84375 176.546875 236.066406 169.492188 C 237.082031 167.800781 238.65625 166.1875 239.679688 164.480469 C 241.75 161.023438 242.898438 158.574219 245.820312 155.929688 C 250.277344 151.894531 255.957031 149.058594 264.246094 147.375 C 266.066406 147.007812 270.230469 146.726562 273.640625 147.082031 C 275.507812 147.273438 276.386719 148.097656 278.699219 148.261719 C 281.238281 148.4375 282.921875 147.742188 284.480469 147.671875 C 284.917969 149.109375 283.664062 149.167969 283.394531 150.027344 C 274.769531 150.882812 266.246094 149.847656 259.1875 152.09375 C 256.824219 152.847656 254.179688 154.433594 252.324219 155.632812 C 250.753906 156.648438 249.066406 157.988281 248.347656 159.46875 C 253.089844 157.730469 258.464844 162.066406 262.800781 160.644531 C 262.691406 162.128906 261.316406 162.582031 260.273438 163.300781 C 254.972656 162.414062 248.601562 161.21875 245.097656 164.1875 C 243.5 166.261719 241.628906 169.085938 240.402344 171.855469 C 239.152344 174.664062 238.15625 177.492188 237.148438 180.703125 C 244.21875 180.136719 253.40625 180.207031 259.550781 177.457031 C 260.753906 176.917969 261.90625 175.957031 263.164062 175.097656 C 264.355469 174.28125 265.777344 173.742188 266.777344 173.035156 C 268.128906 172.074219 269.398438 170.152344 271.109375 169.199219 C 272.453125 168.457031 275.082031 167.023438 276.894531 169.199219 C 276.507812 170.261719 274.144531 169.710938 273.640625 170.675781 C 270.378906 174.105469 267.132812 177.550781 261.71875 179.226562 C 263.988281 182.246094 271.042969 181.820312 273.28125 179.816406 C 273.402344 182.078125 271.074219 182.34375 270.027344 183.648438 C 266.25 184.101562 262.511719 184.003906 260.273438 182.46875 C 258.027344 182.75 254.226562 182.101562 252.683594 183.648438 C 249.316406 183.804688 244.835938 183.960938 241.84375 184.535156 C 231.664062 186.496094 228.875 195.636719 220.890625 199.871094 C 224.878906 201.589844 229.429688 202.007812 233.175781 203.703125 C 235.046875 204.550781 236.132812 206.496094 238.59375 206.359375 C 240.871094 208.824219 243.679688 209.984375 247.628906 211.371094 C 249.75 212.117188 252.660156 213.265625 255.9375 213.433594 C 259.226562 213.605469 263.550781 213.222656 267.136719 212.550781 C 267.894531 212.410156 268.5625 211.863281 269.304688 211.664062 C 270.753906 211.277344 272.359375 211.460938 273.640625 211.074219 C 276.535156 210.203125 278.644531 208.207031 281.230469 207.242188 C 282.304688 206.839844 283.753906 206.707031 284.84375 206.355469 C 287.445312 205.515625 291.792969 204.207031 295.320312 203.703125 C 297.058594 203.453125 298.613281 203.320312 300.378906 203.40625 C 304.488281 203.613281 309.425781 205.652344 307.964844 209.011719 C 306.746094 208.628906 306.773438 207.230469 305.4375 206.945312 C 299.199219 205.871094 291.203125 208.160156 285.203125 210.78125 C 284.605469 211.042969 283.324219 211.261719 282.675781 211.664062 C 281.933594 212.128906 280.941406 213.765625 280.867188 213.140625 C 280.941406 213.757812 287.0625 215.910156 288.09375 216.679688 C 289.566406 217.777344 290.046875 219.480469 290.984375 221.101562 C 291.699219 222.335938 293.179688 222.488281 293.515625 224.050781 C 288.847656 225.558594 288.539062 221.644531 287.011719 220.21875 C 286.578125 219.8125 285.3125 219.273438 284.480469 218.742188 C 282.402344 217.414062 279.277344 216.40625 275.085938 216.976562 C 273.410156 217.203125 272.042969 218.085938 270.390625 218.449219 C 262.570312 220.171875 253.09375 220.121094 246.183594 217.859375 C 245.460938 223.574219 250.683594 226.957031 255.214844 229.359375 C 257.222656 229.625 257.894531 228.792969 259.550781 228.769531 C 259.523438 231.976562 255.191406 232.425781 251.601562 231.425781 C 250.8125 231.207031 251.039062 231.082031 250.160156 230.539062 C 248.300781 229.402344 247.25 228.742188 245.460938 227 C 245.007812 226.5625 244.527344 226.089844 244.015625 225.527344 C 243.652344 225.128906 242.78125 224.640625 242.570312 224.347656 C 241.082031 222.273438 240.898438 219.546875 239.320312 217.269531 C 238.996094 216.804688 238.167969 216.46875 237.511719 215.796875 C 235.726562 213.960938 235.332031 213.488281 232.453125 211.667969 C 230.386719 210.359375 228.835938 208.761719 226.3125 208.128906 C 223.945312 207.535156 219.90625 207.398438 216.917969 207.242188 C 207.726562 206.773438 201.890625 208.609375 195.242188 211.375 C 193.859375 213.191406 191.078125 213.875 189.460938 215.5 C 188.492188 216.476562 188.492188 217.878906 186.929688 218.449219 C 180.816406 232.5625 177.773438 249.878906 176.09375 266.816406 C 175.464844 273.136719 175.480469 279.332031 176.09375 285.101562 C 176.832031 292.066406 179.742188 301.765625 184.042969 308.691406 C 184.832031 309.96875 185.464844 311.328125 186.210938 312.527344 C 189.878906 318.4375 193.144531 323.433594 198.496094 327.863281 C 201.171875 327.9375 202.777344 328.886719 204.277344 329.925781 C 206.648438 329.683594 207.890625 330.808594 210.058594 331.105469 C 216.652344 332.015625 224.144531 328.902344 230.289062 328.449219 C 234.164062 328.164062 240.609375 328.554688 240.40625 331.988281 C 238.160156 331.773438 235.46875 331.132812 232.820312 331.398438 C 226.964844 331.984375 221.160156 335.519531 215.839844 335.234375 C 217.105469 337.023438 219.976562 336.992188 221.980469 337.886719 C 223.90625 338.75 225.394531 340.386719 227.761719 340.542969 C 229.84375 342.871094 233.378906 344.015625 234.625 347.03125 C 233.917969 348.417969 234.660156 350.988281 233.542969 352.042969 C 231.332031 350.699219 230.925781 347.886719 228.84375 346.441406 C 222.457031 343.691406 216.921875 340.246094 207.890625 339.65625 C 201.636719 336.28125 192.480469 334.15625 186.574219 329.925781 C 184.804688 328.660156 183.894531 327.160156 181.875 326.089844 C 182.269531 330.167969 178.03125 335.714844 179.347656 339.65625 C 180.007812 341.628906 182.542969 342.042969 184.40625 343.492188 C 189.464844 343.769531 192.453125 341.859375 197.410156 342.902344 C 198.320312 344.027344 199.582031 344.867188 199.578125 346.734375 C 198.273438 347.652344 198.546875 345.394531 197.050781 345.554688 C 191.582031 344.597656 187.019531 347.773438 181.152344 346.441406 C 183.539062 348.816406 188.382812 353.199219 189.101562 357.351562 C 189.355469 358.804688 189.660156 361.953125 187.296875 362.660156 C 185.523438 362.472656 187.484375 361.070312 186.933594 360.003906 C 183.585938 351.933594 172.359375 347.828125 171.039062 338.183594 C 170.4375 333.8125 171.851562 330.335938 171.761719 324.914062 C 169.035156 326.5 168.949219 328.148438 166.703125 329.632812 C 165.515625 330.414062 163.34375 331.167969 161.28125 331.992188 C 157.589844 333.460938 153.867188 334.800781 148.996094 336.121094 C 145.300781 337.121094 142.363281 337.433594 141.050781 339.660156 C 141.933594 341.746094 140.09375 343.5 139.605469 344.96875 C 139.335938 345.761719 139.816406 346.828125 139.605469 347.621094 C 138.929688 350.160156 136.160156 351.949219 133.824219 350.273438 C 133.910156 349.265625 135.753906 349.6875 135.992188 348.800781 C 136.019531 344.539062 136.148438 342 135.992188 337.890625 C 129.019531 337.484375 125.542969 343.140625 120.816406 346.738281 C 119.507812 347.734375 115.714844 350.292969 113.953125 350.867188 C 111.320312 351.722656 105.160156 352.507812 102.390625 350.277344 C 102.117188 348.78125 103.769531 350.910156 103.835938 349.980469 C 112.277344 349.417969 116.011719 343.3125 121.539062 339.070312 C 125.636719 335.925781 132.152344 333.078125 138.878906 331.695312 C 141.101562 331.242188 143.488281 331.289062 145.746094 330.8125 C 149.042969 330.117188 152.078125 328.859375 155.5 327.863281 C 158.4375 326.230469 160.046875 323.511719 162.363281 321.375 C 162.949219 317.835938 163.113281 314.609375 162.363281 311.050781 C 161.660156 307.703125 159.726562 304.421875 159.113281 301.320312 C 158.523438 298.324219 158.34375 295.074219 158.027344 291.882812 C 156.609375 277.550781 159.859375 262.144531 160.917969 249.710938 C 161.089844 247.671875 160.785156 245.558594 161.28125 243.8125 C 161.480469 243.105469 162.203125 242.460938 162.363281 241.75 C 163.8125 235.226562 164.109375 229.269531 165.253906 223.464844 C 164.671875 217.347656 161.867188 212.320312 157.667969 207.835938 C 156.445312 206.53125 155.375 204.917969 154.414062 204.296875 C 148.851562 200.695312 137.164062 201.105469 129.125 201.9375 C 123.277344 202.539062 117.917969 204.402344 112.503906 206.65625 C 105.152344 209.710938 100.992188 210.847656 96.96875 215.503906 C 93.03125 220.054688 92.117188 226.496094 87.214844 230.542969 C 85.828125 231.683594 80.710938 234.40625 78.902344 234.671875 C 77.273438 234.910156 74.550781 234.738281 73.121094 233.492188 C 73.730469 232.359375 75.617188 233.382812 77.457031 232.902344 C 79.023438 232.496094 83.453125 229.652344 84.683594 228.183594 C 87.644531 224.652344 88.523438 219.339844 91.1875 215.796875 C 84.78125 216.863281 77.515625 218.574219 70.234375 216.976562 C 63.695312 215.546875 61.1875 211.558594 56.867188 208.425781 C 55.386719 207.355469 53.554688 207.175781 52.53125 205.773438 C 53.941406 204.25 55.800781 205.644531 56.867188 206.066406 C 60.242188 207.402344 63.757812 210.324219 66.621094 212.257812 C 69.824219 212.5625 72.894531 213.964844 76.375 214.027344 C 81.210938 214.113281 85.765625 212.039062 89.382812 211.667969 C 97.179688 207.613281 105.382812 203.886719 113.589844 200.167969 C 112.574219 198.574219 109.941406 199.160156 108.53125 198.691406 C 108.238281 198.597656 107.90625 198 107.445312 197.808594 C 106.476562 197.398438 104.679688 197.175781 104.195312 196.039062 C 93.664062 193.820312 87.519531 188.023438 82.15625 181.589844 C 82.65625 179.410156 80.800781 178.445312 79.988281 176.871094 C 78.109375 173.226562 77.292969 167.675781 75.652344 164.1875 C 74.34375 161.40625 72.855469 158.5625 69.148438 157.996094 C 71.753906 154.773438 76.683594 158.886719 77.820312 160.648438 C 78.300781 161.398438 78.417969 162.414062 78.902344 163.304688 C 79.828125 164.996094 81.105469 166.480469 82.15625 168.90625 C 83.5625 172.15625 84.0625 176.722656 87.214844 178.933594 C 87.359375 176.160156 88.972656 174.191406 90.101562 172.152344 C 90.511719 171.417969 90.417969 170.402344 90.824219 169.792969 C 91.78125 168.367188 93.582031 167.296875 94.078125 165.664062 C 94.558594 164.066406 93.4375 162.671875 94.800781 161.238281 C 98.421875 163.671875 96.175781 166.367188 95.160156 168.90625 C 94.71875 170.015625 94.835938 171.226562 94.4375 172.152344 C 93.878906 173.460938 92.5625 174.460938 92.269531 175.691406 C 92.046875 176.636719 92.191406 178.5625 92.269531 179.820312 C 92.496094 183.332031 94.59375 186.34375 97.328125 188.078125 C 98.324219 188.707031 100.15625 188.996094 102.027344 189.847656 C 103.371094 190.460938 104.519531 191.40625 106 191.910156 C 109.582031 193.128906 114.328125 194.492188 118.285156 194.859375 C 130.777344 196.019531 144.78125 192.894531 155.136719 195.746094 C 153.6875 191.675781 150.84375 188.613281 147.910156 185.421875 C 145.484375 182.78125 143.949219 181.085938 140.324219 179.230469 C 139.703125 178.914062 138.796875 178.703125 138.15625 178.34375 C 137.550781 178.007812 137.234375 177.136719 136.710938 176.871094 C 135.542969 176.273438 134.277344 175.972656 133.097656 175.394531 C 132.042969 174.878906 131.015625 174.335938 129.847656 173.625 C 127.933594 172.464844 125.445312 171.425781 123.703125 170.085938 C 122.351562 169.050781 121.605469 167.5 120.453125 166.546875 C 119.496094 165.757812 118.140625 165.285156 117.199219 164.484375 C 114.980469 162.597656 113.929688 160.109375 111.421875 157.996094 C 110.757812 154.035156 108.402344 150.824219 107.445312 147.378906 C 106.855469 145.261719 107.183594 143.132812 106 141.1875 C 103.773438 137.527344 97.050781 135.246094 95.523438 130.273438 C 94.890625 128.21875 95.023438 125.925781 95.523438 122.902344 C 97.667969 124.625 97.035156 127.089844 98.050781 129.097656 C 98.839844 130.652344 100.398438 131.832031 102.027344 132.929688 C 103.730469 134.078125 105.878906 136.191406 108.53125 136.46875 C 109.910156 132.144531 113.359375 126.875 113.949219 121.425781 C 114.238281 118.757812 113.5 115.320312 112.863281 113.167969 C 114.835938 114.757812 116.070312 118.214844 116.476562 120.835938 C 117.664062 128.472656 111.441406 135.703125 112.503906 143.542969 C 112.832031 145.964844 113.921875 149.253906 114.671875 151.800781 C 115.675781 155.222656 119.472656 158.046875 121.898438 160.648438 C 123.207031 159.496094 122.574219 158.441406 122.980469 157.40625 C 124.039062 154.710938 126.183594 152.746094 128.402344 150.621094 C 130.5 148.617188 132.476562 146.207031 134.902344 144.722656 C 138.710938 142.398438 143.644531 140.789062 147.910156 138.53125 C 149.269531 137.8125 151.039062 137.339844 151.886719 136.46875 C 153.480469 134.820312 152.9375 132.460938 153.691406 130.570312 C 155.425781 131.632812 156.425781 135.070312 155.136719 137.351562 C 153.691406 139.90625 149.476562 141.308594 146.105469 142.957031 C 144.40625 143.785156 142.515625 145.039062 140.683594 146.199219 C 137.070312 148.488281 134.542969 151.074219 131.289062 153.277344 C 129.175781 157.152344 126.648438 162.34375 130.570312 166.253906 C 131.441406 167.125 132.882812 167.472656 134.542969 168.316406 C 137.148438 169.644531 139.386719 170.851562 142.492188 172.445312 C 145.761719 174.125 148.046875 175.5625 150.800781 177.753906 C 151.898438 176.503906 151.523438 174.699219 152.246094 173.332031 C 152.65625 172.558594 154.550781 170.058594 155.5 169.203125 C 156.59375 168.207031 159.394531 167.480469 159.105469 166.546875 Z M 197.042969 142.65625 C 195.378906 141.554688 195.011719 139.398438 193.429688 138.234375 C 193.449219 137.855469 193.890625 137.824219 193.789062 137.347656 C 191.648438 134.476562 188.597656 130.0625 188.007812 125.257812 C 187.488281 121.015625 189.140625 116.289062 189.453125 113.753906 C 188.59375 114.429688 188.605469 115.816406 187.648438 116.410156 C 188.019531 117.632812 187.609375 118.84375 186.925781 119.949219 C 187.878906 123.371094 187.273438 127.253906 188.371094 130.566406 C 189.957031 135.351562 193.628906 138.789062 195.234375 142.949219 C 195.9375 144.769531 196.261719 147.160156 196.679688 149.4375 C 197.125 151.882812 197.707031 154.601562 197.765625 157.105469 C 197.84375 160.558594 198.066406 164.226562 197.402344 168.902344 C 196.933594 172.214844 195.300781 180.691406 191.261719 178.046875 C 191.902344 177.585938 193.1875 177.652344 192.707031 176.277344 C 187.578125 167.976562 177.457031 163.753906 176.808594 151.796875 C 175.367188 159.6875 180.917969 164.21875 184.394531 168.3125 C 187.113281 171.507812 191.457031 175.765625 191.261719 180.699219 C 190.871094 190.464844 176.972656 195.824219 175.003906 203.996094 C 174.527344 205.972656 176 208.496094 173.195312 209.011719 C 170.851562 207.875 169.21875 206.164062 168.5 203.703125 C 167.023438 202.644531 165.601562 200.949219 164.527344 199.277344 C 163.945312 198.378906 164 197.308594 163.441406 196.328125 C 162.972656 195.503906 162.058594 194.785156 161.636719 193.96875 C 161.347656 193.417969 161.554688 192.8125 161.273438 192.199219 C 160.28125 190.050781 158.34375 188.59375 157.300781 187.1875 C 154.492188 183.398438 154.539062 177.734375 155.132812 172.441406 C 154.617188 173.855469 153.996094 174.96875 153.6875 176.273438 C 153.210938 178.285156 154.523438 180.675781 152.242188 181.582031 C 150.234375 180.371094 148.71875 178.757812 147.183594 177.160156 C 144.640625 175.980469 142.738281 174.757812 140.316406 173.621094 C 139.761719 173.359375 139.460938 172.757812 138.875 172.441406 C 133.566406 169.601562 127.050781 168.167969 126.589844 162.414062 C 125.738281 151.832031 138.527344 146.175781 146.460938 141.179688 C 142.367188 142.683594 137.578125 144.394531 134.175781 147.078125 C 131.3125 149.339844 126.753906 153.78125 125.503906 156.8125 C 124.699219 158.761719 125.6875 161.675781 122.976562 163.003906 C 120.984375 161.6875 118.289062 160.292969 116.472656 158.285156 C 115.957031 157.71875 115.910156 156.726562 115.386719 155.925781 C 114.820312 155.054688 113.890625 154.617188 113.582031 153.863281 C 113.097656 152.671875 113.195312 150.214844 112.496094 147.964844 C 112.25 147.167969 111.636719 146.648438 111.414062 145.898438 C 110.492188 142.789062 111.257812 139.21875 111.414062 137.640625 C 111.523438 136.496094 111.199219 135.449219 111.414062 134.398438 C 111.773438 132.628906 113.355469 130.960938 113.941406 129.386719 C 114.144531 128.84375 113.945312 128.140625 114.304688 127.617188 C 113.003906 128.4375 112.71875 130.007812 112.132812 131.449219 C 111.058594 134.105469 110.636719 137.199219 108.882812 139.410156 C 107.851562 138.976562 108.238281 137.382812 105.992188 137.9375 C 105.417969 135.945312 102.972656 135.488281 100.933594 134.695312 C 102.914062 137.242188 106.640625 137.894531 108.160156 141.179688 C 109.421875 143.90625 109.320312 147.421875 110.328125 150.617188 C 110.800781 152.117188 111.886719 153.398438 112.496094 154.746094 C 112.691406 155.179688 112.316406 155.78125 112.496094 156.222656 C 112.96875 157.378906 114.453125 157.902344 114.664062 159.171875 C 114.828125 159.398438 115.386719 160.054688 115.386719 160.054688 C 117.125 162.175781 118.875 164.285156 121.890625 165.363281 C 123.605469 167.71875 126.652344 169.175781 129.117188 170.671875 C 131.339844 172.023438 133.179688 172.703125 135.621094 173.917969 C 137.605469 174.902344 139.550781 176.125 141.039062 177.160156 C 142.59375 178.242188 143.632812 178.871094 145.011719 179.8125 C 146.949219 181.140625 147.144531 182.171875 148.628906 183.648438 C 149.613281 184.628906 151.039062 185.242188 151.878906 186.300781 C 152.933594 187.632812 153.648438 189.796875 154.769531 191.316406 C 155.515625 192.332031 156.609375 192.796875 156.9375 193.675781 C 157.375 194.839844 157.886719 197.335938 156.214844 198.097656 C 153.003906 197.054688 146.949219 195.988281 142.484375 196.035156 C 140.621094 196.054688 138.8125 196.273438 137.425781 196.328125 C 124.253906 197.8125 114.988281 197.371094 104.910156 193.378906 C 104.625 192.632812 103.648438 194.210938 103.105469 193.378906 C 102.796875 192.546875 101.863281 192.230469 101.296875 191.609375 C 96.285156 189.855469 91.273438 186.359375 90.820312 180.996094 C 90.664062 179.15625 90.558594 176.480469 90.820312 174.800781 C 91.160156 172.628906 93.015625 171.105469 92.988281 169.199219 C 90.894531 172.320312 88.8125 176.761719 89.011719 180.699219 C 89.0625 181.648438 90.734375 182.59375 89.011719 183.355469 C 86.441406 182.386719 85.714844 179.199219 84.316406 177.75 C 83.367188 176.769531 82.550781 175.203125 82.148438 173.917969 C 81.351562 171.359375 80.832031 168.695312 79.621094 166.542969 C 79.21875 165.839844 78.265625 165.136719 77.8125 164.480469 C 77.394531 163.878906 77.617188 162.589844 76.367188 162.710938 C 79.390625 168.695312 80.90625 175.738281 84.316406 180.996094 C 85.539062 182.878906 87.515625 184.242188 88.289062 186.304688 C 93.847656 189.335938 97.949219 193.558594 105.632812 194.855469 C 105.820312 195.585938 106.511719 195.90625 107.078125 196.328125 C 108.980469 196.445312 110.523438 196.859375 111.414062 197.804688 C 113.761719 197.851562 115.679688 198.253906 116.109375 199.867188 C 113.644531 202.875 108.292969 204.230469 103.464844 206.355469 C 95.871094 209.703125 89.5625 214.566406 79.257812 215.203125 C 73.59375 215.554688 69.441406 214.441406 65.527344 213.433594 C 64.359375 212.21875 62.285156 210.191406 60.832031 210.191406 C 64.414062 214.089844 71.097656 216.550781 78.894531 216.382812 C 84.046875 216.273438 88.523438 213.941406 92.625 214.023438 C 92.878906 216.882812 90.722656 219.707031 89.375 222.28125 C 87.917969 225.054688 86.898438 227.902344 84.675781 229.949219 C 91.550781 225.238281 92.539062 215.722656 98.765625 210.484375 C 103.777344 208.222656 110.152344 205.457031 115.746094 203.40625 C 118.261719 202.484375 120.929688 201.363281 123.335938 200.753906 C 126.910156 199.84375 130.738281 200.011719 134.894531 199.867188 C 136.808594 199.800781 138.816406 199.324219 140.675781 199.277344 C 145.070312 199.171875 148.957031 200.527344 153.324219 201.046875 C 155.398438 203.414062 158.660156 204.863281 160.910156 207.238281 C 162.238281 208.640625 163.53125 210.625 164.523438 212.546875 C 165.515625 214.476562 166.980469 216.652344 167.414062 218.445312 C 169.1875 225.824219 166.132812 232.496094 164.882812 239.679688 C 163.445312 247.957031 162.148438 255.789062 161.632812 264.453125 C 161.222656 271.304688 160.027344 276.328125 160.1875 282.441406 C 160.238281 284.425781 160.757812 286.964844 160.910156 288.339844 C 161.238281 291.300781 160.65625 294.34375 160.910156 297.1875 C 161.226562 300.691406 162.3125 304.101562 163.441406 307.507812 C 164.449219 310.566406 166.636719 316.714844 165.609375 319.601562 C 164.429688 322.914062 161.210938 327.003906 159.105469 328.152344 C 157.5 329.027344 155.195312 329.582031 153.324219 330.21875 C 149.824219 331.40625 146.101562 332.304688 143.207031 332.871094 C 140.328125 333.433594 136.980469 333.386719 133.8125 334.347656 C 131.382812 335.085938 128.601562 336.207031 126.589844 337.296875 C 124.460938 338.445312 123.226562 340.210938 121.167969 341.71875 C 120.363281 342.3125 119.046875 342.558594 118.277344 343.195312 C 117.359375 343.953125 116.933594 345.105469 116.109375 345.847656 C 114.28125 347.5 111.9375 348.402344 109.246094 350.273438 C 113.457031 350.378906 114.113281 348.683594 116.472656 347.027344 C 117.890625 346.03125 119.515625 345.523438 120.445312 344.667969 C 121.015625 344.148438 121.289062 343.394531 121.890625 342.898438 C 126.007812 339.507812 131.539062 335.390625 138.511719 336.410156 C 136.789062 339.296875 137.199219 343.226562 138.148438 346.4375 C 138.714844 342.566406 138.242188 338.851562 141.402344 336.707031 C 143.867188 335.03125 148.140625 334.992188 151.515625 334.050781 C 154.648438 333.179688 158.25 331.628906 160.550781 330.511719 C 164.03125 328.828125 166.742188 327.367188 169.21875 325.5 C 169.796875 324.003906 170.175781 322.347656 172.109375 321.960938 C 174.546875 322.609375 173.46875 324.902344 173.554688 326.382812 C 173.789062 330.335938 172.328125 334.453125 172.832031 337.886719 C 174.171875 347.023438 182.070312 350.027344 186.5625 356.167969 C 186.839844 352.601562 183.339844 352.113281 182.589844 349.386719 C 180.304688 348.75 178.132812 346.59375 178.976562 344.375 C 180.445312 344.445312 181.449219 345.347656 182.949219 345.554688 C 185.933594 345.964844 187.902344 345.035156 190.898438 344.667969 C 192.371094 344.488281 193.859375 345.117188 194.871094 344.078125 C 192.148438 343.082031 189.007812 345.085938 185.839844 344.964844 C 181.871094 344.8125 177.589844 342.429688 177.167969 339.359375 C 176.992188 338.070312 177.625 336.195312 177.890625 334.9375 C 178.535156 331.898438 179.394531 328.789062 179.695312 325.203125 C 179.125 324.582031 178.273438 322.085938 179.695312 321.664062 C 181.765625 321.789062 183.785156 324.390625 185.117188 326.089844 C 191.394531 330.441406 197.527344 334.972656 206.433594 336.410156 C 208.039062 337.933594 211.335938 338.699219 214.019531 338.476562 C 215.613281 339.238281 216.984375 340.183594 219.800781 339.949219 C 222.5 341.285156 224.738281 342.996094 228.113281 343.785156 C 228.535156 344.3125 229.394531 345.175781 230.28125 345.847656 C 230.851562 346.28125 232.34375 347.800781 232.449219 346.734375 C 232.285156 345.210938 230.324219 344.324219 229.195312 343.488281 C 227.847656 342.492188 226.503906 341.570312 225.222656 340.539062 C 222.195312 340.355469 220.257812 339.28125 218.71875 337.886719 C 215.136719 337.761719 213.21875 336.28125 211.492188 334.640625 C 212.972656 334.210938 214.320312 333.929688 215.828125 333.757812 C 223.414062 332.890625 229.179688 331.21875 235.339844 329.921875 C 232.882812 329.667969 231.457031 329.355469 229.554688 329.628906 C 222.511719 330.640625 217.167969 332.980469 210.046875 332.578125 C 208.558594 332.492188 206.042969 332.121094 204.265625 331.691406 C 203.78125 331.574219 203.398438 331 202.820312 330.808594 C 202.011719 330.539062 200.898438 330.761719 200.292969 330.511719 C 196.789062 329.078125 194.878906 327.089844 192.703125 324.910156 C 191.910156 324.109375 190.648438 323.472656 190.175781 322.84375 C 189.453125 321.890625 189.207031 320.546875 188.367188 319.304688 C 187.054688 317.363281 185.515625 315.699219 184.394531 314.292969 C 182.164062 311.503906 180.824219 308.78125 180.058594 305.445312 C 177.046875 301.992188 176 296.695312 175 291.585938 C 174.863281 290.890625 174.382812 290.222656 174.277344 289.519531 C 172.757812 279.230469 173.828125 270.894531 175 261.210938 C 175.644531 255.890625 176.246094 249.457031 177.167969 245.285156 C 177.746094 242.664062 177.375 239.839844 177.890625 237.320312 C 178.894531 232.398438 180.808594 226.964844 182.226562 222.871094 C 183.148438 220.207031 184.316406 218.453125 185.117188 216.382812 C 187.726562 214.777344 189.464844 212.460938 191.980469 210.777344 C 194.707031 209.761719 196.984375 208.375 199.207031 206.945312 C 205.894531 205.503906 216.640625 204.515625 223.773438 206.355469 C 225.140625 206.78125 224.46875 205.542969 225.582031 205.765625 C 231.140625 208.894531 237.832031 211.097656 241.117188 216.085938 C 242.140625 219.601562 244.269531 224.433594 247.980469 226.703125 C 246.28125 223.371094 242.761719 219.957031 243.285156 215.792969 C 248.53125 217.515625 254.386719 218.542969 261.351562 218.148438 C 267.894531 217.78125 273.554688 214.628906 278.691406 215.199219 C 279.386719 215.277344 280.179688 216.152344 281.222656 216.378906 C 282.078125 216.566406 282.96875 216.210938 283.390625 216.378906 C 285.78125 217.347656 287.480469 219.640625 289.53125 221.097656 C 288.460938 216.171875 281.816406 215.796875 277.609375 213.429688 C 284.449219 208.835938 295.195312 205.335938 304.707031 205.46875 C 291.570312 202.753906 281.910156 209.886719 272.550781 213.136719 C 272.5 214.078125 273.125 213.441406 271.464844 213.429688 C 265.203125 214.671875 258.679688 215.925781 252.316406 214.90625 C 249.910156 214.519531 247.433594 213.25 245.089844 212.25 C 242.613281 211.195312 240.636719 209.984375 238.585938 208.710938 C 234.011719 205.875 229.101562 204.394531 224.496094 202.519531 C 222.636719 202.882812 220.648438 202.054688 218.714844 201.636719 C 217.277344 201.554688 216.171875 202.378906 215.464844 201.339844 C 214.917969 198.59375 219.425781 198.582031 221.246094 197.507812 C 221.523438 197.34375 222.164062 196.714844 222.6875 196.328125 C 225.777344 194.042969 227.636719 192.003906 229.914062 189.542969 C 230.90625 188.472656 232.132812 187.578125 232.804688 186.300781 C 230.648438 186.882812 232.496094 184.191406 231.359375 183.941406 C 230.683594 185.15625 229.382812 185.867188 228.832031 187.183594 C 228.550781 188.277344 227.984375 189.25 228.109375 188.660156 C 225.996094 189.492188 225.632812 191.75 222.328125 191.609375 C 220.230469 195.007812 215.84375 196.542969 211.851562 198.390625 C 198.066406 200.511719 187.003906 204.851562 180.777344 213.140625 C 179.132812 209.839844 179.183594 208.46875 179.695312 205.765625 C 180.007812 204.085938 181.265625 201.484375 182.585938 199.867188 C 183.617188 198.597656 185.449219 197.820312 186.558594 196.625 C 187.113281 196.023438 187.410156 194.957031 188.003906 194.265625 C 189.839844 192.128906 192.152344 190.234375 193.421875 188.070312 C 194.191406 186.761719 194.875 184.292969 195.589844 183.351562 C 196.316406 182.398438 196.722656 181.203125 197.035156 180.402344 C 198.410156 176.878906 198.84375 173.289062 199.5625 169.492188 C 201.125 161.269531 198.515625 151.859375 202.453125 145.308594 C 203.925781 142.859375 206.78125 138.761719 209.320312 137.9375 C 212.132812 137.019531 215.785156 138.277344 217.628906 137.050781 C 215.742188 136.726562 212.066406 137.035156 210.402344 136.757812 C 214.308594 131.703125 221.28125 127.859375 230.996094 128.5 C 229.078125 127.609375 227.628906 127.480469 224.855469 127.910156 C 220.425781 128.59375 218.578125 129.289062 215.824219 130.859375 C 215.335938 131.136719 213.0625 132.308594 212.570312 132.628906 C 208.40625 135.335938 204.359375 139.523438 202.09375 143.246094 C 201.074219 144.675781 200.851562 146.753906 198.480469 147.078125 C 197.578125 145.953125 197.253906 144.351562 197.039062 142.65625 Z M 100.578125 134.398438 C 100.300781 133.53125 99.070312 131.910156 98.40625 132.335938 C 99.554688 132.679688 99.300781 134.164062 100.578125 134.398438 Z M 148.628906 140.296875 C 150.292969 139.886719 151.207031 138.863281 152.242188 137.9375 C 151.558594 138.003906 151.445312 137.605469 150.796875 137.644531 C 150.539062 138.90625 148.769531 138.9375 148.628906 140.296875 Z M 268.941406 148.554688 C 266.703125 148.570312 263.171875 148.003906 262.4375 150.027344 C 265.441406 149.335938 269.132812 149.199219 272.191406 148.550781 C 271.132812 148.011719 270.148438 148.542969 268.941406 148.554688 Z M 277.25 149.140625 C 276.402344 148.738281 273.371094 148.589844 272.554688 149.140625 C 274.148438 148.933594 276.015625 150.035156 277.25 149.140625 Z M 246.902344 156.8125 C 245.328125 159.710938 242.328125 162.167969 240.757812 165.066406 C 240.546875 165.460938 240.941406 166.140625 240.757812 166.542969 C 240.539062 167.027344 239.910156 167.277344 239.675781 167.722656 C 237.789062 171.277344 235.3125 174.082031 233.894531 177.453125 C 233.148438 179.234375 232.699219 181.140625 232.449219 183.058594 C 232.546875 182.363281 234.050781 182.878906 233.894531 183.351562 C 233.59375 183.992188 232.960938 184.359375 233.171875 185.417969 C 235.570312 184.917969 238.179688 183.101562 241.84375 182.761719 C 243.402344 182.621094 245.199219 182.863281 246.902344 182.761719 C 251.164062 182.511719 255.265625 180.695312 258.101562 180.699219 C 259.285156 180.699219 260.476562 181.832031 261.351562 180.992188 C 260.222656 181.128906 259.742188 180.738281 259.90625 179.8125 C 259.710938 178.464844 263.199219 178.582031 262.074219 177.453125 C 255.984375 181.75 243.617188 180.675781 235.339844 182.46875 C 235.253906 182.046875 234.746094 181.972656 234.617188 181.582031 C 237.734375 174.691406 240.019531 167.121094 245.09375 161.824219 C 245.171875 162.15625 245.496094 162.285156 245.816406 162.414062 C 247.121094 155.320312 253.902344 152.695312 260.992188 150.320312 C 261.011719 149.816406 260.714844 149.566406 260.269531 149.4375 C 254.453125 150.785156 251.007812 154.066406 246.902344 156.808594 Z M 76.367188 162.121094 C 76.253906 160.9375 75.714844 160.097656 74.5625 159.761719 C 75.011719 160.675781 75.453125 161.589844 76.367188 162.121094 Z M 257.742188 161.53125 C 255.75 160.703125 249.816406 159.546875 249.070312 161.234375 C 251.578125 160.277344 256.007812 161.855469 257.742188 161.53125 Z M 255.574219 230.539062 C 252.699219 230.039062 251.257812 228.363281 249.074219 227.296875 C 249.074219 228.816406 252.832031 231.269531 255.574219 230.539062 Z M 255.574219 230.539062 " fill-opacity="1" fill-rule="evenodd"/></g><path fill="#ef6d53" d="M 198.484375 147.082031 C 200.855469 146.753906 201.078125 144.679688 202.097656 143.25 C 204.363281 139.527344 208.410156 135.339844 212.574219 132.632812 C 213.066406 132.3125 215.339844 131.140625 215.828125 130.863281 C 218.582031 129.292969 220.433594 128.597656 224.859375 127.914062 C 227.636719 127.484375 229.085938 127.613281 231 128.5 C 221.285156 127.863281 214.3125 131.707031 210.40625 136.761719 C 212.074219 137.039062 215.746094 136.730469 217.632812 137.054688 C 215.792969 138.28125 212.140625 137.023438 209.324219 137.941406 C 206.785156 138.765625 203.933594 142.863281 202.460938 145.3125 C 198.523438 151.863281 201.128906 161.273438 199.570312 169.496094 C 198.847656 173.292969 198.414062 176.878906 197.039062 180.40625 C 196.730469 181.207031 196.320312 182.402344 195.59375 183.355469 C 194.878906 184.296875 194.199219 186.765625 193.425781 188.074219 C 192.15625 190.238281 189.84375 192.132812 188.007812 194.265625 C 187.414062 194.960938 187.121094 196.027344 186.5625 196.628906 C 185.453125 197.824219 183.621094 198.601562 182.589844 199.871094 C 181.273438 201.488281 180.015625 204.089844 179.699219 205.769531 C 179.191406 208.472656 179.136719 209.84375 180.785156 213.140625 C 187.007812 204.855469 198.070312 200.515625 211.855469 198.394531 C 215.851562 196.546875 220.234375 195.011719 222.332031 191.613281 C 225.636719 191.753906 226.003906 189.496094 228.113281 188.664062 C 227.992188 189.253906 228.554688 188.28125 228.835938 187.1875 C 229.390625 185.871094 230.6875 185.160156 231.367188 183.945312 C 232.503906 184.195312 230.652344 186.886719 232.8125 186.304688 C 232.136719 187.582031 230.914062 188.476562 229.921875 189.546875 C 227.640625 192.007812 225.78125 194.046875 222.695312 196.332031 C 222.167969 196.71875 221.527344 197.347656 221.25 197.511719 C 219.429688 198.585938 214.925781 198.597656 215.46875 201.34375 C 216.175781 202.382812 217.28125 201.558594 218.71875 201.640625 C 220.652344 202.058594 222.640625 202.886719 224.503906 202.523438 C 229.109375 204.398438 234.015625 205.878906 238.59375 208.714844 C 240.644531 209.988281 242.621094 211.199219 245.097656 212.253906 C 247.4375 213.253906 249.917969 214.523438 252.324219 214.910156 C 258.683594 215.929688 265.207031 214.671875 271.46875 213.433594 C 273.128906 213.445312 272.503906 214.082031 272.554688 213.140625 C 281.914062 209.890625 291.578125 202.757812 304.710938 205.472656 C 295.199219 205.339844 284.453125 208.839844 277.613281 213.433594 C 281.824219 215.800781 288.46875 216.171875 289.535156 221.101562 C 287.484375 219.644531 285.785156 217.355469 283.394531 216.382812 C 282.976562 216.214844 282.082031 216.570312 281.226562 216.382812 C 280.1875 216.15625 279.390625 215.28125 278.699219 215.203125 C 273.558594 214.632812 267.902344 217.785156 261.355469 218.152344 C 254.390625 218.546875 248.539062 217.515625 243.289062 215.796875 C 242.765625 219.960938 246.289062 223.375 247.988281 226.707031 C 244.273438 224.4375 242.144531 219.605469 241.121094 216.089844 C 237.839844 211.101562 231.144531 208.898438 225.585938 205.769531 C 224.472656 205.546875 225.144531 206.785156 223.78125 206.359375 C 216.644531 204.519531 205.902344 205.507812 199.210938 206.949219 C 196.988281 208.378906 194.714844 209.765625 191.984375 210.78125 C 189.472656 212.464844 187.730469 214.78125 185.121094 216.386719 C 184.320312 218.457031 183.152344 220.207031 182.230469 222.875 C 180.8125 226.96875 178.902344 232.402344 177.894531 237.324219 C 177.378906 239.84375 177.75 242.667969 177.171875 245.289062 C 176.253906 249.460938 175.648438 255.894531 175.003906 261.214844 C 173.832031 270.898438 172.761719 279.234375 174.28125 289.523438 C 174.386719 290.226562 174.867188 290.894531 175.003906 291.589844 C 176.003906 296.699219 177.050781 301.996094 180.0625 305.449219 C 180.828125 308.785156 182.171875 311.503906 184.398438 314.296875 C 185.523438 315.703125 187.058594 317.371094 188.375 319.308594 C 189.214844 320.550781 189.460938 321.894531 190.179688 322.847656 C 190.652344 323.476562 191.914062 324.113281 192.710938 324.914062 C 194.882812 327.09375 196.796875 329.082031 200.296875 330.515625 C 200.902344 330.765625 202.015625 330.542969 202.824219 330.8125 C 203.40625 331.003906 203.785156 331.578125 204.269531 331.695312 C 206.046875 332.125 208.5625 332.496094 210.050781 332.582031 C 217.171875 332.984375 222.519531 330.644531 229.5625 329.632812 C 231.460938 329.359375 232.886719 329.671875 235.34375 329.925781 C 229.1875 331.222656 223.421875 332.894531 215.832031 333.761719 C 214.324219 333.933594 212.976562 334.214844 211.496094 334.644531 C 213.222656 336.285156 215.140625 337.765625 218.722656 337.890625 C 220.265625 339.285156 222.203125 340.359375 225.226562 340.542969 C 226.507812 341.574219 227.851562 342.492188 229.199219 343.492188 C 230.328125 344.328125 232.289062 345.214844 232.453125 346.738281 C 232.347656 347.804688 230.855469 346.285156 230.285156 345.851562 C 229.398438 345.179688 228.539062 344.316406 228.117188 343.789062 C 224.746094 343 222.503906 341.289062 219.808594 339.953125 C 216.988281 340.1875 215.621094 339.242188 214.027344 338.480469 C 211.339844 338.703125 208.042969 337.9375 206.4375 336.414062 C 197.535156 334.976562 191.398438 330.449219 185.121094 326.09375 C 183.789062 324.394531 181.773438 321.796875 179.703125 321.667969 C 178.277344 322.089844 179.128906 324.585938 179.703125 325.207031 C 179.398438 328.792969 178.539062 331.90625 177.894531 334.941406 C 177.628906 336.195312 176.996094 338.074219 177.171875 339.363281 C 177.597656 342.433594 181.875 344.816406 185.84375 344.96875 C 189.011719 345.089844 192.15625 343.085938 194.875 344.082031 C 193.863281 345.121094 192.375 344.492188 190.902344 344.671875 C 187.910156 345.039062 185.9375 345.964844 182.953125 345.558594 C 181.453125 345.351562 180.449219 344.449219 178.980469 344.378906 C 178.136719 346.597656 180.308594 348.753906 182.59375 349.390625 C 183.347656 352.117188 186.84375 352.605469 186.566406 356.175781 C 182.074219 350.03125 174.179688 347.027344 172.839844 337.890625 C 172.335938 334.457031 173.792969 330.339844 173.5625 326.386719 C 173.472656 324.90625 174.554688 322.613281 172.117188 321.964844 C 170.179688 322.351562 169.800781 324.007812 169.226562 325.503906 C 166.746094 327.371094 164.035156 328.832031 160.554688 330.515625 C 158.253906 331.632812 154.65625 333.183594 151.523438 334.054688 C 148.148438 334.996094 143.875 335.035156 141.40625 336.710938 C 138.246094 338.855469 138.71875 342.570312 138.15625 346.441406 C 137.203125 343.230469 136.792969 339.304688 138.515625 336.414062 C 131.546875 335.394531 126.011719 339.511719 121.894531 342.902344 C 121.296875 343.398438 121.019531 344.152344 120.449219 344.675781 C 119.519531 345.527344 117.894531 346.035156 116.476562 347.035156 C 114.117188 348.6875 113.460938 350.382812 109.25 350.277344 C 111.941406 348.40625 114.285156 347.503906 116.117188 345.851562 C 116.9375 345.109375 117.367188 343.960938 118.285156 343.199219 C 119.050781 342.5625 120.367188 342.316406 121.175781 341.722656 C 123.230469 340.214844 124.464844 338.449219 126.59375 337.300781 C 128.609375 336.210938 131.386719 335.089844 133.820312 334.351562 C 136.984375 333.390625 140.332031 333.4375 143.214844 332.875 C 146.105469 332.3125 149.828125 331.410156 153.328125 330.222656 C 155.199219 329.585938 157.503906 329.03125 159.109375 328.15625 C 161.214844 327.007812 164.433594 322.917969 165.613281 319.605469 C 166.640625 316.71875 164.457031 310.570312 163.445312 307.511719 C 162.316406 304.105469 161.230469 300.695312 160.914062 297.191406 C 160.660156 294.351562 161.242188 291.304688 160.914062 288.34375 C 160.765625 286.96875 160.246094 284.429688 160.191406 282.445312 C 160.035156 276.335938 161.230469 271.3125 161.636719 264.457031 C 162.15625 255.792969 163.449219 247.960938 164.890625 239.683594 C 166.136719 232.5 169.191406 225.828125 167.417969 218.449219 C 166.988281 216.660156 165.523438 214.480469 164.527344 212.550781 C 163.535156 210.628906 162.242188 208.644531 160.914062 207.242188 C 158.667969 204.867188 155.402344 203.417969 153.328125 201.050781 C 148.960938 200.535156 145.074219 199.175781 140.679688 199.28125 C 138.824219 199.328125 136.8125 199.804688 134.902344 199.871094 C 130.742188 200.015625 126.917969 199.84375 123.339844 200.757812 C 120.933594 201.367188 118.265625 202.488281 115.753906 203.410156 C 110.15625 205.460938 103.78125 208.226562 98.773438 210.488281 C 92.542969 215.726562 91.554688 225.242188 84.679688 229.953125 C 86.90625 227.90625 87.921875 225.058594 89.378906 222.285156 C 90.726562 219.714844 92.886719 216.886719 92.628906 214.027344 C 88.527344 213.945312 84.050781 216.277344 78.902344 216.386719 C 71.101562 216.554688 64.421875 214.09375 60.835938 210.195312 C 62.289062 210.195312 64.367188 212.222656 65.535156 213.4375 C 69.445312 214.445312 73.601562 215.558594 79.261719 215.207031 C 89.570312 214.570312 95.875 209.707031 103.46875 206.359375 C 108.296875 204.234375 113.648438 202.878906 116.117188 199.871094 C 115.6875 198.257812 113.765625 197.859375 111.417969 197.808594 C 110.527344 196.867188 108.988281 196.449219 107.082031 196.332031 C 106.515625 195.910156 105.824219 195.589844 105.636719 194.859375 C 97.953125 193.5625 93.851562 189.34375 88.296875 186.308594 C 87.519531 184.246094 85.542969 182.882812 84.320312 181 C 80.910156 175.742188 79.394531 168.699219 76.371094 162.714844 C 77.621094 162.59375 77.402344 163.882812 77.816406 164.484375 C 78.273438 165.140625 79.226562 165.84375 79.625 166.550781 C 80.835938 168.699219 81.359375 171.363281 82.152344 173.921875 C 82.554688 175.207031 83.371094 176.773438 84.320312 177.753906 C 85.71875 179.203125 86.445312 182.390625 89.019531 183.359375 C 90.738281 182.597656 89.066406 181.652344 89.019531 180.703125 C 88.816406 176.765625 90.898438 172.324219 92.992188 169.203125 C 93.019531 171.109375 91.164062 172.632812 90.824219 174.804688 C 90.5625 176.484375 90.667969 179.160156 90.824219 181 C 91.277344 186.363281 96.289062 189.863281 101.304688 191.613281 C 101.871094 192.234375 102.804688 192.550781 103.109375 193.382812 C 103.652344 194.214844 104.628906 192.636719 104.917969 193.382812 C 114.992188 197.375 124.257812 197.820312 137.433594 196.332031 C 138.816406 196.28125 140.625 196.058594 142.492188 196.039062 C 146.953125 195.992188 153.007812 197.058594 156.21875 198.101562 C 157.894531 197.339844 157.378906 194.847656 156.941406 193.679688 C 156.613281 192.800781 155.523438 192.335938 154.773438 191.320312 C 153.65625 189.800781 152.9375 187.636719 151.882812 186.304688 C 151.046875 185.246094 149.617188 184.632812 148.632812 183.652344 C 147.148438 182.175781 146.957031 181.144531 145.019531 179.820312 C 143.636719 178.875 142.601562 178.246094 141.042969 177.164062 C 139.558594 176.132812 137.609375 174.90625 135.625 173.921875 C 133.183594 172.707031 131.34375 172.027344 129.121094 170.675781 C 126.65625 169.179688 123.609375 167.726562 121.894531 165.367188 C 118.878906 164.289062 117.128906 162.179688 115.390625 160.058594 C 115.402344 160.128906 115.355469 159.992188 114.667969 159.175781 C 114.460938 157.90625 112.972656 157.382812 112.5 156.226562 C 112.320312 155.789062 112.699219 155.1875 112.5 154.75 C 111.890625 153.402344 110.804688 152.121094 110.332031 150.621094 C 109.324219 147.425781 109.421875 143.910156 108.160156 141.183594 C 106.640625 137.898438 102.914062 137.246094 100.9375 134.699219 C 102.976562 135.492188 105.421875 135.953125 105.992188 137.941406 C 108.238281 137.386719 107.855469 138.980469 108.882812 139.414062 C 110.636719 137.203125 111.058594 134.109375 112.136719 131.453125 C 112.71875 130.011719 113.003906 128.441406 114.304688 127.621094 C 113.949219 128.144531 114.144531 128.847656 113.941406 129.390625 C 113.355469 130.964844 111.773438 132.632812 111.414062 134.402344 C 111.199219 135.453125 111.527344 136.5 111.414062 137.644531 C 111.257812 139.226562 110.492188 142.792969 111.414062 145.902344 C 111.636719 146.652344 112.25 147.171875 112.5 147.96875 C 113.195312 150.214844 113.097656 152.675781 113.582031 153.867188 C 113.890625 154.621094 114.820312 155.058594 115.390625 155.929688 C 115.910156 156.730469 115.960938 157.722656 116.472656 158.289062 C 118.289062 160.296875 120.984375 161.691406 122.976562 163.007812 C 125.6875 161.683594 124.703125 158.765625 125.507812 156.816406 C 126.753906 153.785156 131.3125 149.34375 134.175781 147.082031 C 137.578125 144.398438 142.367188 142.6875 146.460938 141.183594 C 138.53125 146.179688 125.742188 151.835938 126.589844 162.417969 C 127.050781 168.171875 133.566406 169.605469 138.875 172.445312 C 139.460938 172.761719 139.761719 173.363281 140.320312 173.625 C 142.738281 174.761719 144.640625 175.984375 147.183594 177.164062 C 148.722656 178.761719 150.234375 180.375 152.242188 181.589844 C 154.523438 180.679688 153.210938 178.289062 153.6875 176.28125 C 154 174.96875 154.621094 173.859375 155.132812 172.445312 C 154.539062 177.738281 154.492188 183.402344 157.300781 187.191406 C 158.34375 188.597656 160.28125 190.054688 161.273438 192.203125 C 161.558594 192.816406 161.347656 193.421875 161.636719 193.972656 C 162.058594 194.789062 162.972656 195.507812 163.441406 196.332031 C 164 197.3125 163.949219 198.382812 164.527344 199.28125 C 165.601562 200.953125 167.023438 202.648438 168.5 203.707031 C 169.21875 206.167969 170.855469 207.878906 173.199219 209.015625 C 176 208.5 174.527344 205.976562 175.003906 204 C 176.976562 195.828125 190.871094 190.46875 191.261719 180.703125 C 191.460938 175.769531 187.113281 171.511719 184.398438 168.316406 C 180.917969 164.222656 175.371094 159.691406 176.808594 151.800781 C 177.457031 163.757812 187.578125 167.980469 192.707031 176.28125 C 193.1875 177.65625 191.902344 177.589844 191.261719 178.050781 C 195.300781 180.695312 196.933594 172.21875 197.402344 168.90625 C 198.066406 164.234375 197.84375 160.5625 197.765625 157.109375 C 197.707031 154.605469 197.128906 151.886719 196.679688 149.441406 C 196.261719 147.164062 195.9375 144.773438 195.234375 142.953125 C 193.628906 138.792969 189.957031 135.355469 188.371094 130.570312 C 187.273438 127.257812 187.878906 123.375 186.925781 119.953125 C 187.609375 118.847656 188.019531 117.636719 187.648438 116.414062 C 188.609375 115.820312 188.59375 114.433594 189.453125 113.757812 C 189.144531 116.292969 187.492188 121.019531 188.011719 125.261719 C 188.597656 130.066406 191.648438 134.480469 193.789062 137.351562 C 193.894531 137.828125 193.449219 137.859375 193.429688 138.238281 C 195.011719 139.402344 195.378906 141.558594 197.042969 142.660156 C 197.253906 144.351562 197.578125 145.957031 198.484375 147.082031 Z M 198.484375 147.082031 " fill-opacity="1" fill-rule="evenodd"/><path fill="#ef6d53" d="M 98.40625 132.335938 C 99.066406 131.914062 100.296875 133.53125 100.574219 134.402344 C 99.296875 134.167969 99.550781 132.679688 98.40625 132.335938 Z M 98.40625 132.335938 " fill-opacity="1" fill-rule="evenodd"/><path fill="#ef6d53" d="M 249.070312 161.234375 C 249.8125 159.542969 255.746094 160.699219 257.738281 161.527344 C 256.007812 161.855469 251.574219 160.277344 249.070312 161.234375 Z M 249.070312 161.234375 " fill-opacity="1" fill-rule="evenodd"/><g clip-path="url(#7637c24626)"><g clip-path="url(#e3b691d720)"><path fill="#63a3b2" d="M 3.378906 175.316406 L 51.820312 175.316406 L 51.820312 223.757812 L 3.378906 223.757812 Z M 3.378906 175.316406 " fill-opacity="1" fill-rule="nonzero"/></g></g><g clip-path="url(#35760d6bff)"><g clip-path="url(#b01b92b72a)"><path fill="#63a3b2" d="M 94.621094 73.835938 L 131.035156 73.835938 L 131.035156 110.25 L 94.621094 110.25 Z M 94.621094 73.835938 " fill-opacity="1" fill-rule="nonzero"/></g></g><g clip-path="url(#361fbee009)"><g clip-path="url(#c05fa01b1e)"><path fill="#63a3b2" d="M 287.832031 121.992188 L 330.9375 121.992188 L 330.9375 165.097656 L 287.832031 165.097656 Z M 287.832031 121.992188 " fill-opacity="1" fill-rule="nonzero"/></g></g><g clip-path="url(#925f7b2b63)"><g clip-path="url(#9cfac3e98d)"><g clip-path="url(#b43208b766)"><path fill="#63a3b2" d="M 326.554688 184.535156 L 375 213.195312 L 346.339844 261.636719 L 297.898438 232.976562 Z M 326.554688 184.535156 " fill-opacity="1" fill-rule="nonzero"/></g></g></g><g clip-path="url(#346279b1af)"><g clip-path="url(#0f035007e9)"><path fill="#63a3b2" d="M 38.324219 136.722656 L 66.695312 136.722656 L 66.695312 165.097656 L 38.324219 165.097656 Z M 38.324219 136.722656 " fill-opacity="1" fill-rule="nonzero"/></g></g><g clip-path="url(#51c698b805)"><g clip-path="url(#b916f2f63c)"><path fill="#63a3b2" d="M 86.921875 105.296875 L 102.320312 105.296875 L 102.320312 120.695312 L 86.921875 120.695312 Z M 86.921875 105.296875 " fill-opacity="1" fill-rule="nonzero"/></g></g><g clip-path="url(#d74f18a5ec)"><g clip-path="url(#970f1ca2e0)"><path fill="#63a3b2" d="M 142.957031 103.644531 L 166.84375 103.644531 L 166.84375 127.53125 L 142.957031 127.53125 Z M 142.957031 103.644531 " fill-opacity="1" fill-rule="nonzero"/></g></g><g clip-path="url(#14fb408e3d)"><g clip-path="url(#2ac1d03996)"><path fill="#63a3b2" d="M 88.214844 143.210938 L 103.613281 143.210938 L 103.613281 158.609375 L 88.214844 158.609375 Z M 88.214844 143.210938 " fill-opacity="1" fill-rule="nonzero"/></g></g><g clip-path="url(#7a4b2fdacb)"><g clip-path="url(#2c8b08b059)"><path fill="#63a3b2" d="M 42.75 221.378906 L 71.125 221.378906 L 71.125 249.753906 L 42.75 249.753906 Z M 42.75 221.378906 " fill-opacity="1" fill-rule="nonzero"/></g></g><g clip-path="url(#85bc2944f4)"><g clip-path="url(#5363c14b75)"><path fill="#63a3b2" d="M 187.597656 77.339844 L 212.605469 77.339844 L 212.605469 102.347656 L 187.597656 102.347656 Z M 187.597656 77.339844 " fill-opacity="1" fill-rule="nonzero"/></g></g><g clip-path="url(#4c5d2c489a)"><g clip-path="url(#43e331a49a)"><g clip-path="url(#3de8f5e79a)"><path fill="#63a3b2" d="M 294.542969 223.757812 L 309.382812 232.539062 L 300.601562 247.375 L 285.761719 238.597656 Z M 294.542969 223.757812 " fill-opacity="1" fill-rule="nonzero"/></g></g></g><g clip-path="url(#2ed0d68c7d)"><g clip-path="url(#a2e7b60e67)"><g clip-path="url(#4884347021)"><path fill="#63a3b2" d="M 267.367188 218.578125 L 285.761719 229.460938 L 274.878906 247.855469 L 256.484375 236.972656 Z M 267.367188 218.578125 " fill-opacity="1" fill-rule="nonzero"/></g></g></g><g clip-path="url(#050d37daa6)"><g clip-path="url(#f7967a249e)"><path fill="#63a3b2" d="M 277.84375 158.609375 L 293.203125 158.609375 L 293.203125 173.96875 L 277.84375 173.96875 Z M 277.84375 158.609375 " fill-opacity="1" fill-rule="nonzero"/></g></g><g clip-path="url(#9417f4ad4f)"><g clip-path="url(#ef93d69407)"><path fill="#63a3b2" d="M 235.640625 121.992188 L 253.027344 121.992188 L 253.027344 139.375 L 235.640625 139.375 Z M 235.640625 121.992188 " fill-opacity="1" fill-rule="nonzero"/></g></g><g clip-path="url(#6354cdf0d0)"><g clip-path="url(#672b3d4039)"><path fill="#63a3b2" d="M 221.625 135.84375 L 236.355469 135.84375 L 236.355469 150.574219 L 221.625 150.574219 Z M 221.625 135.84375 " fill-opacity="1" fill-rule="nonzero"/></g></g><g clip-path="url(#0b5a7257cb)"><g clip-path="url(#8ea6ce6c85)"><path fill="#63a3b2" d="M 293.203125 173.96875 L 315.714844 173.96875 L 315.714844 196.480469 L 293.203125 196.480469 Z M 293.203125 173.96875 " fill-opacity="1" fill-rule="nonzero"/></g></g><g clip-path="url(#fe68483e35)"><g clip-path="url(#c19898ea47)"><path fill="#63a3b2" d="M 329.59375 157.222656 L 363.085938 157.222656 L 363.085938 190.710938 L 329.59375 190.710938 Z M 329.59375 157.222656 " fill-opacity="1" fill-rule="nonzero"/></g></g><g clip-path="url(#81b4ec48ad)"><g clip-path="url(#ecb4423907)"><path fill="#63a3b2" d="M 212.605469 92.042969 L 238.363281 92.042969 L 238.363281 117.800781 L 212.605469 117.800781 Z M 212.605469 92.042969 " fill-opacity="1" fill-rule="nonzero"/></g></g><g clip-path="url(#bc7e35eb62)"><g clip-path="url(#047a83626a)"><path fill="#63a3b2" d="M 258.25 112.996094 L 284.007812 112.996094 L 284.007812 138.753906 L 258.25 138.753906 Z M 258.25 112.996094 " fill-opacity="1" fill-rule="nonzero"/></g></g><g clip-path="url(#fe714cf737)"><g clip-path="url(#f607c5582e)"><path fill="#63a3b2" d="M 241.382812 70.007812 L 281.054688 70.007812 L 281.054688 109.679688 L 241.382812 109.679688 Z M 241.382812 70.007812 " fill-opacity="1" fill-rule="nonzero"/></g></g><g clip-path="url(#d8bcaa5cc7)"><g clip-path="url(#78f1480fbd)"><path fill="#63a3b2" d="M 138.082031 57.289062 L 180.550781 57.289062 L 180.550781 99.757812 L 138.082031 99.757812 Z M 138.082031 57.289062 " fill-opacity="1" fill-rule="nonzero"/></g></g><g clip-path="url(#d0aa3f3b8b)"><g clip-path="url(#acf4ff9091)"><path fill="#63a3b2" d="M 214.492188 57.289062 L 239.496094 57.289062 L 239.496094 82.292969 L 214.492188 82.292969 Z M 214.492188 57.289062 " fill-opacity="1" fill-rule="nonzero"/></g></g><g clip-path="url(#ceaed1b339)"><g clip-path="url(#5a9418885a)"><path fill="#63a3b2" d="M 168.160156 12.214844 L 221.625 12.214844 L 221.625 65.679688 L 168.160156 65.679688 Z M 168.160156 12.214844 " fill-opacity="1" fill-rule="nonzero"/></g></g><g clip-path="url(#16f82aea7d)"><g clip-path="url(#8956b1d119)"><path fill="#63a3b2" d="M 52.84375 105.675781 L 77.851562 105.675781 L 77.851562 130.683594 L 52.84375 130.683594 Z M 52.84375 105.675781 " fill-opacity="1" fill-rule="nonzero"/></g></g><g clip-path="url(#670981f7eb)"><g clip-path="url(#b3f37262ca)"><path fill="#63a3b2" d="M 155.652344 147.894531 L 172.855469 147.894531 L 172.855469 165.097656 L 155.652344 165.097656 Z M 155.652344 147.894531 " fill-opacity="1" fill-rule="nonzero"/></g></g><g clip-path="url(#e118c913b3)"><g clip-path="url(#181a57bed0)"><path fill="#63a3b2" d="M 275.113281 175.316406 L 286.992188 175.316406 L 286.992188 187.195312 L 275.113281 187.195312 Z M 275.113281 175.316406 " fill-opacity="1" fill-rule="nonzero"/></g></g><g clip-path="url(#6a23f2ef42)"><g clip-path="url(#50b18d9ce9)"><path fill="#63a3b2" d="M 285.765625 78.523438 L 321.539062 78.523438 L 321.539062 114.292969 L 285.765625 114.292969 Z M 285.765625 78.523438 " fill-opacity="1" fill-rule="nonzero"/></g></g><g clip-path="url(#640918deeb)"><g clip-path="url(#2fd29f2068)"><path fill="#63a3b2" d="M 0 135.84375 L 33.140625 135.84375 L 33.140625 168.984375 L 0 168.984375 Z M 0 135.84375 " fill-opacity="1" fill-rule="nonzero"/></g></g></svg>