<svg xmlns="http://www.w3.org/2000/svg" xmlns:xlink="http://www.w3.org/1999/xlink" width="500" zoomAndPan="magnify" viewBox="0 0 375 374.999991" height="500" preserveAspectRatio="xMidYMid meet" version="1.0"><defs><g/><clipPath id="816c141eb2"><path d="M 51.558594 127.910156 L 233.867188 127.910156 L 233.867188 312 L 51.558594 312 Z M 51.558594 127.910156 " clip-rule="nonzero"/></clipPath><clipPath id="9deff7152c"><path d="M 16.648438 178.839844 L 51.070312 178.839844 L 51.070312 213.265625 L 16.648438 213.265625 Z M 16.648438 178.839844 " clip-rule="nonzero"/></clipPath><clipPath id="239af46875"><path d="M 33.859375 178.839844 C 24.355469 178.839844 16.648438 186.546875 16.648438 196.050781 C 16.648438 205.558594 24.355469 213.265625 33.859375 213.265625 C 43.367188 213.265625 51.070312 205.558594 51.070312 196.050781 C 51.070312 186.546875 43.367188 178.839844 33.859375 178.839844 Z M 33.859375 178.839844 " clip-rule="nonzero"/></clipPath><clipPath id="483a9b77bc"><path d="M 81.484375 106.730469 L 107.359375 106.730469 L 107.359375 132.605469 L 81.484375 132.605469 Z M 81.484375 106.730469 " clip-rule="nonzero"/></clipPath><clipPath id="3afdf2ade2"><path d="M 94.421875 106.730469 C 87.277344 106.730469 81.484375 112.523438 81.484375 119.667969 C 81.484375 126.8125 87.277344 132.605469 94.421875 132.605469 C 101.566406 132.605469 107.359375 126.8125 107.359375 119.667969 C 107.359375 112.523438 101.566406 106.730469 94.421875 106.730469 Z M 94.421875 106.730469 " clip-rule="nonzero"/></clipPath><clipPath id="b5e907d554"><path d="M 218.78125 140.949219 L 249.414062 140.949219 L 249.414062 171.578125 L 218.78125 171.578125 Z M 218.78125 140.949219 " clip-rule="nonzero"/></clipPath><clipPath id="ed206e3f47"><path d="M 234.097656 140.949219 C 225.640625 140.949219 218.78125 147.804688 218.78125 156.265625 C 218.78125 164.722656 225.640625 171.578125 234.097656 171.578125 C 242.554688 171.578125 249.414062 164.722656 249.414062 156.265625 C 249.414062 147.804688 242.554688 140.949219 234.097656 140.949219 Z M 234.097656 140.949219 " clip-rule="nonzero"/></clipPath><clipPath id="9c9984eaa3"><path d="M 233 192 L 274 192 L 274 233 L 233 233 Z M 233 192 " clip-rule="nonzero"/></clipPath><clipPath id="3c4058c9e3"><path d="M 246.300781 185.394531 L 280.722656 205.757812 L 260.355469 240.183594 L 225.933594 219.816406 Z M 246.300781 185.394531 " clip-rule="nonzero"/></clipPath><clipPath id="573ca305b7"><path d="M 263.511719 195.578125 C 254.003906 189.953125 241.742188 193.097656 236.117188 202.605469 C 230.492188 212.109375 233.640625 224.375 243.144531 230 C 252.652344 235.625 264.914062 232.476562 270.539062 222.972656 C 276.164062 213.464844 273.015625 201.199219 263.511719 195.578125 Z M 263.511719 195.578125 " clip-rule="nonzero"/></clipPath><clipPath id="801dc04a94"><path d="M 41.476562 151.417969 L 61.640625 151.417969 L 61.640625 171.578125 L 41.476562 171.578125 Z M 41.476562 151.417969 " clip-rule="nonzero"/></clipPath><clipPath id="d8d2686857"><path d="M 51.558594 151.417969 C 45.992188 151.417969 41.476562 155.929688 41.476562 161.5 C 41.476562 167.066406 45.992188 171.578125 51.558594 171.578125 C 57.128906 171.578125 61.640625 167.066406 61.640625 161.5 C 61.640625 155.929688 57.128906 151.417969 51.558594 151.417969 Z M 51.558594 151.417969 " clip-rule="nonzero"/></clipPath><clipPath id="b4737346b5"><path d="M 76.011719 129.085938 L 86.953125 129.085938 L 86.953125 140.027344 L 76.011719 140.027344 Z M 76.011719 129.085938 " clip-rule="nonzero"/></clipPath><clipPath id="935080107c"><path d="M 81.484375 129.085938 C 78.460938 129.085938 76.011719 131.535156 76.011719 134.558594 C 76.011719 137.578125 78.460938 140.027344 81.484375 140.027344 C 84.503906 140.027344 86.953125 137.578125 86.953125 134.558594 C 86.953125 131.535156 84.503906 129.085938 81.484375 129.085938 Z M 81.484375 129.085938 " clip-rule="nonzero"/></clipPath><clipPath id="1f783dd736"><path d="M 115.832031 127.910156 L 132.808594 127.910156 L 132.808594 144.886719 L 115.832031 144.886719 Z M 115.832031 127.910156 " clip-rule="nonzero"/></clipPath><clipPath id="79a626537a"><path d="M 124.320312 127.910156 C 119.632812 127.910156 115.832031 131.710938 115.832031 136.398438 C 115.832031 141.085938 119.632812 144.886719 124.320312 144.886719 C 129.007812 144.886719 132.808594 141.085938 132.808594 136.398438 C 132.808594 131.710938 129.007812 127.910156 124.320312 127.910156 Z M 124.320312 127.910156 " clip-rule="nonzero"/></clipPath><clipPath id="0715dd1079"><path d="M 76.933594 156.027344 L 87.875 156.027344 L 87.875 166.96875 L 76.933594 166.96875 Z M 76.933594 156.027344 " clip-rule="nonzero"/></clipPath><clipPath id="4d92dbc1ba"><path d="M 82.40625 156.027344 C 79.382812 156.027344 76.933594 158.476562 76.933594 161.5 C 76.933594 164.519531 79.382812 166.96875 82.40625 166.96875 C 85.425781 166.96875 87.875 164.519531 87.875 161.5 C 87.875 158.476562 85.425781 156.027344 82.40625 156.027344 Z M 82.40625 156.027344 " clip-rule="nonzero"/></clipPath><clipPath id="12d3de7c45"><path d="M 44.625 211.574219 L 64.789062 211.574219 L 64.789062 231.738281 L 44.625 231.738281 Z M 44.625 211.574219 " clip-rule="nonzero"/></clipPath><clipPath id="af39e0e154"><path d="M 54.707031 211.574219 C 49.140625 211.574219 44.625 216.085938 44.625 221.65625 C 44.625 227.222656 49.140625 231.738281 54.707031 231.738281 C 60.273438 231.738281 64.789062 227.222656 64.789062 221.65625 C 64.789062 216.085938 60.273438 211.574219 54.707031 211.574219 Z M 54.707031 211.574219 " clip-rule="nonzero"/></clipPath><clipPath id="524ed81bcc"><path d="M 147.554688 109.21875 L 165.324219 109.21875 L 165.324219 126.992188 L 147.554688 126.992188 Z M 147.554688 109.21875 " clip-rule="nonzero"/></clipPath><clipPath id="7f11a2fd99"><path d="M 156.441406 109.21875 C 151.535156 109.21875 147.554688 113.199219 147.554688 118.105469 C 147.554688 123.011719 151.535156 126.992188 156.441406 126.992188 C 161.347656 126.992188 165.324219 123.011719 165.324219 118.105469 C 165.324219 113.199219 161.347656 109.21875 156.441406 109.21875 Z M 156.441406 109.21875 " clip-rule="nonzero"/></clipPath><clipPath id="ef6a728817"><path d="M 219 215 L 232 215 L 232 228 L 219 228 Z M 219 215 " clip-rule="nonzero"/></clipPath><clipPath id="6b1ebdf3b2"><path d="M 223.550781 213.265625 L 234.09375 219.503906 L 227.855469 230.046875 L 217.3125 223.808594 Z M 223.550781 213.265625 " clip-rule="nonzero"/></clipPath><clipPath id="cef8be4c66"><path d="M 228.820312 216.386719 C 225.910156 214.664062 222.152344 215.625 220.429688 218.539062 C 218.707031 221.449219 219.671875 225.207031 222.582031 226.929688 C 225.496094 228.652344 229.253906 227.6875 230.976562 224.777344 C 232.699219 221.863281 231.734375 218.109375 228.820312 216.386719 Z M 228.820312 216.386719 " clip-rule="nonzero"/></clipPath><clipPath id="94cbf62cad"><path d="M 199 212 L 215 212 L 215 228 L 199 228 Z M 199 212 " clip-rule="nonzero"/></clipPath><clipPath id="6586a20f00"><path d="M 204.238281 209.585938 L 217.3125 217.316406 L 209.578125 230.390625 L 196.503906 222.65625 Z M 204.238281 209.585938 " clip-rule="nonzero"/></clipPath><clipPath id="8d493dd58a"><path d="M 210.773438 213.453125 C 207.164062 211.316406 202.507812 212.511719 200.371094 216.121094 C 198.238281 219.730469 199.429688 224.386719 203.042969 226.523438 C 206.652344 228.660156 211.308594 227.464844 213.445312 223.855469 C 215.578125 220.246094 214.382812 215.585938 210.773438 213.453125 Z M 210.773438 213.453125 " clip-rule="nonzero"/></clipPath><clipPath id="f14baac749"><path d="M 211.683594 166.96875 L 222.597656 166.96875 L 222.597656 177.882812 L 211.683594 177.882812 Z M 211.683594 166.96875 " clip-rule="nonzero"/></clipPath><clipPath id="13b999e607"><path d="M 217.140625 166.96875 C 214.128906 166.96875 211.683594 169.414062 211.683594 172.425781 C 211.683594 175.441406 214.128906 177.882812 217.140625 177.882812 C 220.15625 177.882812 222.597656 175.441406 222.597656 172.425781 C 222.597656 169.414062 220.15625 166.96875 217.140625 166.96875 Z M 217.140625 166.96875 " clip-rule="nonzero"/></clipPath><clipPath id="1c75e7fba9"><path d="M 181.695312 140.949219 L 194.050781 140.949219 L 194.050781 153.304688 L 181.695312 153.304688 Z M 181.695312 140.949219 " clip-rule="nonzero"/></clipPath><clipPath id="701c8345d8"><path d="M 187.871094 140.949219 C 184.460938 140.949219 181.695312 143.714844 181.695312 147.125 C 181.695312 150.539062 184.460938 153.304688 187.871094 153.304688 C 191.285156 153.304688 194.050781 150.539062 194.050781 147.125 C 194.050781 143.714844 191.285156 140.949219 187.871094 140.949219 Z M 187.871094 140.949219 " clip-rule="nonzero"/></clipPath><clipPath id="cadbe39c35"><path d="M 171.734375 150.792969 L 182.203125 150.792969 L 182.203125 161.261719 L 171.734375 161.261719 Z M 171.734375 150.792969 " clip-rule="nonzero"/></clipPath><clipPath id="7d3988738f"><path d="M 176.96875 150.792969 C 174.078125 150.792969 171.734375 153.136719 171.734375 156.027344 C 171.734375 158.917969 174.078125 161.261719 176.96875 161.261719 C 179.859375 161.261719 182.203125 158.917969 182.203125 156.027344 C 182.203125 153.136719 179.859375 150.792969 176.96875 150.792969 Z M 176.96875 150.792969 " clip-rule="nonzero"/></clipPath><clipPath id="0794e1b35f"><path d="M 222.597656 177.882812 L 238.597656 177.882812 L 238.597656 193.878906 L 222.597656 193.878906 Z M 222.597656 177.882812 " clip-rule="nonzero"/></clipPath><clipPath id="5aec9c6328"><path d="M 230.597656 177.882812 C 226.179688 177.882812 222.597656 181.464844 222.597656 185.882812 C 222.597656 190.300781 226.179688 193.878906 230.597656 193.878906 C 235.015625 193.878906 238.597656 190.300781 238.597656 185.882812 C 238.597656 181.464844 235.015625 177.882812 230.597656 177.882812 Z M 230.597656 177.882812 " clip-rule="nonzero"/></clipPath><clipPath id="14dc186df7"><path d="M 248.457031 165.984375 L 272.257812 165.984375 L 272.257812 189.78125 L 248.457031 189.78125 Z M 248.457031 165.984375 " clip-rule="nonzero"/></clipPath><clipPath id="270c93094f"><path d="M 260.359375 165.984375 C 253.785156 165.984375 248.457031 171.3125 248.457031 177.882812 C 248.457031 184.457031 253.785156 189.78125 260.359375 189.78125 C 266.929688 189.78125 272.257812 184.457031 272.257812 177.882812 C 272.257812 171.3125 266.929688 165.984375 260.359375 165.984375 Z M 260.359375 165.984375 " clip-rule="nonzero"/></clipPath><clipPath id="68b0403ac2"><path d="M 165.324219 119.667969 L 183.628906 119.667969 L 183.628906 137.972656 L 165.324219 137.972656 Z M 165.324219 119.667969 " clip-rule="nonzero"/></clipPath><clipPath id="d8fdd0950d"><path d="M 174.476562 119.667969 C 169.421875 119.667969 165.324219 123.765625 165.324219 128.820312 C 165.324219 133.875 169.421875 137.972656 174.476562 137.972656 C 179.53125 137.972656 183.628906 133.875 183.628906 128.820312 C 183.628906 123.765625 179.53125 119.667969 174.476562 119.667969 Z M 174.476562 119.667969 " clip-rule="nonzero"/></clipPath><clipPath id="20eaa8bb46"><path d="M 197.757812 134.558594 L 216.0625 134.558594 L 216.0625 152.859375 L 197.757812 152.859375 Z M 197.757812 134.558594 " clip-rule="nonzero"/></clipPath><clipPath id="e6a07365f0"><path d="M 206.910156 134.558594 C 201.855469 134.558594 197.757812 138.65625 197.757812 143.710938 C 197.757812 148.761719 201.855469 152.859375 206.910156 152.859375 C 211.964844 152.859375 216.0625 148.761719 216.0625 143.710938 C 216.0625 138.65625 211.964844 134.558594 206.910156 134.558594 Z M 206.910156 134.558594 " clip-rule="nonzero"/></clipPath><clipPath id="6f3672c89b"><path d="M 185.773438 104.007812 L 213.964844 104.007812 L 213.964844 132.199219 L 185.773438 132.199219 Z M 185.773438 104.007812 " clip-rule="nonzero"/></clipPath><clipPath id="28eb50a036"><path d="M 199.871094 104.007812 C 192.085938 104.007812 185.773438 110.320312 185.773438 118.105469 C 185.773438 125.890625 192.085938 132.199219 199.871094 132.199219 C 207.652344 132.199219 213.964844 125.890625 213.964844 118.105469 C 213.964844 110.320312 207.652344 104.007812 199.871094 104.007812 Z M 199.871094 104.007812 " clip-rule="nonzero"/></clipPath><clipPath id="e4e54d77f0"><path d="M 112.367188 94.96875 L 142.546875 94.96875 L 142.546875 125.148438 L 112.367188 125.148438 Z M 112.367188 94.96875 " clip-rule="nonzero"/></clipPath><clipPath id="74409a188a"><path d="M 127.457031 94.96875 C 119.125 94.96875 112.367188 101.726562 112.367188 110.058594 C 112.367188 118.394531 119.125 125.148438 127.457031 125.148438 C 135.792969 125.148438 142.546875 118.394531 142.546875 110.058594 C 142.546875 101.726562 135.792969 94.96875 127.457031 94.96875 Z M 127.457031 94.96875 " clip-rule="nonzero"/></clipPath><clipPath id="71732d8f39"><path d="M 166.664062 94.96875 L 184.433594 94.96875 L 184.433594 112.742188 L 166.664062 112.742188 Z M 166.664062 94.96875 " clip-rule="nonzero"/></clipPath><clipPath id="d222a68ac7"><path d="M 175.550781 94.96875 C 170.640625 94.96875 166.664062 98.949219 166.664062 103.855469 C 166.664062 108.761719 170.640625 112.742188 175.550781 112.742188 C 180.457031 112.742188 184.433594 108.761719 184.433594 103.855469 C 184.433594 98.949219 180.457031 94.96875 175.550781 94.96875 Z M 175.550781 94.96875 " clip-rule="nonzero"/></clipPath><clipPath id="ad459b4a08"><path d="M 133.742188 62.941406 L 171.734375 62.941406 L 171.734375 100.933594 L 133.742188 100.933594 Z M 133.742188 62.941406 " clip-rule="nonzero"/></clipPath><clipPath id="a779c52d61"><path d="M 152.738281 62.941406 C 142.246094 62.941406 133.742188 71.445312 133.742188 81.9375 C 133.742188 92.429688 142.246094 100.933594 152.738281 100.933594 C 163.230469 100.933594 171.734375 92.429688 171.734375 81.9375 C 171.734375 71.445312 163.230469 62.941406 152.738281 62.941406 Z M 152.738281 62.941406 " clip-rule="nonzero"/></clipPath><clipPath id="2fd4f28504"><path d="M 51.796875 129.355469 L 69.566406 129.355469 L 69.566406 147.125 L 51.796875 147.125 Z M 51.796875 129.355469 " clip-rule="nonzero"/></clipPath><clipPath id="1ad6ddbb57"><path d="M 60.683594 129.355469 C 55.777344 129.355469 51.796875 133.332031 51.796875 138.242188 C 51.796875 143.148438 55.777344 147.125 60.683594 147.125 C 65.589844 147.125 69.566406 143.148438 69.566406 138.242188 C 69.566406 133.332031 65.589844 129.355469 60.683594 129.355469 Z M 60.683594 129.355469 " clip-rule="nonzero"/></clipPath><clipPath id="e3b9edee81"><path d="M 124.855469 159.355469 L 137.078125 159.355469 L 137.078125 171.578125 L 124.855469 171.578125 Z M 124.855469 159.355469 " clip-rule="nonzero"/></clipPath><clipPath id="6c2ac003b5"><path d="M 130.964844 159.355469 C 127.589844 159.355469 124.855469 162.09375 124.855469 165.46875 C 124.855469 168.84375 127.589844 171.578125 130.964844 171.578125 C 134.339844 171.578125 137.078125 168.84375 137.078125 165.46875 C 137.078125 162.09375 134.339844 159.355469 130.964844 159.355469 Z M 130.964844 159.355469 " clip-rule="nonzero"/></clipPath><clipPath id="bb74c6c8be"><path d="M 209.742188 178.839844 L 218.183594 178.839844 L 218.183594 187.285156 L 209.742188 187.285156 Z M 209.742188 178.839844 " clip-rule="nonzero"/></clipPath><clipPath id="d9ae712f5b"><path d="M 213.964844 178.839844 C 211.632812 178.839844 209.742188 180.730469 209.742188 183.0625 C 209.742188 185.394531 211.632812 187.285156 213.964844 187.285156 C 216.296875 187.285156 218.183594 185.394531 218.183594 183.0625 C 218.183594 180.730469 216.296875 178.839844 213.964844 178.839844 Z M 213.964844 178.839844 " clip-rule="nonzero"/></clipPath><clipPath id="cdce3b09c9"><path d="M 217.3125 110.058594 L 242.734375 110.058594 L 242.734375 135.480469 L 217.3125 135.480469 Z M 217.3125 110.058594 " clip-rule="nonzero"/></clipPath><clipPath id="43ab6e9d09"><path d="M 230.023438 110.058594 C 223.003906 110.058594 217.3125 115.75 217.3125 122.769531 C 217.3125 129.789062 223.003906 135.480469 230.023438 135.480469 C 237.042969 135.480469 242.734375 129.789062 242.734375 122.769531 C 242.734375 115.75 237.042969 110.058594 230.023438 110.058594 Z M 230.023438 110.058594 " clip-rule="nonzero"/></clipPath><clipPath id="be5290ea54"><path d="M 14.246094 150.792969 L 37.796875 150.792969 L 37.796875 174.34375 L 14.246094 174.34375 Z M 14.246094 150.792969 " clip-rule="nonzero"/></clipPath><clipPath id="399331334c"><path d="M 26.019531 150.792969 C 19.519531 150.792969 14.246094 156.066406 14.246094 162.566406 C 14.246094 169.070312 19.519531 174.34375 26.019531 174.34375 C 32.523438 174.34375 37.796875 169.070312 37.796875 162.566406 C 37.796875 156.066406 32.523438 150.792969 26.019531 150.792969 Z M 26.019531 150.792969 " clip-rule="nonzero"/></clipPath></defs><path fill="#ef6d53" d="M 121.402344 152.074219 C 121.863281 152.046875 121.941406 152.328125 122.429688 152.28125 C 121.691406 152.941406 121.042969 153.667969 119.859375 153.957031 C 119.960938 152.992188 121.21875 152.972656 121.402344 152.074219 Z M 121.402344 152.074219 " fill-opacity="1" fill-rule="evenodd"/><path fill="#ef6d53" d="M 207.667969 159.824219 C 205.496094 160.285156 202.871094 160.382812 200.738281 160.871094 C 201.257812 159.433594 203.765625 159.835938 205.359375 159.824219 C 206.214844 159.820312 206.917969 159.441406 207.667969 159.824219 Z M 207.667969 159.824219 " fill-opacity="1" fill-rule="evenodd"/><path fill="#ef6d53" d="M 207.921875 160.246094 C 208.503906 159.851562 210.660156 159.957031 211.261719 160.246094 C 210.382812 160.878906 209.058594 160.09375 207.921875 160.246094 Z M 207.921875 160.246094 " fill-opacity="1" fill-rule="evenodd"/><path fill="#ef6d53" d="M 199.195312 160.453125 C 199.511719 160.546875 199.722656 160.722656 199.707031 161.082031 C 194.671875 162.769531 189.851562 164.632812 188.925781 169.675781 C 188.695312 169.582031 188.464844 169.492188 188.410156 169.257812 C 184.804688 173.019531 183.179688 178.398438 180.964844 183.296875 C 181.058594 183.574219 181.417969 183.625 181.480469 183.925781 C 187.363281 182.652344 196.148438 183.414062 200.476562 180.363281 C 201.277344 181.164062 198.796875 181.078125 198.9375 182.039062 C 198.820312 182.695312 199.160156 182.976562 199.964844 182.878906 C 199.34375 183.472656 198.496094 182.667969 197.652344 182.667969 C 195.640625 182.667969 192.726562 183.957031 189.695312 184.136719 C 188.484375 184.207031 187.207031 184.035156 186.101562 184.136719 C 183.496094 184.375 181.644531 185.667969 179.9375 186.019531 C 179.789062 185.269531 180.238281 185.007812 180.453125 184.554688 C 180.5625 184.214844 179.496094 183.851562 179.425781 184.34375 C 179.601562 182.984375 179.921875 181.628906 180.453125 180.363281 C 181.457031 177.964844 183.21875 175.972656 184.558594 173.449219 C 184.726562 173.132812 185.175781 172.953125 185.332031 172.609375 C 185.460938 172.324219 185.179688 171.839844 185.332031 171.5625 C 186.445312 169.5 188.578125 167.753906 189.695312 165.695312 C 192.613281 163.742188 195.058594 161.410156 199.195312 160.453125 Z M 199.195312 160.453125 " fill-opacity="1" fill-rule="evenodd"/><path fill="#ef6d53" d="M 67.230469 167.789062 C 68.050781 168.027344 68.433594 168.625 68.511719 169.464844 C 67.863281 169.089844 67.546875 168.4375 67.230469 167.789062 Z M 67.230469 167.789062 " fill-opacity="1" fill-rule="evenodd"/><path fill="#ef6d53" d="M 191.238281 215.78125 C 192.792969 216.539062 193.816406 217.726562 195.859375 218.085938 C 193.910156 218.601562 191.238281 216.859375 191.238281 215.78125 Z M 191.238281 215.78125 " fill-opacity="1" fill-rule="evenodd"/><g clip-path="url(#816c141eb2)"><path fill="#ef6d53" d="M 127.308594 172.609375 C 127.371094 172.367188 128.667969 172.878906 128.847656 173.238281 C 128.847656 174.355469 127.527344 174.394531 127.050781 175.125 C 125.042969 177.820312 124.894531 181.789062 126.792969 185.394531 C 127.582031 186.882812 129.046875 188.410156 130.132812 190.210938 C 132.164062 193.589844 133.878906 197.449219 136.550781 200.273438 C 137.527344 200.441406 136.878906 199.28125 137.066406 198.804688 C 137.890625 197.59375 138.589844 196.277344 138.863281 194.613281 C 139.976562 194.265625 140.265625 193.246094 140.660156 192.308594 C 142.730469 190.996094 144.207031 189.195312 146.050781 187.699219 C 146.03125 187.367188 146.175781 186.898438 145.792969 186.859375 C 146.355469 186.617188 146.726562 186.226562 147.335938 186.019531 C 146.976562 184.890625 148.246094 184.117188 148.359375 183.507812 C 148.652344 181.945312 147.964844 180.054688 147.078125 178.6875 C 144.554688 174.789062 139.875 170.667969 138.347656 166.742188 C 138.226562 164.199219 138.855469 162.453125 139.375 159.617188 C 140.789062 158.046875 142.261719 156.523438 144.511719 155.632812 C 143.339844 158.347656 140.96875 159.867188 141.171875 162.96875 C 141.316406 165.148438 142.691406 166.78125 143.226562 168.835938 C 145.933594 172.285156 149.480469 175.046875 152.210938 178.476562 C 153.175781 177.140625 152.855469 175.53125 152.984375 173.867188 C 153.421875 168.109375 153.6875 160.894531 151.1875 156.472656 C 151.691406 154.796875 149.804688 154.453125 150.414062 153.328125 C 147.308594 149.390625 145.488281 145.03125 146.050781 140.335938 C 146.457031 136.945312 148.011719 134.597656 150.15625 132.371094 C 151.300781 131.1875 152.671875 129.820312 153.238281 127.972656 C 155.171875 129.019531 152.734375 130.1875 152.726562 131.535156 C 149.292969 133.132812 149.753906 137.910156 148.617188 141.382812 C 149.367188 142.316406 148.917969 143.394531 149.132812 144.316406 C 150.242188 149.171875 154.496094 152.207031 155.550781 157.101562 C 156.558594 156.945312 156.773438 156.144531 156.832031 155.214844 C 158.050781 154.324219 158.976562 153.191406 159.65625 151.863281 C 161.457031 150.398438 163.65625 149.257812 165.050781 147.460938 C 167.339844 146.847656 170.390625 144.773438 173.523438 144.316406 C 176.105469 143.941406 179.59375 144.0625 180.195312 146.621094 C 178.777344 147.09375 176.621094 146.511719 175.578125 145.992188 C 171.925781 146.878906 167.960938 148.140625 165.5625 150.605469 C 167.628906 150.886719 170.328125 151.382812 172.496094 150.8125 C 172.007812 152.164062 169.996094 152.992188 168.902344 153.117188 C 168.023438 153.222656 167.257812 152.605469 165.820312 152.699219 C 161.503906 152.984375 158.367188 158.054688 157.863281 161.710938 C 157.648438 163.253906 157.964844 165.003906 158.117188 166.53125 C 158.554688 170.863281 157.707031 177.558594 156.066406 181.828125 C 155.835938 182.425781 155.261719 182.949219 155.039062 183.507812 C 154.046875 185.980469 153.054688 188.425781 151.445312 190.632812 C 148.691406 194.398438 143.785156 197.121094 144 201.738281 C 145.035156 201.539062 145.371094 200.765625 145.796875 200.0625 C 148.550781 199.378906 149.578125 197.28125 152.984375 197.128906 C 158.527344 194.382812 163.292969 194.636719 167.363281 192.726562 C 168.96875 191.972656 169.867188 190.546875 171.46875 189.582031 C 172.445312 189 173.46875 188.933594 174.292969 188.117188 C 178.054688 184.398438 178.996094 179.71875 181.996094 174.703125 C 182.71875 173.5 183.835938 172.355469 184.5625 171.140625 C 186.035156 168.683594 186.851562 166.945312 188.925781 165.066406 C 192.097656 162.199219 196.132812 160.183594 202.019531 158.988281 C 203.316406 158.726562 206.273438 158.527344 208.695312 158.777344 C 210.023438 158.914062 210.648438 159.5 212.292969 159.617188 C 214.097656 159.742188 215.292969 159.25 216.398438 159.195312 C 216.710938 160.21875 215.820312 160.261719 215.628906 160.875 C 209.5 161.480469 203.441406 160.746094 198.425781 162.339844 C 196.746094 162.875 194.867188 164.003906 193.550781 164.855469 C 192.433594 165.574219 191.234375 166.53125 190.722656 167.578125 C 194.09375 166.347656 197.910156 169.425781 200.992188 168.417969 C 200.914062 169.472656 199.941406 169.792969 199.195312 170.304688 C 195.429688 169.671875 190.90625 168.824219 188.414062 170.933594 C 187.277344 172.410156 185.949219 174.414062 185.078125 176.382812 C 184.191406 178.378906 183.484375 180.390625 182.765625 182.667969 C 187.789062 182.265625 194.320312 182.320312 198.683594 180.363281 C 199.539062 179.980469 200.359375 179.296875 201.25 178.6875 C 202.097656 178.109375 203.109375 177.722656 203.820312 177.21875 C 204.78125 176.539062 205.679688 175.171875 206.898438 174.496094 C 207.851562 173.96875 209.722656 172.949219 211.007812 174.496094 C 210.734375 175.25 209.054688 174.859375 208.695312 175.542969 C 206.378906 177.980469 204.070312 180.429688 200.226562 181.621094 C 201.835938 183.765625 206.851562 183.460938 208.441406 182.039062 C 208.527344 183.648438 206.875 183.835938 206.128906 184.765625 C 203.445312 185.085938 200.789062 185.015625 199.199219 183.925781 C 197.601562 184.125 194.902344 183.664062 193.804688 184.765625 C 191.414062 184.875 188.226562 184.984375 186.101562 185.394531 C 178.867188 186.785156 176.886719 193.28125 171.214844 196.289062 C 174.046875 197.511719 177.28125 197.808594 179.941406 199.015625 C 181.273438 199.617188 182.042969 201 183.792969 200.902344 C 185.410156 202.652344 187.40625 203.476562 190.210938 204.464844 C 191.71875 204.992188 193.789062 205.808594 196.117188 205.929688 C 198.453125 206.050781 201.527344 205.777344 204.074219 205.300781 C 204.613281 205.199219 205.089844 204.8125 205.617188 204.671875 C 206.644531 204.394531 207.785156 204.527344 208.699219 204.253906 C 210.753906 203.632812 212.25 202.214844 214.089844 201.527344 C 214.851562 201.242188 215.882812 201.148438 216.65625 200.898438 C 218.503906 200.304688 221.597656 199.371094 224.101562 199.011719 C 225.335938 198.835938 226.441406 198.742188 227.695312 198.804688 C 230.617188 198.949219 234.125 200.398438 233.089844 202.785156 C 232.222656 202.515625 232.242188 201.519531 231.292969 201.320312 C 226.859375 200.554688 221.175781 202.179688 216.914062 204.042969 C 216.488281 204.230469 215.578125 204.382812 215.117188 204.671875 C 214.589844 205 213.886719 206.164062 213.832031 205.71875 C 213.882812 206.160156 218.234375 207.6875 218.96875 208.234375 C 220.015625 209.015625 220.355469 210.222656 221.023438 211.378906 C 221.527344 212.253906 222.582031 212.363281 222.820312 213.472656 C 219.503906 214.542969 219.285156 211.765625 218.199219 210.75 C 217.890625 210.460938 216.988281 210.078125 216.402344 209.703125 C 214.921875 208.757812 212.703125 208.042969 209.726562 208.445312 C 208.53125 208.605469 207.5625 209.234375 206.386719 209.492188 C 200.828125 210.71875 194.097656 210.683594 189.1875 209.074219 C 188.671875 213.132812 192.382812 215.539062 195.605469 217.246094 C 197.03125 217.433594 197.507812 216.84375 198.6875 216.828125 C 198.664062 219.105469 195.589844 219.425781 193.039062 218.714844 C 192.476562 218.558594 192.636719 218.46875 192.011719 218.085938 C 190.6875 217.277344 189.945312 216.808594 188.671875 215.570312 C 188.351562 215.257812 188.007812 214.921875 187.644531 214.523438 C 187.386719 214.238281 186.765625 213.890625 186.621094 213.683594 C 185.5625 212.210938 185.429688 210.273438 184.308594 208.65625 C 184.078125 208.324219 183.492188 208.085938 183.023438 207.609375 C 181.753906 206.304688 181.476562 205.96875 179.429688 204.671875 C 177.960938 203.742188 176.859375 202.609375 175.066406 202.160156 C 173.382812 201.738281 170.515625 201.640625 168.390625 201.53125 C 161.859375 201.195312 157.710938 202.5 152.984375 204.464844 C 152.003906 205.757812 150.027344 206.242188 148.878906 207.398438 C 148.1875 208.089844 148.191406 209.085938 147.082031 209.492188 C 142.734375 219.519531 140.574219 231.824219 139.378906 243.863281 C 138.933594 248.355469 138.945312 252.757812 139.378906 256.855469 C 139.90625 261.804688 141.972656 268.699219 145.027344 273.621094 C 145.589844 274.527344 146.039062 275.492188 146.566406 276.34375 C 149.175781 280.542969 151.496094 284.097656 155.296875 287.242188 C 157.199219 287.292969 158.34375 287.96875 159.40625 288.707031 C 161.09375 288.535156 161.976562 289.335938 163.515625 289.546875 C 168.199219 290.191406 173.523438 287.980469 177.890625 287.660156 C 180.644531 287.457031 185.222656 287.734375 185.082031 290.175781 C 183.484375 290.023438 181.570312 289.566406 179.6875 289.753906 C 175.527344 290.171875 171.40625 292.683594 167.621094 292.480469 C 168.523438 293.75 170.5625 293.730469 171.988281 294.367188 C 173.355469 294.976562 174.414062 296.140625 176.09375 296.25 C 177.574219 297.90625 180.085938 298.722656 180.972656 300.863281 C 180.46875 301.851562 180.996094 303.675781 180.203125 304.425781 C 178.632812 303.472656 178.34375 301.472656 176.863281 300.441406 C 172.324219 298.488281 168.394531 296.042969 161.972656 295.625 C 157.53125 293.222656 151.023438 291.714844 146.824219 288.707031 C 145.570312 287.808594 144.921875 286.742188 143.488281 285.984375 C 143.769531 288.878906 140.753906 292.820312 141.691406 295.625 C 142.160156 297.027344 143.960938 297.320312 145.285156 298.347656 C 148.882812 298.546875 151.003906 297.191406 154.527344 297.929688 C 155.175781 298.726562 156.070312 299.324219 156.070312 300.652344 C 155.140625 301.304688 155.335938 299.699219 154.273438 299.816406 C 150.386719 299.132812 147.144531 301.390625 142.976562 300.445312 C 144.667969 302.132812 148.113281 305.246094 148.625 308.199219 C 148.804688 309.230469 149.019531 311.46875 147.339844 311.96875 C 146.078125 311.835938 147.476562 310.839844 147.082031 310.082031 C 144.703125 304.347656 136.726562 301.429688 135.785156 294.574219 C 135.359375 291.46875 136.363281 289 136.300781 285.144531 C 134.363281 286.273438 134.300781 287.445312 132.707031 288.5 C 131.863281 289.054688 130.320312 289.59375 128.855469 290.175781 C 126.230469 291.21875 123.585938 292.171875 120.125 293.109375 C 117.5 293.820312 115.410156 294.042969 114.476562 295.625 C 115.105469 297.105469 113.796875 298.355469 113.449219 299.398438 C 113.261719 299.960938 113.601562 300.71875 113.449219 301.285156 C 112.96875 303.085938 111 304.359375 109.34375 303.167969 C 109.402344 302.449219 110.714844 302.75 110.882812 302.121094 C 110.902344 299.09375 110.992188 297.289062 110.882812 294.367188 C 105.929688 294.078125 103.457031 298.097656 100.101562 300.65625 C 99.171875 301.363281 96.472656 303.179688 95.222656 303.589844 C 93.351562 304.199219 88.972656 304.753906 87.003906 303.167969 C 86.8125 302.109375 87.984375 303.621094 88.03125 302.960938 C 94.03125 302.558594 96.683594 298.222656 100.613281 295.207031 C 103.523438 292.972656 108.152344 290.949219 112.9375 289.96875 C 114.515625 289.644531 116.210938 289.675781 117.8125 289.339844 C 120.15625 288.84375 122.316406 287.953125 124.746094 287.242188 C 126.832031 286.082031 127.976562 284.152344 129.625 282.632812 C 130.039062 280.117188 130.15625 277.824219 129.625 275.296875 C 129.121094 272.914062 127.746094 270.585938 127.3125 268.382812 C 126.894531 266.25 126.765625 263.941406 126.542969 261.675781 C 125.53125 251.492188 127.84375 240.542969 128.59375 231.707031 C 128.71875 230.257812 128.5 228.757812 128.851562 227.515625 C 128.996094 227.011719 129.511719 226.554688 129.621094 226.050781 C 130.652344 221.414062 130.863281 217.183594 131.675781 213.054688 C 131.261719 208.707031 129.269531 205.136719 126.285156 201.949219 C 125.417969 201.023438 124.65625 199.875 123.972656 199.433594 C 120.019531 196.875 111.714844 197.167969 106.003906 197.757812 C 101.847656 198.1875 98.039062 199.511719 94.191406 201.113281 C 88.96875 203.285156 86.011719 204.089844 83.152344 207.398438 C 80.355469 210.632812 79.707031 215.210938 76.21875 218.085938 C 75.234375 218.898438 71.597656 220.832031 70.316406 221.019531 C 69.15625 221.191406 67.222656 221.070312 66.207031 220.183594 C 66.640625 219.378906 67.980469 220.101562 69.289062 219.761719 C 70.402344 219.472656 73.550781 217.453125 74.425781 216.410156 C 76.527344 213.902344 77.152344 210.125 79.046875 207.609375 C 74.492188 208.367188 69.328125 209.582031 64.15625 208.445312 C 59.511719 207.429688 57.726562 204.597656 54.65625 202.371094 C 53.605469 201.609375 52.304688 201.480469 51.574219 200.484375 C 52.578125 199.402344 53.898438 200.394531 54.65625 200.691406 C 57.054688 201.644531 59.554688 203.71875 61.585938 205.09375 C 63.863281 205.308594 66.046875 206.308594 68.519531 206.351562 C 71.957031 206.414062 75.191406 204.9375 77.761719 204.675781 C 83.304688 201.792969 89.128906 199.144531 94.964844 196.5 C 94.242188 195.371094 92.371094 195.785156 91.367188 195.453125 C 91.164062 195.386719 90.925781 194.960938 90.597656 194.824219 C 89.90625 194.535156 88.632812 194.375 88.289062 193.566406 C 80.804688 191.992188 76.4375 187.871094 72.625 183.300781 C 72.980469 181.75 71.664062 181.066406 71.085938 179.945312 C 69.75 177.359375 69.171875 173.414062 68.003906 170.933594 C 67.074219 168.957031 66.015625 166.9375 63.382812 166.535156 C 65.234375 164.246094 68.738281 167.167969 69.542969 168.421875 C 69.886719 168.949219 69.96875 169.675781 70.316406 170.304688 C 70.972656 171.507812 71.878906 172.5625 72.625 174.289062 C 73.625 176.597656 73.980469 179.84375 76.21875 181.414062 C 76.324219 179.441406 77.46875 178.042969 78.273438 176.59375 C 78.5625 176.070312 78.496094 175.351562 78.789062 174.917969 C 79.46875 173.90625 80.746094 173.144531 81.097656 171.984375 C 81.441406 170.847656 80.644531 169.855469 81.613281 168.839844 C 84.183594 170.566406 82.589844 172.484375 81.867188 174.289062 C 81.554688 175.074219 81.636719 175.9375 81.355469 176.59375 C 80.957031 177.523438 80.023438 178.234375 79.816406 179.109375 C 79.65625 179.777344 79.757812 181.148438 79.816406 182.042969 C 79.976562 184.539062 81.464844 186.679688 83.410156 187.910156 C 84.113281 188.355469 85.417969 188.5625 86.746094 189.167969 C 87.703125 189.605469 88.519531 190.277344 89.570312 190.632812 C 92.117188 191.5 95.488281 192.46875 98.300781 192.730469 C 107.175781 193.550781 117.128906 191.332031 124.488281 193.359375 C 123.457031 190.46875 121.4375 188.292969 119.351562 186.023438 C 117.628906 184.148438 116.535156 182.941406 113.960938 181.625 C 113.519531 181.398438 112.875 181.25 112.421875 180.996094 C 111.992188 180.753906 111.765625 180.136719 111.394531 179.945312 C 110.566406 179.523438 109.664062 179.308594 108.824219 178.898438 C 108.078125 178.53125 107.347656 178.144531 106.515625 177.640625 C 105.15625 176.816406 103.390625 176.078125 102.152344 175.125 C 101.191406 174.390625 100.660156 173.285156 99.839844 172.613281 C 99.160156 172.050781 98.199219 171.714844 97.53125 171.144531 C 95.953125 169.804688 95.207031 168.039062 93.421875 166.535156 C 92.949219 163.722656 91.277344 161.4375 90.597656 158.988281 C 90.179688 157.484375 90.410156 155.972656 89.570312 154.589844 C 87.988281 151.988281 83.210938 150.367188 82.125 146.835938 C 81.675781 145.375 81.769531 143.742188 82.125 141.597656 C 83.648438 142.820312 83.199219 144.570312 83.921875 145.996094 C 84.484375 147.105469 85.589844 147.941406 86.746094 148.722656 C 87.957031 149.539062 89.484375 151.039062 91.367188 151.238281 C 92.351562 148.164062 94.800781 144.417969 95.21875 140.546875 C 95.425781 138.652344 94.902344 136.210938 94.449219 134.679688 C 95.847656 135.808594 96.726562 138.265625 97.015625 140.128906 C 97.859375 145.554688 93.4375 150.695312 94.191406 156.265625 C 94.425781 157.984375 95.199219 160.320312 95.734375 162.132812 C 96.445312 164.5625 99.144531 166.570312 100.867188 168.421875 C 101.800781 167.601562 101.347656 166.851562 101.636719 166.117188 C 102.390625 164.199219 103.910156 162.800781 105.488281 161.296875 C 106.980469 159.867188 108.386719 158.15625 110.109375 157.105469 C 112.816406 155.449219 116.320312 154.308594 119.351562 152.703125 C 120.320312 152.191406 121.574219 151.855469 122.175781 151.234375 C 123.3125 150.066406 122.925781 148.386719 123.460938 147.042969 C 124.695312 147.800781 125.40625 150.246094 124.488281 151.863281 C 123.460938 153.679688 120.464844 154.675781 118.070312 155.847656 C 116.863281 156.433594 115.519531 157.328125 114.21875 158.152344 C 111.648438 159.777344 109.855469 161.617188 107.542969 163.179688 C 106.039062 165.933594 104.242188 169.625 107.027344 172.402344 C 107.648438 173.019531 108.671875 173.269531 109.851562 173.867188 C 111.703125 174.8125 113.292969 175.667969 115.5 176.800781 C 117.824219 177.996094 119.449219 179.019531 121.40625 180.574219 C 122.183594 179.683594 121.917969 178.40625 122.433594 177.429688 C 122.722656 176.882812 124.070312 175.105469 124.746094 174.496094 C 125.523438 173.792969 127.511719 173.273438 127.308594 172.609375 Z M 154.265625 155.632812 C 153.082031 154.851562 152.820312 153.320312 151.699219 152.488281 C 151.710938 152.222656 152.027344 152.199219 151.953125 151.863281 C 150.433594 149.820312 148.265625 146.683594 147.847656 143.269531 C 147.476562 140.253906 148.652344 136.898438 148.871094 135.097656 C 148.261719 135.574219 148.273438 136.5625 147.589844 136.984375 C 147.855469 137.851562 147.5625 138.710938 147.074219 139.496094 C 147.753906 141.929688 147.324219 144.6875 148.101562 147.042969 C 149.230469 150.445312 151.839844 152.886719 152.980469 155.84375 C 153.480469 157.132812 153.710938 158.832031 154.007812 160.453125 C 154.324219 162.1875 154.738281 164.121094 154.777344 165.902344 C 154.835938 168.355469 154.996094 170.964844 154.523438 174.285156 C 154.1875 176.636719 153.027344 182.660156 150.15625 180.78125 C 150.613281 180.453125 151.527344 180.5 151.183594 179.523438 C 147.539062 173.628906 140.347656 170.625 139.886719 162.128906 C 138.863281 167.734375 142.808594 170.957031 145.28125 173.867188 C 147.210938 176.136719 150.296875 179.160156 150.15625 182.667969 C 149.882812 189.609375 140.003906 193.414062 138.605469 199.222656 C 138.265625 200.625 139.3125 202.417969 137.320312 202.785156 C 135.65625 201.980469 134.492188 200.761719 133.984375 199.011719 C 132.933594 198.261719 131.921875 197.058594 131.160156 195.871094 C 130.75 195.230469 130.785156 194.46875 130.390625 193.773438 C 130.054688 193.1875 129.40625 192.675781 129.105469 192.097656 C 128.902344 191.703125 129.050781 191.273438 128.847656 190.839844 C 128.140625 189.3125 126.765625 188.277344 126.023438 187.277344 C 124.027344 184.585938 124.0625 180.558594 124.484375 176.800781 C 124.121094 177.804688 123.679688 178.59375 123.457031 179.523438 C 123.117188 180.949219 124.050781 182.652344 122.429688 183.296875 C 121.003906 182.433594 119.929688 181.285156 118.835938 180.152344 C 117.027344 179.3125 115.675781 178.445312 113.957031 177.636719 C 113.5625 177.453125 113.347656 177.023438 112.929688 176.800781 C 109.160156 174.78125 104.527344 173.761719 104.203125 169.675781 C 103.597656 162.152344 112.6875 158.136719 118.320312 154.585938 C 115.414062 155.652344 112.011719 156.867188 109.59375 158.777344 C 107.554688 160.382812 104.316406 163.539062 103.429688 165.691406 C 102.859375 167.078125 103.558594 169.152344 101.632812 170.09375 C 100.21875 169.15625 98.304688 168.167969 97.011719 166.738281 C 96.648438 166.335938 96.613281 165.632812 96.242188 165.0625 C 95.839844 164.441406 95.175781 164.132812 94.957031 163.597656 C 94.613281 162.75 94.683594 161.003906 94.1875 159.40625 C 94.011719 158.839844 93.574219 158.46875 93.417969 157.9375 C 92.761719 155.726562 93.308594 153.191406 93.417969 152.070312 C 93.496094 151.257812 93.265625 150.511719 93.417969 149.765625 C 93.671875 148.507812 94.796875 147.324219 95.214844 146.203125 C 95.355469 145.820312 95.21875 145.320312 95.46875 144.945312 C 94.546875 145.527344 94.34375 146.648438 93.929688 147.671875 C 93.164062 149.558594 92.867188 151.757812 91.621094 153.328125 C 90.886719 153.019531 91.160156 151.886719 89.566406 152.28125 C 89.160156 150.867188 87.421875 150.539062 85.972656 149.976562 C 87.378906 151.785156 90.027344 152.25 91.105469 154.585938 C 92 156.523438 91.929688 159.019531 92.644531 161.292969 C 92.980469 162.355469 93.753906 163.265625 94.1875 164.226562 C 94.328125 164.535156 94.058594 164.960938 94.1875 165.273438 C 94.523438 166.09375 95.578125 166.46875 95.726562 167.371094 C 95.84375 167.53125 96.242188 167.996094 96.242188 167.996094 C 97.476562 169.503906 98.71875 171.003906 100.863281 171.769531 C 102.078125 173.445312 104.246094 174.476562 105.996094 175.542969 C 107.574219 176.5 108.882812 176.984375 110.617188 177.847656 C 112.03125 178.546875 113.414062 179.417969 114.46875 180.152344 C 115.574219 180.921875 116.3125 181.367188 117.292969 182.039062 C 118.671875 182.980469 118.808594 183.714844 119.863281 184.761719 C 120.5625 185.460938 121.578125 185.894531 122.171875 186.648438 C 122.921875 187.59375 123.429688 189.132812 124.226562 190.210938 C 124.757812 190.933594 125.535156 191.265625 125.765625 191.886719 C 126.078125 192.71875 126.441406 194.488281 125.253906 195.03125 C 122.972656 194.289062 118.667969 193.53125 115.496094 193.5625 C 114.171875 193.578125 112.886719 193.734375 111.902344 193.773438 C 102.542969 194.828125 95.957031 194.515625 88.796875 191.679688 C 88.59375 191.144531 87.898438 192.269531 87.511719 191.679688 C 87.296875 191.085938 86.632812 190.859375 86.230469 190.421875 C 82.667969 189.175781 79.105469 186.6875 78.785156 182.878906 C 78.671875 181.570312 78.597656 179.667969 78.785156 178.476562 C 79.023438 176.933594 80.34375 175.851562 80.324219 174.496094 C 78.835938 176.710938 77.359375 179.871094 77.5 182.667969 C 77.535156 183.339844 78.722656 184.011719 77.5 184.554688 C 75.671875 183.867188 75.15625 181.601562 74.160156 180.570312 C 73.488281 179.875 72.90625 178.761719 72.621094 177.847656 C 72.054688 176.03125 71.6875 174.136719 70.824219 172.609375 C 70.539062 172.105469 69.863281 171.609375 69.539062 171.140625 C 69.246094 170.714844 69.402344 169.796875 68.511719 169.882812 C 70.660156 174.136719 71.738281 179.144531 74.160156 182.878906 C 75.03125 184.214844 76.4375 185.183594 76.984375 186.648438 C 80.933594 188.804688 83.847656 191.804688 89.308594 192.726562 C 89.441406 193.246094 89.933594 193.472656 90.335938 193.773438 C 91.6875 193.859375 92.785156 194.152344 93.417969 194.820312 C 95.085938 194.855469 96.449219 195.140625 96.753906 196.289062 C 95.003906 198.425781 91.199219 199.386719 87.769531 200.898438 C 82.371094 203.277344 77.890625 206.734375 70.566406 207.1875 C 66.542969 207.4375 63.589844 206.644531 60.8125 205.929688 C 59.980469 205.066406 58.503906 203.625 57.472656 203.625 C 60.019531 206.394531 64.769531 208.144531 70.308594 208.023438 C 73.96875 207.945312 77.152344 206.289062 80.066406 206.347656 C 80.246094 208.378906 78.714844 210.386719 77.753906 212.214844 C 76.722656 214.1875 76 216.210938 74.417969 217.664062 C 79.304688 214.316406 80.003906 207.554688 84.429688 203.832031 C 87.992188 202.226562 92.523438 200.261719 96.496094 198.804688 C 98.285156 198.148438 100.179688 197.351562 101.890625 196.917969 C 104.429688 196.269531 107.152344 196.390625 110.105469 196.289062 C 111.460938 196.242188 112.890625 195.902344 114.210938 195.867188 C 117.335938 195.792969 120.09375 196.757812 123.199219 197.125 C 124.671875 198.808594 126.992188 199.839844 128.589844 201.527344 C 129.53125 202.523438 130.453125 203.933594 131.15625 205.296875 C 131.863281 206.671875 132.90625 208.21875 133.210938 209.492188 C 134.472656 214.734375 132.300781 219.472656 131.414062 224.578125 C 130.390625 230.460938 129.46875 236.027344 129.101562 242.183594 C 128.8125 247.054688 127.964844 250.621094 128.078125 254.964844 C 128.113281 256.375 128.480469 258.179688 128.589844 259.15625 C 128.820312 261.261719 128.410156 263.425781 128.589844 265.445312 C 128.816406 267.933594 129.585938 270.359375 130.386719 272.777344 C 131.105469 274.949219 132.65625 279.320312 131.929688 281.371094 C 131.089844 283.726562 128.804688 286.632812 127.308594 287.449219 C 126.164062 288.070312 124.527344 288.464844 123.199219 288.914062 C 120.710938 289.761719 118.066406 290.398438 116.011719 290.800781 C 113.964844 291.203125 111.585938 291.167969 109.335938 291.851562 C 107.609375 292.375 105.632812 293.171875 104.199219 293.945312 C 102.6875 294.761719 101.8125 296.015625 100.351562 297.089844 C 99.777344 297.507812 98.839844 297.683594 98.296875 298.136719 C 97.644531 298.675781 97.339844 299.496094 96.753906 300.023438 C 95.457031 301.195312 93.789062 301.835938 91.878906 303.167969 C 94.871094 303.242188 95.335938 302.039062 97.011719 300.863281 C 98.019531 300.15625 99.175781 299.792969 99.835938 299.1875 C 100.238281 298.816406 100.433594 298.28125 100.863281 297.925781 C 103.789062 295.519531 107.71875 292.59375 112.671875 293.316406 C 111.449219 295.367188 111.742188 298.160156 112.417969 300.441406 C 112.816406 297.691406 112.480469 295.050781 114.726562 293.527344 C 116.480469 292.335938 119.515625 292.308594 121.914062 291.640625 C 124.140625 291.019531 126.699219 289.917969 128.335938 289.125 C 130.804688 287.925781 132.734375 286.890625 134.496094 285.5625 C 134.902344 284.5 135.175781 283.324219 136.550781 283.050781 C 138.28125 283.507812 137.515625 285.140625 137.574219 286.191406 C 137.742188 289 136.703125 291.925781 137.0625 294.367188 C 138.015625 300.859375 143.625 302.992188 146.820312 307.359375 C 147.015625 304.824219 144.53125 304.476562 143.996094 302.539062 C 142.371094 302.085938 140.828125 300.550781 141.425781 298.976562 C 142.472656 299.027344 143.183594 299.667969 144.25 299.8125 C 146.371094 300.105469 147.773438 299.445312 149.898438 299.183594 C 150.945312 299.058594 152.003906 299.503906 152.722656 298.765625 C 150.789062 298.058594 148.554688 299.480469 146.304688 299.394531 C 143.484375 299.285156 140.445312 297.59375 140.144531 295.414062 C 140.015625 294.496094 140.464844 293.164062 140.65625 292.269531 C 141.113281 290.113281 141.726562 287.902344 141.941406 285.355469 C 141.535156 284.910156 140.925781 283.136719 141.941406 282.839844 C 143.410156 282.929688 144.84375 284.777344 145.792969 285.980469 C 150.253906 289.078125 154.609375 292.296875 160.9375 293.316406 C 162.078125 294.398438 164.421875 294.941406 166.332031 294.785156 C 167.464844 295.328125 168.4375 296 170.4375 295.832031 C 172.355469 296.78125 173.949219 297.996094 176.34375 298.554688 C 176.644531 298.933594 177.253906 299.546875 177.882812 300.023438 C 178.289062 300.332031 179.351562 301.410156 179.425781 300.652344 C 179.308594 299.570312 177.914062 298.9375 177.113281 298.347656 C 176.15625 297.636719 175.203125 296.984375 174.289062 296.25 C 172.140625 296.121094 170.765625 295.355469 169.667969 294.363281 C 167.125 294.277344 165.761719 293.226562 164.535156 292.058594 C 165.585938 291.753906 166.542969 291.554688 167.613281 291.429688 C 173.007812 290.816406 177.105469 289.628906 181.480469 288.707031 C 179.734375 288.527344 178.71875 288.300781 177.371094 288.496094 C 172.367188 289.214844 168.566406 290.878906 163.507812 290.59375 C 162.449219 290.53125 160.660156 290.265625 159.398438 289.964844 C 159.054688 289.878906 158.785156 289.472656 158.371094 289.335938 C 157.796875 289.144531 157.007812 289.300781 156.574219 289.125 C 154.085938 288.109375 152.730469 286.695312 151.183594 285.144531 C 150.617188 284.574219 149.722656 284.121094 149.386719 283.675781 C 148.871094 283 148.699219 282.042969 148.101562 281.164062 C 147.167969 279.78125 146.074219 278.597656 145.277344 277.601562 C 143.695312 275.617188 142.742188 273.683594 142.195312 271.3125 C 140.054688 268.859375 139.3125 265.09375 138.601562 261.464844 C 138.503906 260.96875 138.164062 260.496094 138.089844 259.996094 C 137.007812 252.683594 137.769531 246.761719 138.601562 239.878906 C 139.058594 236.101562 139.488281 231.527344 140.144531 228.5625 C 140.554688 226.699219 140.289062 224.695312 140.65625 222.902344 C 141.371094 219.40625 142.730469 215.542969 143.734375 212.632812 C 144.394531 210.742188 145.222656 209.496094 145.789062 208.023438 C 147.644531 206.882812 148.882812 205.238281 150.667969 204.042969 C 152.605469 203.320312 154.222656 202.332031 155.800781 201.316406 C 160.554688 200.292969 168.191406 199.589844 173.261719 200.898438 C 174.234375 201.199219 173.753906 200.320312 174.546875 200.480469 C 178.496094 202.703125 183.253906 204.269531 185.585938 207.8125 C 186.3125 210.3125 187.824219 213.742188 190.464844 215.359375 C 189.257812 212.988281 186.753906 210.5625 187.125 207.605469 C 190.855469 208.828125 195.015625 209.558594 199.964844 209.28125 C 204.613281 209.019531 208.636719 206.777344 212.285156 207.183594 C 212.78125 207.238281 213.34375 207.859375 214.082031 208.023438 C 214.691406 208.15625 215.328125 207.902344 215.625 208.023438 C 217.324219 208.710938 218.53125 210.339844 219.988281 211.375 C 219.230469 207.875 214.507812 207.605469 211.515625 205.925781 C 216.378906 202.660156 224.015625 200.175781 230.773438 200.269531 C 221.4375 198.339844 214.574219 203.40625 207.921875 205.71875 C 207.886719 206.386719 208.332031 205.933594 207.152344 205.925781 C 202.699219 206.808594 198.066406 207.699219 193.542969 206.976562 C 191.835938 206.699219 190.074219 205.796875 188.410156 205.089844 C 186.648438 204.339844 185.242188 203.476562 183.789062 202.574219 C 180.535156 200.558594 177.046875 199.507812 173.773438 198.171875 C 172.453125 198.429688 171.039062 197.84375 169.667969 197.542969 C 168.644531 197.488281 167.859375 198.074219 167.355469 197.335938 C 166.96875 195.382812 170.171875 195.375 171.464844 194.609375 C 171.660156 194.492188 172.117188 194.046875 172.492188 193.773438 C 174.683594 192.148438 176.007812 190.699219 177.625 188.953125 C 178.328125 188.191406 179.199219 187.554688 179.679688 186.648438 C 178.144531 187.058594 179.460938 185.148438 178.652344 184.972656 C 178.171875 185.835938 177.25 186.339844 176.855469 187.277344 C 176.65625 188.054688 176.253906 188.746094 176.34375 188.324219 C 174.839844 188.914062 174.582031 190.519531 172.234375 190.417969 C 170.742188 192.835938 167.628906 193.925781 164.789062 195.238281 C 154.992188 196.746094 147.132812 199.828125 142.707031 205.71875 C 141.539062 203.375 141.574219 202.402344 141.9375 200.480469 C 142.160156 199.285156 143.054688 197.4375 143.992188 196.289062 C 144.726562 195.386719 146.027344 194.835938 146.816406 193.984375 C 147.210938 193.554688 147.421875 192.796875 147.84375 192.304688 C 149.148438 190.789062 150.789062 189.441406 151.691406 187.90625 C 152.242188 186.972656 152.726562 185.222656 153.234375 184.554688 C 153.75 183.875 154.039062 183.027344 154.261719 182.457031 C 155.238281 179.953125 155.546875 177.402344 156.058594 174.703125 C 157.167969 168.859375 155.3125 162.171875 158.109375 157.519531 C 159.160156 155.777344 161.1875 152.867188 162.988281 152.28125 C 164.992188 151.628906 167.585938 152.523438 168.894531 151.652344 C 167.554688 151.421875 164.941406 151.640625 163.761719 151.441406 C 166.535156 147.851562 171.488281 145.117188 178.394531 145.574219 C 177.03125 144.941406 176.003906 144.847656 174.027344 145.152344 C 170.882812 145.640625 169.570312 146.136719 167.613281 147.25 C 167.265625 147.445312 165.648438 148.28125 165.300781 148.507812 C 162.339844 150.433594 159.464844 153.40625 157.855469 156.050781 C 157.132812 157.066406 156.972656 158.542969 155.285156 158.777344 C 154.644531 157.976562 154.414062 156.835938 154.265625 155.632812 Z M 85.714844 149.765625 C 85.519531 149.148438 84.644531 148 84.175781 148.300781 C 84.992188 148.542969 84.808594 149.601562 85.714844 149.765625 Z M 119.863281 153.957031 C 121.046875 153.664062 121.695312 152.9375 122.429688 152.28125 C 121.945312 152.328125 121.863281 152.042969 121.402344 152.070312 C 121.222656 152.96875 119.964844 152.992188 119.863281 153.957031 Z M 205.355469 159.824219 C 203.765625 159.835938 201.257812 159.433594 200.734375 160.871094 C 202.871094 160.378906 205.492188 160.285156 207.667969 159.824219 C 206.914062 159.441406 206.214844 159.816406 205.355469 159.824219 Z M 211.261719 160.242188 C 210.660156 159.957031 208.503906 159.851562 207.925781 160.242188 C 209.058594 160.09375 210.386719 160.875 211.261719 160.242188 Z M 189.695312 165.691406 C 188.578125 167.753906 186.445312 169.5 185.332031 171.558594 C 185.179688 171.839844 185.460938 172.320312 185.332031 172.609375 C 185.175781 172.953125 184.726562 173.128906 184.5625 173.445312 C 183.222656 175.972656 181.460938 177.964844 180.453125 180.363281 C 179.921875 181.625 179.601562 182.980469 179.425781 184.34375 C 179.496094 183.851562 180.5625 184.214844 180.453125 184.554688 C 180.238281 185.007812 179.789062 185.265625 179.941406 186.019531 C 181.644531 185.664062 183.496094 184.375 186.101562 184.132812 C 187.210938 184.03125 188.488281 184.203125 189.695312 184.132812 C 192.726562 183.957031 195.640625 182.664062 197.65625 182.667969 C 198.496094 182.667969 199.34375 183.472656 199.964844 182.875 C 199.160156 182.972656 198.820312 182.695312 198.9375 182.039062 C 198.800781 181.078125 201.277344 181.164062 200.480469 180.363281 C 196.148438 183.414062 187.363281 182.648438 181.480469 183.925781 C 181.417969 183.625 181.058594 183.570312 180.964844 183.296875 C 183.183594 178.398438 184.804688 173.019531 188.414062 169.253906 C 188.46875 169.488281 188.699219 169.582031 188.925781 169.671875 C 189.851562 164.632812 194.671875 162.769531 199.710938 161.082031 C 199.722656 160.722656 199.511719 160.542969 199.195312 160.453125 C 195.0625 161.410156 192.613281 163.742188 189.695312 165.691406 Z M 68.515625 169.464844 C 68.433594 168.625 68.050781 168.027344 67.230469 167.789062 C 67.550781 168.4375 67.863281 169.089844 68.515625 169.464844 Z M 197.398438 169.046875 C 195.984375 168.457031 191.765625 167.636719 191.238281 168.835938 C 193.019531 168.15625 196.167969 169.277344 197.398438 169.046875 Z M 195.859375 218.085938 C 193.816406 217.726562 192.792969 216.539062 191.238281 215.78125 C 191.238281 216.859375 193.910156 218.601562 195.859375 218.085938 Z M 195.859375 218.085938 " fill-opacity="1" fill-rule="evenodd"/></g><path fill="#ef6d53" d="M 155.289062 158.777344 C 156.976562 158.546875 157.136719 157.070312 157.859375 156.054688 C 159.46875 153.410156 162.34375 150.433594 165.304688 148.511719 C 165.652344 148.28125 167.269531 147.449219 167.613281 147.253906 C 169.570312 146.136719 170.886719 145.644531 174.03125 145.15625 C 176.007812 144.851562 177.035156 144.945312 178.398438 145.574219 C 171.492188 145.121094 166.539062 147.851562 163.761719 151.445312 C 164.945312 151.640625 167.558594 151.421875 168.898438 151.652344 C 167.589844 152.523438 164.996094 151.628906 162.992188 152.28125 C 161.191406 152.867188 159.160156 155.78125 158.113281 157.519531 C 155.316406 162.175781 157.171875 168.863281 156.0625 174.707031 C 155.550781 177.40625 155.242188 179.953125 154.265625 182.460938 C 154.042969 183.027344 153.753906 183.875 153.238281 184.554688 C 152.730469 185.226562 152.246094 186.976562 151.695312 187.910156 C 150.792969 189.445312 149.152344 190.792969 147.847656 192.308594 C 147.425781 192.800781 147.214844 193.558594 146.820312 193.984375 C 146.03125 194.835938 144.730469 195.386719 143.996094 196.289062 C 143.058594 197.441406 142.164062 199.289062 141.941406 200.484375 C 141.578125 202.402344 141.542969 203.378906 142.710938 205.722656 C 147.136719 199.832031 154.996094 196.75 164.792969 195.242188 C 167.628906 193.925781 170.746094 192.839844 172.238281 190.421875 C 174.585938 190.523438 174.84375 188.917969 176.34375 188.328125 C 176.257812 188.746094 176.660156 188.054688 176.859375 187.277344 C 177.25 186.34375 178.175781 185.835938 178.65625 184.972656 C 179.464844 185.152344 178.148438 187.0625 179.683594 186.648438 C 179.203125 187.558594 178.335938 188.195312 177.628906 188.953125 C 176.011719 190.703125 174.6875 192.152344 172.496094 193.773438 C 172.121094 194.050781 171.664062 194.496094 171.46875 194.613281 C 170.175781 195.378906 166.972656 195.386719 167.359375 197.339844 C 167.863281 198.074219 168.648438 197.492188 169.671875 197.546875 C 171.042969 197.847656 172.457031 198.433594 173.777344 198.175781 C 177.050781 199.507812 180.539062 200.558594 183.792969 202.578125 C 185.25 203.480469 186.652344 204.339844 188.414062 205.089844 C 190.078125 205.800781 191.839844 206.703125 193.546875 206.976562 C 198.070312 207.703125 202.703125 206.808594 207.15625 205.929688 C 208.332031 205.9375 207.890625 206.390625 207.925781 205.71875 C 214.578125 203.410156 221.441406 198.34375 230.777344 200.269531 C 224.019531 200.175781 216.378906 202.664062 211.519531 205.929688 C 214.511719 207.609375 219.234375 207.875 219.992188 211.378906 C 218.535156 210.339844 217.328125 208.714844 215.628906 208.023438 C 215.332031 207.90625 214.695312 208.15625 214.085938 208.023438 C 213.347656 207.863281 212.785156 207.242188 212.289062 207.1875 C 208.640625 206.78125 204.617188 209.019531 199.96875 209.28125 C 195.019531 209.5625 190.859375 208.832031 187.128906 207.605469 C 186.757812 210.566406 189.261719 212.992188 190.46875 215.359375 C 187.828125 213.746094 186.316406 210.316406 185.589844 207.816406 C 183.253906 204.273438 178.5 202.707031 174.550781 200.480469 C 173.757812 200.324219 174.238281 201.203125 173.265625 200.902344 C 168.195312 199.59375 160.5625 200.296875 155.804688 201.320312 C 154.226562 202.335938 152.609375 203.320312 150.671875 204.042969 C 148.886719 205.242188 147.648438 206.886719 145.792969 208.027344 C 145.226562 209.496094 144.398438 210.742188 143.738281 212.636719 C 142.734375 215.546875 141.375 219.410156 140.660156 222.90625 C 140.292969 224.695312 140.558594 226.703125 140.144531 228.5625 C 139.492188 231.527344 139.0625 236.101562 138.605469 239.882812 C 137.773438 246.765625 137.011719 252.6875 138.09375 260 C 138.167969 260.5 138.507812 260.972656 138.605469 261.464844 C 139.316406 265.097656 140.058594 268.863281 142.199219 271.316406 C 142.742188 273.6875 143.699219 275.617188 145.28125 277.601562 C 146.078125 278.601562 147.171875 279.785156 148.105469 281.164062 C 148.703125 282.046875 148.878906 283.003906 149.390625 283.679688 C 149.726562 284.125 150.621094 284.578125 151.1875 285.148438 C 152.730469 286.699219 154.089844 288.109375 156.578125 289.128906 C 157.007812 289.304688 157.800781 289.148438 158.375 289.339844 C 158.785156 289.472656 159.058594 289.882812 159.402344 289.964844 C 160.664062 290.269531 162.453125 290.535156 163.511719 290.597656 C 168.570312 290.882812 172.371094 289.21875 177.375 288.5 C 178.722656 288.304688 179.738281 288.527344 181.484375 288.710938 C 177.105469 289.632812 173.011719 290.820312 167.617188 291.433594 C 166.546875 291.554688 165.589844 291.757812 164.539062 292.0625 C 165.761719 293.226562 167.128906 294.28125 169.671875 294.367188 C 170.765625 295.359375 172.144531 296.121094 174.292969 296.253906 C 175.207031 296.984375 176.160156 297.640625 177.117188 298.347656 C 177.917969 298.941406 179.3125 299.574219 179.429688 300.65625 C 179.355469 301.414062 178.292969 300.332031 177.886719 300.027344 C 177.257812 299.550781 176.648438 298.933594 176.347656 298.558594 C 173.953125 298 172.359375 296.785156 170.441406 295.835938 C 168.441406 296 167.464844 295.328125 166.335938 294.785156 C 164.425781 294.945312 162.082031 294.402344 160.941406 293.320312 C 154.613281 292.296875 150.257812 289.078125 145.792969 285.984375 C 144.847656 284.777344 143.414062 282.929688 141.941406 282.839844 C 140.929688 283.140625 141.539062 284.914062 141.941406 285.355469 C 141.726562 287.90625 141.117188 290.113281 140.660156 292.273438 C 140.46875 293.164062 140.019531 294.5 140.148438 295.414062 C 140.445312 297.597656 143.488281 299.289062 146.308594 299.398438 C 148.558594 299.484375 150.792969 298.058594 152.726562 298.769531 C 152.003906 299.507812 150.949219 299.058594 149.902344 299.1875 C 147.777344 299.445312 146.375 300.105469 144.253906 299.816406 C 143.1875 299.667969 142.476562 299.03125 141.429688 298.976562 C 140.832031 300.554688 142.375 302.089844 144 302.542969 C 144.535156 304.480469 147.019531 304.824219 146.824219 307.359375 C 143.628906 302.996094 138.019531 300.863281 137.066406 294.367188 C 136.707031 291.929688 137.746094 289.003906 137.578125 286.195312 C 137.515625 285.140625 138.285156 283.511719 136.550781 283.050781 C 135.175781 283.324219 134.90625 284.503906 134.5 285.566406 C 132.738281 286.890625 130.808594 287.929688 128.335938 289.128906 C 126.703125 289.921875 124.144531 291.023438 121.917969 291.644531 C 119.519531 292.3125 116.484375 292.339844 114.730469 293.53125 C 112.484375 295.054688 112.820312 297.695312 112.417969 300.445312 C 111.746094 298.164062 111.453125 295.371094 112.675781 293.320312 C 107.722656 292.59375 103.792969 295.519531 100.867188 297.929688 C 100.441406 298.28125 100.242188 298.816406 99.839844 299.1875 C 99.179688 299.796875 98.023438 300.15625 97.015625 300.867188 C 95.339844 302.039062 94.875 303.246094 91.878906 303.171875 C 93.792969 301.839844 95.460938 301.199219 96.757812 300.027344 C 97.34375 299.5 97.648438 298.679688 98.300781 298.140625 C 98.84375 297.6875 99.78125 297.511719 100.351562 297.09375 C 101.816406 296.019531 102.691406 294.765625 104.203125 293.949219 C 105.636719 293.175781 107.609375 292.378906 109.339844 291.851562 C 111.589844 291.171875 113.96875 291.207031 116.015625 290.804688 C 118.070312 290.402344 120.714844 289.761719 123.203125 288.917969 C 124.53125 288.46875 126.167969 288.074219 127.3125 287.453125 C 128.808594 286.636719 131.09375 283.726562 131.933594 281.375 C 132.664062 279.324219 131.109375 274.953125 130.390625 272.78125 C 129.589844 270.359375 128.820312 267.9375 128.59375 265.445312 C 128.414062 263.429688 128.824219 261.265625 128.59375 259.160156 C 128.484375 258.183594 128.117188 256.378906 128.082031 254.96875 C 127.96875 250.625 128.816406 247.058594 129.105469 242.183594 C 129.472656 236.03125 130.394531 230.464844 131.417969 224.582031 C 132.304688 219.476562 134.472656 214.734375 133.214844 209.492188 C 132.90625 208.21875 131.867188 206.671875 131.160156 205.300781 C 130.457031 203.9375 129.535156 202.527344 128.59375 201.53125 C 126.996094 199.84375 124.675781 198.8125 123.203125 197.128906 C 120.097656 196.761719 117.335938 195.796875 114.214844 195.871094 C 112.894531 195.902344 111.464844 196.242188 110.109375 196.289062 C 107.152344 196.394531 104.433594 196.273438 101.890625 196.921875 C 100.183594 197.355469 98.289062 198.152344 96.5 198.804688 C 92.523438 200.261719 87.996094 202.230469 84.433594 203.835938 C 80.007812 207.558594 79.304688 214.320312 74.421875 217.667969 C 76 216.214844 76.726562 214.1875 77.757812 212.21875 C 78.71875 210.390625 80.25 208.382812 80.070312 206.351562 C 77.15625 206.292969 73.972656 207.949219 70.3125 208.027344 C 64.769531 208.144531 60.023438 206.398438 57.476562 203.628906 C 58.507812 203.625 59.984375 205.070312 60.816406 205.933594 C 63.59375 206.648438 66.546875 207.4375 70.570312 207.191406 C 77.894531 206.738281 82.375 203.28125 87.773438 200.902344 C 91.203125 199.390625 95.003906 198.429688 96.757812 196.292969 C 96.453125 195.144531 95.089844 194.859375 93.421875 194.824219 C 92.789062 194.15625 91.691406 193.859375 90.339844 193.777344 C 89.9375 193.476562 89.445312 193.25 89.3125 192.730469 C 83.851562 191.808594 80.9375 188.808594 76.988281 186.652344 C 76.441406 185.1875 75.035156 184.21875 74.164062 182.878906 C 71.742188 179.144531 70.664062 174.140625 68.515625 169.886719 C 69.40625 169.800781 69.25 170.714844 69.542969 171.144531 C 69.867188 171.613281 70.542969 172.109375 70.828125 172.613281 C 71.691406 174.140625 72.058594 176.03125 72.625 177.851562 C 72.910156 178.765625 73.492188 179.875 74.164062 180.574219 C 75.160156 181.605469 75.675781 183.871094 77.503906 184.558594 C 78.726562 184.015625 77.539062 183.34375 77.503906 182.671875 C 77.359375 179.871094 78.839844 176.714844 80.328125 174.496094 C 80.347656 175.851562 79.027344 176.9375 78.785156 178.480469 C 78.601562 179.671875 78.675781 181.574219 78.785156 182.878906 C 79.109375 186.691406 82.671875 189.179688 86.234375 190.425781 C 86.636719 190.863281 87.300781 191.089844 87.515625 191.679688 C 87.902344 192.269531 88.597656 191.148438 88.800781 191.679688 C 95.960938 194.515625 102.542969 194.832031 111.90625 193.777344 C 112.890625 193.738281 114.175781 193.582031 115.5 193.566406 C 118.671875 193.535156 122.976562 194.292969 125.257812 195.035156 C 126.445312 194.492188 126.082031 192.71875 125.769531 191.890625 C 125.539062 191.265625 124.761719 190.9375 124.230469 190.214844 C 123.433594 189.132812 122.925781 187.597656 122.175781 186.652344 C 121.578125 185.898438 120.566406 185.464844 119.863281 184.765625 C 118.8125 183.714844 118.675781 182.984375 117.296875 182.042969 C 116.316406 181.371094 115.578125 180.921875 114.472656 180.15625 C 113.417969 179.421875 112.035156 178.550781 110.621094 177.851562 C 108.886719 176.988281 107.578125 176.503906 106 175.546875 C 104.25 174.480469 102.082031 173.449219 100.867188 171.773438 C 98.722656 171.007812 97.480469 169.507812 96.246094 168 C 96.253906 168.050781 96.21875 167.953125 95.730469 167.371094 C 95.582031 166.472656 94.527344 166.097656 94.191406 165.277344 C 94.0625 164.964844 94.328125 164.539062 94.191406 164.230469 C 93.757812 163.269531 92.984375 162.359375 92.648438 161.296875 C 91.933594 159.023438 92.003906 156.523438 91.105469 154.589844 C 90.027344 152.253906 87.378906 151.789062 85.972656 149.976562 C 87.421875 150.542969 89.160156 150.867188 89.566406 152.285156 C 91.164062 151.886719 90.886719 153.019531 91.621094 153.332031 C 92.867188 151.757812 93.164062 149.5625 93.929688 147.671875 C 94.34375 146.648438 94.546875 145.53125 95.472656 144.949219 C 95.21875 145.324219 95.359375 145.820312 95.214844 146.207031 C 94.796875 147.324219 93.671875 148.511719 93.417969 149.769531 C 93.265625 150.515625 93.496094 151.261719 93.417969 152.074219 C 93.308594 153.195312 92.761719 155.730469 93.417969 157.941406 C 93.574219 158.472656 94.011719 158.84375 94.1875 159.40625 C 94.683594 161.007812 94.613281 162.753906 94.957031 163.601562 C 95.175781 164.136719 95.839844 164.445312 96.242188 165.066406 C 96.613281 165.636719 96.648438 166.339844 97.011719 166.742188 C 98.304688 168.171875 100.21875 169.160156 101.632812 170.097656 C 103.5625 169.152344 102.859375 167.082031 103.429688 165.695312 C 104.320312 163.542969 107.558594 160.386719 109.59375 158.78125 C 112.011719 156.871094 115.414062 155.65625 118.320312 154.589844 C 112.6875 158.136719 103.597656 162.15625 104.203125 169.675781 C 104.53125 173.765625 109.160156 174.785156 112.929688 176.800781 C 113.347656 177.027344 113.5625 177.453125 113.957031 177.640625 C 115.675781 178.449219 117.03125 179.316406 118.835938 180.15625 C 119.929688 181.289062 121.003906 182.4375 122.429688 183.300781 C 124.050781 182.652344 123.117188 180.953125 123.457031 179.527344 C 123.679688 178.597656 124.121094 177.804688 124.484375 176.800781 C 124.0625 180.5625 124.027344 184.589844 126.023438 187.28125 C 126.765625 188.28125 128.140625 189.316406 128.847656 190.84375 C 129.050781 191.277344 128.902344 191.707031 129.105469 192.101562 C 129.40625 192.679688 130.054688 193.191406 130.390625 193.777344 C 130.785156 194.472656 130.75 195.234375 131.160156 195.871094 C 131.921875 197.058594 132.933594 198.265625 133.984375 199.015625 C 134.496094 200.765625 135.65625 201.980469 137.320312 202.789062 C 139.3125 202.421875 138.265625 200.628906 138.605469 199.226562 C 140.003906 193.417969 149.882812 189.609375 150.160156 182.671875 C 150.296875 179.164062 147.210938 176.140625 145.28125 173.867188 C 142.808594 170.960938 138.863281 167.738281 139.890625 162.132812 C 140.347656 170.628906 147.542969 173.628906 151.183594 179.527344 C 151.527344 180.503906 150.613281 180.457031 150.160156 180.785156 C 153.027344 182.664062 154.1875 176.640625 154.523438 174.289062 C 154.996094 170.964844 154.835938 168.355469 154.777344 165.90625 C 154.738281 164.125 154.324219 162.191406 154.007812 160.457031 C 153.710938 158.835938 153.480469 157.136719 152.980469 155.847656 C 151.839844 152.886719 149.230469 150.445312 148.105469 147.042969 C 147.324219 144.691406 147.753906 141.933594 147.078125 139.5 C 147.5625 138.714844 147.855469 137.855469 147.589844 136.984375 C 148.273438 136.5625 148.261719 135.578125 148.875 135.097656 C 148.652344 136.898438 147.476562 140.257812 147.847656 143.273438 C 148.265625 146.6875 150.433594 149.824219 151.957031 151.863281 C 152.027344 152.203125 151.714844 152.226562 151.699219 152.492188 C 152.820312 153.324219 153.085938 154.855469 154.265625 155.636719 C 154.414062 156.839844 154.644531 157.976562 155.292969 158.777344 Z M 155.289062 158.777344 " fill-opacity="1" fill-rule="evenodd"/><path fill="#ef6d53" d="M 84.171875 148.300781 C 84.644531 148 85.519531 149.152344 85.714844 149.769531 C 84.804688 149.601562 84.988281 148.542969 84.171875 148.300781 Z M 84.171875 148.300781 " fill-opacity="1" fill-rule="evenodd"/><path fill="#ef6d53" d="M 191.234375 168.835938 C 191.765625 167.632812 195.980469 168.457031 197.398438 169.042969 C 196.167969 169.277344 193.015625 168.15625 191.234375 168.835938 Z M 191.234375 168.835938 " fill-opacity="1" fill-rule="evenodd"/><g clip-path="url(#9deff7152c)"><g clip-path="url(#239af46875)"><path fill="#63a3b2" d="M 16.648438 178.839844 L 51.070312 178.839844 L 51.070312 213.265625 L 16.648438 213.265625 Z M 16.648438 178.839844 " fill-opacity="1" fill-rule="nonzero"/></g></g><g clip-path="url(#483a9b77bc)"><g clip-path="url(#3afdf2ade2)"><path fill="#63a3b2" d="M 81.484375 106.730469 L 107.359375 106.730469 L 107.359375 132.605469 L 81.484375 132.605469 Z M 81.484375 106.730469 " fill-opacity="1" fill-rule="nonzero"/></g></g><g clip-path="url(#b5e907d554)"><g clip-path="url(#ed206e3f47)"><path fill="#63a3b2" d="M 218.78125 140.949219 L 249.414062 140.949219 L 249.414062 171.578125 L 218.78125 171.578125 Z M 218.78125 140.949219 " fill-opacity="1" fill-rule="nonzero"/></g></g><g clip-path="url(#9c9984eaa3)"><g clip-path="url(#3c4058c9e3)"><g clip-path="url(#573ca305b7)"><path fill="#63a3b2" d="M 246.300781 185.394531 L 280.722656 205.757812 L 260.355469 240.183594 L 225.933594 219.816406 Z M 246.300781 185.394531 " fill-opacity="1" fill-rule="nonzero"/></g></g></g><g clip-path="url(#801dc04a94)"><g clip-path="url(#d8d2686857)"><path fill="#63a3b2" d="M 41.476562 151.417969 L 61.640625 151.417969 L 61.640625 171.578125 L 41.476562 171.578125 Z M 41.476562 151.417969 " fill-opacity="1" fill-rule="nonzero"/></g></g><g clip-path="url(#b4737346b5)"><g clip-path="url(#935080107c)"><path fill="#63a3b2" d="M 76.011719 129.085938 L 86.953125 129.085938 L 86.953125 140.027344 L 76.011719 140.027344 Z M 76.011719 129.085938 " fill-opacity="1" fill-rule="nonzero"/></g></g><g clip-path="url(#1f783dd736)"><g clip-path="url(#79a626537a)"><path fill="#63a3b2" d="M 115.832031 127.910156 L 132.808594 127.910156 L 132.808594 144.886719 L 115.832031 144.886719 Z M 115.832031 127.910156 " fill-opacity="1" fill-rule="nonzero"/></g></g><g clip-path="url(#0715dd1079)"><g clip-path="url(#4d92dbc1ba)"><path fill="#63a3b2" d="M 76.933594 156.027344 L 87.875 156.027344 L 87.875 166.96875 L 76.933594 166.96875 Z M 76.933594 156.027344 " fill-opacity="1" fill-rule="nonzero"/></g></g><g clip-path="url(#12d3de7c45)"><g clip-path="url(#af39e0e154)"><path fill="#63a3b2" d="M 44.625 211.574219 L 64.789062 211.574219 L 64.789062 231.738281 L 44.625 231.738281 Z M 44.625 211.574219 " fill-opacity="1" fill-rule="nonzero"/></g></g><g clip-path="url(#524ed81bcc)"><g clip-path="url(#7f11a2fd99)"><path fill="#63a3b2" d="M 147.554688 109.21875 L 165.324219 109.21875 L 165.324219 126.992188 L 147.554688 126.992188 Z M 147.554688 109.21875 " fill-opacity="1" fill-rule="nonzero"/></g></g><g clip-path="url(#ef6a728817)"><g clip-path="url(#6b1ebdf3b2)"><g clip-path="url(#cef8be4c66)"><path fill="#63a3b2" d="M 223.550781 213.265625 L 234.09375 219.503906 L 227.855469 230.046875 L 217.3125 223.808594 Z M 223.550781 213.265625 " fill-opacity="1" fill-rule="nonzero"/></g></g></g><g clip-path="url(#94cbf62cad)"><g clip-path="url(#6586a20f00)"><g clip-path="url(#8d493dd58a)"><path fill="#63a3b2" d="M 204.238281 209.585938 L 217.3125 217.316406 L 209.578125 230.390625 L 196.503906 222.65625 Z M 204.238281 209.585938 " fill-opacity="1" fill-rule="nonzero"/></g></g></g><g clip-path="url(#f14baac749)"><g clip-path="url(#13b999e607)"><path fill="#63a3b2" d="M 211.683594 166.96875 L 222.597656 166.96875 L 222.597656 177.882812 L 211.683594 177.882812 Z M 211.683594 166.96875 " fill-opacity="1" fill-rule="nonzero"/></g></g><g clip-path="url(#1c75e7fba9)"><g clip-path="url(#701c8345d8)"><path fill="#63a3b2" d="M 181.695312 140.949219 L 194.050781 140.949219 L 194.050781 153.304688 L 181.695312 153.304688 Z M 181.695312 140.949219 " fill-opacity="1" fill-rule="nonzero"/></g></g><g clip-path="url(#cadbe39c35)"><g clip-path="url(#7d3988738f)"><path fill="#63a3b2" d="M 171.734375 150.792969 L 182.203125 150.792969 L 182.203125 161.261719 L 171.734375 161.261719 Z M 171.734375 150.792969 " fill-opacity="1" fill-rule="nonzero"/></g></g><g clip-path="url(#0794e1b35f)"><g clip-path="url(#5aec9c6328)"><path fill="#63a3b2" d="M 222.597656 177.882812 L 238.597656 177.882812 L 238.597656 193.878906 L 222.597656 193.878906 Z M 222.597656 177.882812 " fill-opacity="1" fill-rule="nonzero"/></g></g><g clip-path="url(#14dc186df7)"><g clip-path="url(#270c93094f)"><path fill="#63a3b2" d="M 248.457031 165.984375 L 272.257812 165.984375 L 272.257812 189.78125 L 248.457031 189.78125 Z M 248.457031 165.984375 " fill-opacity="1" fill-rule="nonzero"/></g></g><g clip-path="url(#68b0403ac2)"><g clip-path="url(#d8fdd0950d)"><path fill="#63a3b2" d="M 165.324219 119.667969 L 183.628906 119.667969 L 183.628906 137.972656 L 165.324219 137.972656 Z M 165.324219 119.667969 " fill-opacity="1" fill-rule="nonzero"/></g></g><g clip-path="url(#20eaa8bb46)"><g clip-path="url(#e6a07365f0)"><path fill="#63a3b2" d="M 197.757812 134.558594 L 216.0625 134.558594 L 216.0625 152.859375 L 197.757812 152.859375 Z M 197.757812 134.558594 " fill-opacity="1" fill-rule="nonzero"/></g></g><g clip-path="url(#6f3672c89b)"><g clip-path="url(#28eb50a036)"><path fill="#63a3b2" d="M 185.773438 104.007812 L 213.964844 104.007812 L 213.964844 132.199219 L 185.773438 132.199219 Z M 185.773438 104.007812 " fill-opacity="1" fill-rule="nonzero"/></g></g><g clip-path="url(#e4e54d77f0)"><g clip-path="url(#74409a188a)"><path fill="#63a3b2" d="M 112.367188 94.96875 L 142.546875 94.96875 L 142.546875 125.148438 L 112.367188 125.148438 Z M 112.367188 94.96875 " fill-opacity="1" fill-rule="nonzero"/></g></g><g clip-path="url(#71732d8f39)"><g clip-path="url(#d222a68ac7)"><path fill="#63a3b2" d="M 166.664062 94.96875 L 184.433594 94.96875 L 184.433594 112.742188 L 166.664062 112.742188 Z M 166.664062 94.96875 " fill-opacity="1" fill-rule="nonzero"/></g></g><g clip-path="url(#ad459b4a08)"><g clip-path="url(#a779c52d61)"><path fill="#63a3b2" d="M 133.742188 62.941406 L 171.734375 62.941406 L 171.734375 100.933594 L 133.742188 100.933594 Z M 133.742188 62.941406 " fill-opacity="1" fill-rule="nonzero"/></g></g><g clip-path="url(#2fd4f28504)"><g clip-path="url(#1ad6ddbb57)"><path fill="#63a3b2" d="M 51.796875 129.355469 L 69.566406 129.355469 L 69.566406 147.125 L 51.796875 147.125 Z M 51.796875 129.355469 " fill-opacity="1" fill-rule="nonzero"/></g></g><g clip-path="url(#e3b9edee81)"><g clip-path="url(#6c2ac003b5)"><path fill="#63a3b2" d="M 124.855469 159.355469 L 137.078125 159.355469 L 137.078125 171.578125 L 124.855469 171.578125 Z M 124.855469 159.355469 " fill-opacity="1" fill-rule="nonzero"/></g></g><g clip-path="url(#bb74c6c8be)"><g clip-path="url(#d9ae712f5b)"><path fill="#63a3b2" d="M 209.742188 178.839844 L 218.183594 178.839844 L 218.183594 187.285156 L 209.742188 187.285156 Z M 209.742188 178.839844 " fill-opacity="1" fill-rule="nonzero"/></g></g><g clip-path="url(#cdce3b09c9)"><g clip-path="url(#43ab6e9d09)"><path fill="#63a3b2" d="M 217.3125 110.058594 L 242.734375 110.058594 L 242.734375 135.480469 L 217.3125 135.480469 Z M 217.3125 110.058594 " fill-opacity="1" fill-rule="nonzero"/></g></g><g clip-path="url(#be5290ea54)"><g clip-path="url(#399331334c)"><path fill="#63a3b2" d="M 14.246094 150.792969 L 37.796875 150.792969 L 37.796875 174.34375 L 14.246094 174.34375 Z M 14.246094 150.792969 " fill-opacity="1" fill-rule="nonzero"/></g></g><g fill="#ef6d53" fill-opacity="1"><g transform="translate(31.643649, 279.446678)"><g><path d="M 25.171875 0.890625 C 18.503906 0.890625 13.320312 -0.921875 9.625 -4.546875 C 5.9375 -8.171875 4.09375 -13.316406 4.09375 -19.984375 L 4.09375 -44.828125 L 16.78125 -44.828125 L 16.78125 -20.359375 C 16.78125 -13.191406 19.617188 -9.609375 25.296875 -9.609375 C 30.929688 -9.609375 33.75 -13.191406 33.75 -20.359375 L 33.75 -44.828125 L 46.234375 -44.828125 L 46.234375 -19.984375 C 46.234375 -13.316406 44.382812 -8.171875 40.6875 -4.546875 C 37 -0.921875 31.828125 0.890625 25.171875 0.890625 Z M 25.171875 0.890625 "/></g></g></g><g fill="#ef6d53" fill-opacity="1"><g transform="translate(80.689288, 279.446678)"><g><path d="M 26.515625 -35.28125 C 30.816406 -35.28125 34.28125 -34 36.90625 -31.4375 C 39.539062 -28.875 40.859375 -25.007812 40.859375 -19.84375 L 40.859375 0 L 28.6875 0 L 28.6875 -17.859375 C 28.6875 -22.597656 26.785156 -24.96875 22.984375 -24.96875 C 20.890625 -24.96875 19.210938 -24.285156 17.953125 -22.921875 C 16.703125 -21.554688 16.078125 -19.507812 16.078125 -16.78125 L 16.078125 0 L 3.90625 0 L 3.90625 -34.703125 L 15.5 -34.703125 L 15.5 -30.921875 C 16.863281 -32.335938 18.484375 -33.414062 20.359375 -34.15625 C 22.234375 -34.90625 24.285156 -35.28125 26.515625 -35.28125 Z M 26.515625 -35.28125 "/></g></g></g><g fill="#ef6d53" fill-opacity="1"><g transform="translate(123.972378, 279.446678)"><g/></g></g><g fill="#63a3b2" fill-opacity="1"><g transform="translate(141.339621, 279.446678)"><g><path d="M 74.78125 -44.828125 L 60.25 0 L 46.671875 0 L 38.09375 -27.28125 L 29.140625 0 L 15.5625 0 L 1.03125 -44.828125 L 14.09375 -44.828125 L 23.109375 -16.203125 L 32.59375 -44.828125 L 44.25 -44.828125 L 53.28125 -15.9375 L 62.6875 -44.828125 Z M 74.78125 -44.828125 "/></g></g></g><g fill="#63a3b2" fill-opacity="1"><g transform="translate(215.868569, 279.446678)"><g><path d="M 21.328125 0.578125 C 17.609375 0.578125 14.253906 -0.1875 11.265625 -1.71875 C 8.273438 -3.257812 5.9375 -5.394531 4.25 -8.125 C 2.570312 -10.863281 1.734375 -13.960938 1.734375 -17.421875 C 1.734375 -20.828125 2.570312 -23.894531 4.25 -26.625 C 5.9375 -29.363281 8.265625 -31.488281 11.234375 -33 C 14.203125 -34.519531 17.566406 -35.28125 21.328125 -35.28125 C 25.078125 -35.28125 28.445312 -34.519531 31.4375 -33 C 34.425781 -31.488281 36.753906 -29.378906 38.421875 -26.671875 C 40.085938 -23.960938 40.921875 -20.878906 40.921875 -17.421875 C 40.921875 -13.960938 40.085938 -10.863281 38.421875 -8.125 C 36.753906 -5.394531 34.425781 -3.257812 31.4375 -1.71875 C 28.445312 -0.1875 25.078125 0.578125 21.328125 0.578125 Z M 21.328125 -9.09375 C 23.460938 -9.09375 25.210938 -9.828125 26.578125 -11.296875 C 27.941406 -12.773438 28.625 -14.816406 28.625 -17.421875 C 28.625 -19.984375 27.941406 -21.988281 26.578125 -23.4375 C 25.210938 -24.882812 23.460938 -25.609375 21.328125 -25.609375 C 19.191406 -25.609375 17.4375 -24.882812 16.0625 -23.4375 C 14.695312 -21.988281 14.015625 -19.984375 14.015625 -17.421875 C 14.015625 -14.816406 14.695312 -12.773438 16.0625 -11.296875 C 17.4375 -9.828125 19.191406 -9.09375 21.328125 -9.09375 Z M 21.328125 -9.09375 "/></g></g></g><g fill="#63a3b2" fill-opacity="1"><g transform="translate(257.230795, 279.446678)"><g><path d="M 21.328125 0.578125 C 17.609375 0.578125 14.253906 -0.1875 11.265625 -1.71875 C 8.273438 -3.257812 5.9375 -5.394531 4.25 -8.125 C 2.570312 -10.863281 1.734375 -13.960938 1.734375 -17.421875 C 1.734375 -20.828125 2.570312 -23.894531 4.25 -26.625 C 5.9375 -29.363281 8.265625 -31.488281 11.234375 -33 C 14.203125 -34.519531 17.566406 -35.28125 21.328125 -35.28125 C 25.078125 -35.28125 28.445312 -34.519531 31.4375 -33 C 34.425781 -31.488281 36.753906 -29.378906 38.421875 -26.671875 C 40.085938 -23.960938 40.921875 -20.878906 40.921875 -17.421875 C 40.921875 -13.960938 40.085938 -10.863281 38.421875 -8.125 C 36.753906 -5.394531 34.425781 -3.257812 31.4375 -1.71875 C 28.445312 -0.1875 25.078125 0.578125 21.328125 0.578125 Z M 21.328125 -9.09375 C 23.460938 -9.09375 25.210938 -9.828125 26.578125 -11.296875 C 27.941406 -12.773438 28.625 -14.816406 28.625 -17.421875 C 28.625 -19.984375 27.941406 -21.988281 26.578125 -23.4375 C 25.210938 -24.882812 23.460938 -25.609375 21.328125 -25.609375 C 19.191406 -25.609375 17.4375 -24.882812 16.0625 -23.4375 C 14.695312 -21.988281 14.015625 -19.984375 14.015625 -17.421875 C 14.015625 -14.816406 14.695312 -12.773438 16.0625 -11.296875 C 17.4375 -9.828125 19.191406 -9.09375 21.328125 -9.09375 Z M 21.328125 -9.09375 "/></g></g></g><g fill="#63a3b2" fill-opacity="1"><g transform="translate(298.593022, 279.446678)"><g><path d="M 40.78125 -47.515625 L 40.78125 0 L 29.203125 0 L 29.203125 -3.453125 C 26.929688 -0.765625 23.535156 0.578125 19.015625 0.578125 C 15.859375 0.578125 12.976562 -0.15625 10.375 -1.625 C 7.769531 -3.101562 5.707031 -5.207031 4.1875 -7.9375 C 2.675781 -10.664062 1.921875 -13.828125 1.921875 -17.421875 C 1.921875 -21.003906 2.675781 -24.148438 4.1875 -26.859375 C 5.707031 -29.566406 7.769531 -31.644531 10.375 -33.09375 C 12.976562 -34.550781 15.859375 -35.28125 19.015625 -35.28125 C 23.160156 -35.28125 26.363281 -34.085938 28.625 -31.703125 L 28.625 -47.515625 Z M 21.578125 -9.09375 C 23.671875 -9.09375 25.398438 -9.828125 26.765625 -11.296875 C 28.128906 -12.773438 28.8125 -14.816406 28.8125 -17.421875 C 28.8125 -19.984375 28.140625 -21.988281 26.796875 -23.4375 C 25.453125 -24.882812 23.710938 -25.609375 21.578125 -25.609375 C 19.441406 -25.609375 17.691406 -24.882812 16.328125 -23.4375 C 14.960938 -21.988281 14.28125 -19.984375 14.28125 -17.421875 C 14.28125 -14.816406 14.960938 -12.773438 16.328125 -11.296875 C 17.691406 -9.828125 19.441406 -9.09375 21.578125 -9.09375 Z M 21.578125 -9.09375 "/></g></g></g></svg>