<svg width="528" height="425" viewBox="0 0 528 425" fill="none" xmlns="http://www.w3.org/2000/svg">
<g clip-path="url(#clip0_617_3678)">
<path d="M244.663 89.7457L246.938 90.254C245.911 90.3887 244.884 90.5173 243.858 90.6337H205.916C203.07 90.303 200.241 89.8947 197.427 89.4089C180.477 86.5564 164.301 80.7087 149.808 72.1945C140.903 66.9096 132.414 60.4121 127.804 51.6855C121.543 39.8357 123.731 24.8321 132.669 14.5133C135.924 10.7904 139.931 7.67201 144.473 5.32746C145.151 4.97227 145.835 4.63545 146.533 4.31701C154.1 0.847021 162.597 -0.572552 171.02 0.22623C185.348 1.6531 198.567 9.63869 206.198 20.7965C214.633 33.1178 216.25 48.1949 217.659 62.6657C220.216 55.1578 229.812 50.571 238.234 52.2306C246.649 53.884 253.145 61.0551 254.192 68.857C255.219 76.4874 251.421 84.3199 245.092 89.4089C244.951 89.5191 244.81 89.6355 244.663 89.7457Z" fill="#F2F2F2"/>
<path d="M215.405 90.6339H213.506C213.317 90.4969 213.172 90.3175 213.083 90.1133C212.975 89.8806 212.875 89.6418 212.76 89.4091C207.117 76.9333 200.169 64.9833 192.011 53.725C179.049 35.8043 163.171 19.7902 144.923 6.23403C144.767 6.13272 144.643 5.99546 144.564 5.83624C144.485 5.67702 144.454 5.50154 144.473 5.32768C144.512 5.09567 144.616 4.87702 144.777 4.6938C144.938 4.51058 145.149 4.36928 145.388 4.28417C145.628 4.19906 145.888 4.17316 146.142 4.20907C146.396 4.24498 146.635 4.34144 146.835 4.48871C158.659 13.276 169.504 23.1055 179.214 33.8345C188.93 44.5505 197.483 56.1012 204.755 68.3244C208.812 75.1661 212.457 82.2048 215.673 89.4091C215.68 89.4275 215.686 89.4397 215.693 89.4581C215.801 89.6544 215.831 89.8786 215.778 90.0928C215.726 90.307 215.594 90.4981 215.405 90.6339Z" fill="white"/>
<path d="M374.453 89.4089H12.7502C9.36957 89.4117 6.12829 90.6385 3.73782 92.82C1.34736 95.0014 0.00305975 97.9593 0 101.044V136.563C0.00305975 139.648 1.34736 142.606 3.73782 144.788C6.12829 146.969 9.36957 148.196 12.7502 148.199H374.453C377.834 148.196 381.075 146.969 383.465 144.788C385.856 142.606 387.2 139.648 387.203 136.563V101.044C387.2 97.9593 385.856 95.0014 383.465 92.82C381.075 90.6385 377.834 89.4117 374.453 89.4089ZM385.861 136.563C385.857 139.323 384.654 141.969 382.515 143.92C380.377 145.872 377.477 146.97 374.453 146.974H12.7502C9.7259 146.97 6.8267 145.872 4.6882 143.92C2.5497 141.969 1.34641 139.323 1.34213 136.563V101.044C1.3464 98.2845 2.5497 95.6388 4.6882 93.6872C6.8267 91.7357 9.7259 90.6376 12.7502 90.6337H374.453C377.477 90.6376 380.377 91.7357 382.515 93.6872C384.654 95.6388 385.857 98.2845 385.861 101.044V136.563Z" fill="#3F3D56"/>
<path d="M374.453 232.096H12.7502C9.36981 232.093 6.12899 230.866 3.7387 228.684C1.3484 226.503 0.00383997 223.546 0 220.461V184.942C0.00383997 181.857 1.3484 178.9 3.7387 176.718C6.12899 174.537 9.36981 173.31 12.7502 173.307H374.453C377.833 173.31 381.074 174.537 383.465 176.718C385.855 178.9 387.199 181.857 387.203 184.942V220.461C387.199 223.546 385.855 226.503 383.465 228.684C381.074 230.866 377.833 232.093 374.453 232.096ZM12.7502 174.531C9.72563 174.535 6.82591 175.632 4.68722 177.584C2.54853 179.536 1.34551 182.182 1.34213 184.942V220.461C1.34552 223.221 2.54853 225.867 4.68722 227.819C6.82591 229.771 9.72563 230.868 12.7502 230.871H374.453C377.478 230.868 380.377 229.771 382.516 227.819C384.655 225.867 385.858 223.221 385.861 220.461V184.942C385.858 182.182 384.655 179.536 382.516 177.584C380.377 175.632 377.478 174.535 374.453 174.531H12.7502Z" fill="#3F3D56"/>
<path d="M374.453 315.994H12.7502C9.36981 315.99 6.12899 314.763 3.7387 312.582C1.3484 310.401 0.00383997 307.443 0 304.359V268.84C0.00383997 265.755 1.3484 262.797 3.7387 260.616C6.12899 258.435 9.36981 257.208 12.7502 257.204H374.453C377.833 257.208 381.074 258.435 383.465 260.616C385.855 262.797 387.199 265.755 387.203 268.84V304.359C387.199 307.443 385.855 310.401 383.465 312.582C381.074 314.763 377.833 315.99 374.453 315.994ZM12.7502 258.429C9.72563 258.432 6.82591 259.53 4.68722 261.482C2.54853 263.433 1.34551 266.08 1.34213 268.84V304.359C1.34552 307.119 2.54853 309.765 4.68722 311.717C6.82591 313.668 9.72563 314.766 12.7502 314.769H374.453C377.478 314.766 380.377 313.668 382.516 311.717C384.655 309.765 385.858 307.119 385.861 304.359V268.84C385.858 266.08 384.655 263.433 382.516 261.482C380.377 259.53 377.478 258.432 374.453 258.429H12.7502Z" fill="#3F3D56"/>
<path d="M72.3611 138.707H50.8871C47.9515 138.704 45.1371 137.638 43.0613 135.744C40.9855 133.849 39.8179 131.281 39.8146 128.602V109.006C39.8179 106.327 40.9855 103.758 43.0613 101.864C45.1371 99.9697 47.9515 98.9041 50.8871 98.9011H72.3611C75.2967 98.9041 78.1111 99.9697 80.1869 101.864C82.2627 103.758 83.4303 106.327 83.4337 109.006V128.602C83.4303 131.281 82.2627 133.849 80.1869 135.744C78.1111 137.638 75.2967 138.704 72.3611 138.707Z" fill="#EF6D53"/>
<path d="M341.685 135.338H104.799C103.376 135.338 102.01 134.822 101.003 133.903C99.9965 132.985 99.4309 131.739 99.4309 130.439C99.4309 129.14 99.9965 127.894 101.003 126.975C102.01 126.056 103.376 125.54 104.799 125.54H341.685C343.108 125.54 344.474 126.056 345.481 126.975C346.487 127.894 347.053 129.14 347.053 130.439C347.053 131.739 346.487 132.985 345.481 133.903C344.474 134.822 343.108 135.338 341.685 135.338Z" fill="#CCCCCC"/>
<path d="M264.512 114.517H104.799C103.376 114.517 102.01 114.001 101.003 113.082C99.9965 112.163 99.4309 110.917 99.4309 109.618C99.4309 108.319 99.9965 107.072 101.003 106.154C102.01 105.235 103.376 104.719 104.799 104.719H264.512C265.936 104.719 267.302 105.235 268.308 106.154C269.315 107.072 269.881 108.319 269.881 109.618C269.881 110.917 269.315 112.163 268.308 113.082C267.302 114.001 265.936 114.517 264.512 114.517Z" fill="#CCCCCC"/>
<path d="M72.3611 222.604H50.8871C47.9515 222.601 45.1371 221.536 43.0613 219.641C40.9855 217.747 39.8179 215.179 39.8146 212.5V192.903C39.8179 190.224 40.9855 187.656 43.0613 185.762C45.1371 183.867 47.9515 182.802 50.8871 182.799H72.3611C75.2967 182.802 78.1111 183.867 80.1869 185.762C82.2627 187.656 83.4303 190.224 83.4337 192.903V212.5C83.4303 215.179 82.2627 217.747 80.1869 219.641C78.1111 221.536 75.2967 222.601 72.3611 222.604Z" fill="#EF6D53"/>
<path d="M341.685 219.236H104.799C103.376 219.236 102.01 218.72 101.003 217.801C99.9965 216.882 99.4309 215.636 99.4309 214.337C99.4309 213.038 99.9965 211.791 101.003 210.873C102.01 209.954 103.376 209.438 104.799 209.438H341.685C343.108 209.438 344.474 209.954 345.481 210.873C346.487 211.791 347.053 213.038 347.053 214.337C347.053 215.636 346.487 216.882 345.481 217.801C344.474 218.72 343.108 219.236 341.685 219.236Z" fill="#CCCCCC"/>
<path d="M264.512 198.415H104.799C103.376 198.415 102.01 197.899 101.003 196.98C99.9965 196.061 99.4309 194.815 99.4309 193.516C99.4309 192.216 99.9965 190.97 101.003 190.051C102.01 189.133 103.376 188.616 104.799 188.616H264.512C265.936 188.616 267.302 189.133 268.308 190.051C269.315 190.97 269.881 192.216 269.881 193.516C269.881 194.815 269.315 196.061 268.308 196.98C267.302 197.899 265.936 198.415 264.512 198.415Z" fill="#CCCCCC"/>
<path d="M72.3611 306.502H50.8871C47.9515 306.499 45.1371 305.433 43.0613 303.539C40.9855 301.645 39.8179 299.076 39.8146 296.398V276.801C39.8179 274.122 40.9855 271.554 43.0613 269.659C45.1371 267.765 47.9515 266.7 50.8871 266.697H72.3611C75.2967 266.7 78.1111 267.765 80.1869 269.659C82.2627 271.554 83.4303 274.122 83.4337 276.801V296.398C83.4303 299.076 82.2627 301.645 80.1869 303.539C78.1111 305.433 75.2967 306.499 72.3611 306.502Z" fill="#EF6D53"/>
<path d="M341.685 303.134H104.799C103.376 303.134 102.01 302.618 101.003 301.699C99.9965 300.78 99.4309 299.534 99.4309 298.235C99.4309 296.935 99.9965 295.689 101.003 294.77C102.01 293.852 103.376 293.335 104.799 293.335H341.685C343.108 293.335 344.474 293.852 345.481 294.77C346.487 295.689 347.053 296.935 347.053 298.235C347.053 299.534 346.487 300.78 345.481 301.699C344.474 302.618 343.108 303.134 341.685 303.134Z" fill="#CCCCCC"/>
<path d="M264.512 282.312H104.799C103.376 282.312 102.01 281.796 101.003 280.878C99.9965 279.959 99.4309 278.713 99.4309 277.413C99.4309 276.114 99.9965 274.868 101.003 273.949C102.01 273.03 103.376 272.514 104.799 272.514H264.512C265.936 272.514 267.302 273.03 268.308 273.949C269.315 274.868 269.881 276.114 269.881 277.413C269.881 278.713 269.315 279.959 268.308 280.878C267.302 281.796 265.936 282.312 264.512 282.312Z" fill="#CCCCCC"/>
<path d="M382.506 107.168C391.03 107.168 397.94 100.862 397.94 93.0833C397.94 85.3044 391.03 78.9983 382.506 78.9983C373.982 78.9983 367.071 85.3044 367.071 93.0833C367.071 100.862 373.982 107.168 382.506 107.168Z" fill="#3F3D56"/>
<path d="M388.545 98.9011C388.457 98.9012 388.37 98.8854 388.289 98.8546C388.207 98.8238 388.133 98.7787 388.071 98.7217L375.992 87.6986C375.866 87.5838 375.795 87.428 375.795 87.2656C375.795 87.1032 375.866 86.9475 375.992 86.8327C376.118 86.7178 376.288 86.6533 376.466 86.6533C376.644 86.6533 376.815 86.7178 376.941 86.8327L389.02 97.8557C389.114 97.9414 389.178 98.0505 389.203 98.1692C389.229 98.288 389.216 98.4111 389.165 98.523C389.114 98.6349 389.028 98.7305 388.918 98.7978C388.808 98.8651 388.678 98.9011 388.545 98.9011Z" fill="white"/>
<path d="M376.466 98.9011C376.334 98.901 376.204 98.8651 376.094 98.7978C375.983 98.7305 375.897 98.6349 375.847 98.523C375.796 98.4111 375.782 98.288 375.808 98.1692C375.834 98.0505 375.898 97.9414 375.992 97.8557L388.071 86.8327C388.133 86.7758 388.207 86.7307 388.289 86.6999C388.37 86.6692 388.457 86.6533 388.545 86.6533C388.634 86.6533 388.721 86.6692 388.802 86.6999C388.884 86.7307 388.958 86.7758 389.02 86.8327C389.082 86.8895 389.132 86.957 389.165 87.0313C389.199 87.1056 389.216 87.1852 389.216 87.2656C389.216 87.3461 389.199 87.4257 389.165 87.5C389.132 87.5743 389.082 87.6418 389.02 87.6986L376.941 98.7217C376.879 98.7786 376.805 98.8238 376.723 98.8546C376.642 98.8854 376.554 98.9012 376.466 98.9011Z" fill="white"/>
<path d="M471.139 293.921C471.441 293.921 471.743 293.904 472.042 293.869C473.075 293.753 474.069 293.44 474.96 292.949C475.85 292.459 476.617 291.802 477.21 291.022C477.803 290.242 478.209 289.357 478.401 288.424C478.592 287.491 478.566 286.531 478.323 285.608C478.266 285.394 478.196 285.182 478.115 284.974L500.504 258.816C501.49 257.656 502.039 256.236 502.071 254.768C502.102 253.3 501.614 251.861 500.679 250.666L492.836 240.726L482.586 247.943L486.704 254.399L470.396 280.486C470.068 280.514 469.742 280.562 469.422 280.631C467.665 281.016 466.124 281.976 465.09 283.329C464.057 284.682 463.603 286.334 463.814 287.972C464.026 289.609 464.888 291.12 466.238 292.216C467.588 293.312 469.332 293.919 471.139 293.921Z" fill="#A0616A"/>
<path d="M432.392 417.869L424.165 417.869L420.251 388.91L432.393 388.91L432.392 417.869Z" fill="#A0616A"/>
<path d="M408.299 424.84L434.155 424.841L434.155 415.724L418.289 415.723C416.977 415.723 415.678 415.959 414.466 416.417C413.254 416.875 412.153 417.547 411.225 418.393C410.297 419.24 409.562 420.245 409.059 421.351C408.557 422.457 408.299 423.642 408.299 424.84Z" fill="#2F2E41"/>
<path d="M500.168 417.869L491.941 417.869L488.027 388.91L500.169 388.91L500.168 417.869Z" fill="#A0616A"/>
<path d="M476.074 424.84L501.93 424.841L501.931 415.724L486.064 415.723C484.753 415.723 483.454 415.959 482.241 416.417C481.029 416.875 479.928 417.547 479 418.393C478.073 419.24 477.337 420.245 476.835 421.351C476.333 422.457 476.074 423.642 476.074 424.84Z" fill="#2F2E41"/>
<path d="M495.119 242.136L476.648 248.541L472.139 237.11C471.54 235.592 471.549 233.93 472.163 232.417C472.777 230.904 473.957 229.638 475.496 228.843C477.051 228.038 478.871 227.768 480.626 228.081C482.381 228.393 483.956 229.268 485.066 230.548L495.119 242.136Z" fill="#63A3B2"/>
<path d="M433.855 394.492C434.592 394.492 435.308 394.267 435.891 393.854C436.473 393.441 436.888 392.863 437.071 392.21C446.281 360.053 455.633 343.934 465.661 325.296C465.912 324.831 466.319 324.452 466.822 324.212C467.326 323.973 467.9 323.887 468.461 323.966C469.022 324.045 469.54 324.285 469.942 324.651C470.343 325.018 470.605 325.492 470.691 326.004L483.121 391.56C483.245 392.292 483.656 392.957 484.278 393.432C484.9 393.907 485.689 394.16 486.5 394.144L504.955 393.733C505.402 393.725 505.844 393.634 506.252 393.465C506.66 393.297 507.026 393.054 507.329 392.753C507.648 392.464 507.893 392.113 508.044 391.727C508.195 391.34 508.25 390.928 508.203 390.519C499.845 340.214 493.264 294.678 480.608 280.787C480.257 280.484 479.855 280.234 479.417 280.048L479.801 279.994C479.911 279.979 480.203 279.938 480.207 279.67L480.21 279.41L479.922 279.361C479.461 279.346 479.001 279.409 478.565 279.547L449.68 283.604C448.88 283.716 448.152 284.09 447.632 284.656C447.112 285.222 446.835 285.942 446.853 286.68C445.282 293.384 442.876 303.504 442.661 304.002C427.249 330.74 421.269 351.795 415.054 387.749C414.925 388.511 415.117 389.29 415.592 389.928C416.066 390.567 416.788 391.018 417.612 391.19L433.102 394.415C433.349 394.466 433.601 394.492 433.855 394.492Z" fill="#2F2E41"/>
<path d="M450.064 287.988C450.323 287.988 450.582 287.96 450.834 287.905L479.272 281.731C479.707 281.639 480.118 281.465 480.477 281.222C480.837 280.979 481.138 280.671 481.362 280.317C481.594 279.952 481.742 279.547 481.797 279.128C481.853 278.709 481.816 278.284 481.687 277.878C478.621 268.176 482.642 256.148 487.444 244.596C488.055 241.218 487.456 237.751 485.738 234.707C484.019 231.664 481.271 229.207 477.902 227.701L477.825 227.667L462.894 228.355C460.443 228.942 458.169 230.028 456.243 231.532C454.318 233.036 452.791 234.919 451.777 237.039C446.022 249.33 444.375 265.102 446.74 285.256C446.827 286.005 447.215 286.699 447.828 287.203C448.442 287.707 449.238 287.987 450.064 287.988Z" fill="#63A3B2"/>
<path d="M446.238 259.931C447.756 259.934 449.237 259.504 450.475 258.702L461.49 251.537L453.631 242.148L446.537 245.875L418.03 230.867C418.001 230.568 417.95 230.271 417.876 229.978C417.542 228.681 416.794 227.504 415.727 226.595C414.659 225.686 413.32 225.086 411.88 224.871C410.439 224.657 408.961 224.837 407.632 225.389C406.303 225.941 405.184 226.84 404.415 227.973C403.646 229.105 403.263 230.421 403.313 231.752C403.364 233.084 403.846 234.372 404.698 235.453C405.551 236.535 406.736 237.361 408.103 237.828C409.47 238.296 410.958 238.382 412.38 238.077C412.615 238.026 412.847 237.963 413.075 237.89L441.711 258.507C443.002 259.432 444.597 259.934 446.238 259.931Z" fill="#A0616A"/>
<path d="M472.842 222.578C463.739 222.578 456.36 215.844 456.36 207.537C456.36 199.23 463.739 192.496 472.842 192.496C481.944 192.496 489.323 199.23 489.323 207.537C489.323 215.844 481.944 222.578 472.842 222.578Z" fill="#A0616A"/>
<path d="M471.332 222.926C473.805 222.916 475.714 220.539 475.603 218.284C475.492 216.029 473.832 214.044 471.833 212.716C469.833 211.387 467.488 210.577 465.258 209.6C463.028 208.623 460.817 207.404 459.44 205.529C458.608 204.301 458.112 202.909 457.992 201.47C457.873 200.031 458.134 198.586 458.753 197.259C460.035 194.603 462.235 192.403 465.016 190.997C469.149 188.79 474.04 188.084 478.717 189.02C483.394 189.957 487.512 192.467 490.253 196.05L493.076 203.067C495.954 206.224 496.41 210.913 494.641 214.69C492.873 218.466 489.106 221.307 484.857 222.658C480.545 223.922 475.929 224.049 471.542 223.022" fill="#2F2E41"/>
<path d="M489.14 200.406C490.269 198.817 491.809 197.506 493.625 196.588C495.44 195.671 497.475 195.175 499.55 195.145C501.624 195.114 503.676 195.55 505.522 196.414C507.369 197.278 508.954 198.543 510.139 200.098C512.121 202.701 512.841 205.91 514.205 208.825C516.674 214.047 521.164 218.255 526.818 220.646C521.868 221.441 516.936 219.142 512.978 216.315C509.02 213.487 505.539 210.035 501.107 207.872C497.62 206.177 493.702 205.356 489.754 205.493" fill="#2F2E41"/>
</g>
<defs>
<clipPath id="clip0_617_3678">
<rect width="527.455" height="425" fill="white"/>
</clipPath>
</defs>
</svg>
