<svg version="1.0" xmlns="http://www.w3.org/2000/svg"
  width="100.000000pt" height="100.000000pt" viewBox="0 0 100.000000 100.000000"
  preserveAspectRatio="xMidYMid meet">

  <g transform="translate(0.000000,100.000000) scale(0.100000,-0.100000)"
    fill="#000000" stroke="none">
    <path
      d="M382 734 c-93 -46 -142 -127 -142 -234 0 -151 108 -260 257 -260 106
0 192 51 237 142 68 137 5 303 -138 363 -58 24 -153 19 -214 -11z m218 -5
c197 -89 200 -365 5 -455 -165 -78 -355 43 -355 226 0 62 27 129 68 174 67 72
192 96 282 55z" />
    <path d="M470 715 c0 -8 7 -15 15 -15 8 0 15 7 15 15 0 8 -7 15 -15 15 -8 0
-15 -7 -15 -15z" />
    <path d="M527 723 c-12 -11 -8 -23 8 -23 8 0 15 7 15 15 0 16 -12 20 -23 8z" />
    <path d="M430 706 c0 -9 5 -16 10 -16 6 0 10 4 10 9 0 6 -4 13 -10 16 -5 3
-10 -1 -10 -9z" />
    <path d="M390 700 c-10 -6 -11 -13 -5 -19 13 -13 36 1 27 16 -5 8 -13 9 -22 3z" />
    <path d="M570 694 c0 -9 5 -14 12 -12 18 6 21 28 4 28 -9 0 -16 -7 -16 -16z" />
    <path d="M617 683 c-12 -11 -8 -23 8 -23 8 0 15 7 15 15 0 16 -12 20 -23 8z" />
    <path d="M351 671 c-10 -7 -10 -10 -1 -16 6 -4 16 -3 22 3 13 13 -4 23 -21 13z" />
    <path
      d="M473 591 c-43 -5 -51 -9 -43 -21 5 -8 10 -28 10 -43 0 -35 -22 -32
-30 4 -4 16 -14 25 -30 27 -21 3 -22 2 -11 -12 9 -11 12 -30 8 -59 -5 -31 -4
-36 3 -19 5 12 14 22 19 22 14 0 24 -38 16 -67 l-6 -25 73 6 c156 14 169 17
177 40 5 11 5 31 0 44 -5 13 -4 33 1 48 18 47 -2 64 -73 62 -34 -1 -85 -4
-114 -7z" />
    <path d="M280 490 c0 -5 5 -10 10 -10 6 0 10 5 10 10 0 6 -4 10 -10 10 -5 0
-10 -4 -10 -10z" />
    <path d="M700 490 c0 -5 7 -10 15 -10 8 0 15 5 15 10 0 6 -7 10 -15 10 -8 0
-15 -4 -15 -10z" />
    <path d="M355 350 c-4 -6 -3 -16 3 -22 6 -6 12 -6 17 2 4 6 3 16 -3 22 -6 6
-12 6 -17 -2z" />
    <path d="M612 329 c2 -6 8 -10 13 -10 5 0 11 4 13 10 2 6 -4 11 -13 11 -9 0
-15 -5 -13 -11z" />
    <path d="M386 321 c-3 -5 1 -11 9 -15 15 -6 29 7 18 18 -9 9 -21 8 -27 -3z" />
    <path d="M570 304 c0 -9 5 -14 12 -12 18 6 21 28 4 28 -9 0 -16 -7 -16 -16z" />
    <path d="M437 303 c-4 -3 -7 -11 -7 -17 0 -6 5 -5 12 2 6 6 9 14 7 17 -3 3 -9
2 -12 -2z" />
    <path d="M527 303 c-12 -11 -8 -23 8 -23 8 0 15 7 15 15 0 16 -12 20 -23 8z" />
    <path d="M470 290 c0 -5 7 -10 15 -10 8 0 15 5 15 10 0 6 -7 10 -15 10 -8 0
-15 -4 -15 -10z" />
  </g>
</svg>