<svg width="520" height="425" viewBox="0 0 520 425" fill="none" xmlns="http://www.w3.org/2000/svg">
<g clip-path="url(#clip0_617_3638)">
<path d="M498.198 275.718C497.765 291.884 495.057 307.908 490.154 323.318C490.042 323.676 489.925 324.028 489.807 324.386H459.789C459.821 324.065 459.853 323.708 459.885 323.318C461.886 300.308 473.426 160.261 459.629 136.311C460.835 138.254 500.525 202.604 498.198 275.718Z" fill="#F0F0F0"/>
<path d="M495.946 323.318C495.695 323.676 495.433 324.033 495.166 324.386H472.647C472.818 324.081 473.015 323.724 473.245 323.318C476.965 316.604 487.977 296.529 498.198 275.718C509.183 253.353 519.26 230.14 518.412 221.739C518.673 223.634 526.274 281.397 495.946 323.318Z" fill="#F0F0F0"/>
<path d="M59.8155 45.3838C46.0179 69.3335 57.5577 209.381 59.5593 232.391C59.5913 232.781 59.6234 233.138 59.6554 233.458H29.6369C29.5194 233.101 29.4019 232.749 29.2899 232.391C24.3868 216.981 21.6789 200.956 21.2462 184.79C18.9191 111.676 58.6092 47.3267 59.8155 45.3838Z" fill="#F0F0F0"/>
<path d="M1.03287 130.812C0.184158 139.213 10.2615 162.426 21.2462 184.791C31.4677 205.602 42.4791 225.676 46.1994 232.391C46.4289 232.797 46.6264 233.154 46.7972 233.459H24.278C24.0111 233.106 23.7496 232.749 23.4987 232.391C-6.82947 190.47 0.77126 132.707 1.03287 130.812Z" fill="#F0F0F0"/>
<path d="M515.422 26.3144H11.7924C11.5986 26.3144 11.4126 26.2374 11.2756 26.1004C11.1385 25.9633 11.0615 25.7774 11.0615 25.5835C11.0615 25.3896 11.1385 25.2037 11.2756 25.0666C11.4126 24.9295 11.5986 24.8525 11.7924 24.8525H515.422C515.616 24.8525 515.802 24.9295 515.939 25.0666C516.076 25.2037 516.153 25.3896 516.153 25.5835C516.153 25.7774 516.076 25.9633 515.939 26.1004C515.802 26.2374 515.616 26.3144 515.422 26.3144Z" fill="#CACACA"/>
<path d="M28.2447 16.0811C32.6854 16.0811 36.2852 12.4812 36.2852 8.04053C36.2852 3.59987 32.6854 0 28.2447 0C23.804 0 20.2042 3.59987 20.2042 8.04053C20.2042 12.4812 23.804 16.0811 28.2447 16.0811Z" fill="#3F3D56"/>
<path d="M56.0211 16.0811C60.4617 16.0811 64.0616 12.4812 64.0616 8.04053C64.0616 3.59987 60.4617 0 56.0211 0C51.5804 0 47.9805 3.59987 47.9805 8.04053C47.9805 12.4812 51.5804 16.0811 56.0211 16.0811Z" fill="#3F3D56"/>
<path d="M83.7975 16.0811C88.2381 16.0811 91.838 12.4812 91.838 8.04053C91.838 3.59987 88.2381 0 83.7975 0C79.3568 0 75.757 3.59987 75.757 8.04053C75.757 12.4812 79.3568 16.0811 83.7975 16.0811Z" fill="#3F3D56"/>
<path d="M498.78 4.91821H479.044C478.852 4.91866 478.661 4.88117 478.483 4.80791C478.306 4.73464 478.144 4.62702 478.008 4.49123C477.872 4.35543 477.764 4.19412 477.69 4.01653C477.616 3.83894 477.578 3.64857 477.578 3.4563C477.578 3.26403 477.616 3.07364 477.69 2.89605C477.764 2.71846 477.872 2.55715 478.008 2.42135C478.144 2.28556 478.306 2.17794 478.483 2.10468C478.661 2.03141 478.852 1.99394 479.044 1.99439H498.78C498.972 1.99394 499.162 2.03141 499.34 2.10468C499.518 2.17794 499.679 2.28556 499.816 2.42135C499.952 2.55715 500.06 2.71846 500.133 2.89605C500.207 3.07364 500.245 3.26403 500.245 3.4563C500.245 3.64857 500.207 3.83894 500.133 4.01653C500.06 4.19412 499.952 4.35543 499.816 4.49123C499.679 4.62702 499.518 4.73464 499.34 4.80791C499.162 4.88117 498.972 4.91866 498.78 4.91821Z" fill="#3F3D56"/>
<path d="M498.78 10.4004H479.044C478.852 10.4008 478.661 10.3634 478.483 10.2901C478.306 10.2168 478.144 10.1092 478.008 9.97342C477.872 9.83762 477.764 9.67631 477.69 9.49872C477.616 9.32113 477.578 9.13076 477.578 8.93849C477.578 8.74622 477.616 8.55583 477.69 8.37824C477.764 8.20065 477.872 8.03934 478.008 7.90354C478.144 7.76775 478.306 7.66013 478.483 7.58687C478.661 7.5136 478.852 7.47612 479.044 7.47657H498.78C498.972 7.47612 499.162 7.5136 499.34 7.58687C499.518 7.66013 499.679 7.76775 499.816 7.90354C499.952 8.03934 500.06 8.20065 500.133 8.37824C500.207 8.55583 500.245 8.74622 500.245 8.93849C500.245 9.13076 500.207 9.32113 500.133 9.49872C500.06 9.67631 499.952 9.83762 499.816 9.97342C499.679 10.1092 499.518 10.2168 499.34 10.2901C499.162 10.3634 498.972 10.4008 498.78 10.4004Z" fill="#3F3D56"/>
<path d="M498.78 15.8826H479.044C478.852 15.883 478.661 15.8455 478.483 15.7723C478.306 15.699 478.144 15.5914 478.008 15.4556C477.872 15.3198 477.764 15.1585 477.69 14.9809C477.616 14.8033 477.578 14.6129 477.578 14.4207C477.578 14.2284 477.616 14.038 477.69 13.8604C477.764 13.6828 477.872 13.5215 478.008 13.3857C478.144 13.2499 478.306 13.1423 478.483 13.069C478.661 12.9958 478.852 12.9583 479.044 12.9587H498.78C498.972 12.9583 499.162 12.9958 499.34 13.069C499.518 13.1423 499.679 13.2499 499.816 13.3857C499.952 13.5215 500.06 13.6828 500.133 13.8604C500.207 14.038 500.245 14.2284 500.245 14.4207C500.245 14.6129 500.207 14.8033 500.133 14.9809C500.06 15.1585 499.952 15.3198 499.816 15.4556C499.679 15.5914 499.518 15.699 499.34 15.7723C499.162 15.8455 498.972 15.883 498.78 15.8826Z" fill="#3F3D56"/>
<path d="M489.662 323.748H299.832C298.352 323.746 296.932 323.158 295.886 322.111C294.839 321.064 294.25 319.645 294.249 318.165V70.907C294.25 69.4267 294.839 68.0076 295.886 66.9609C296.932 65.9142 298.352 65.3254 299.832 65.3237H489.662C491.143 65.3254 492.562 65.9142 493.608 66.9609C494.655 68.0076 495.244 69.4267 495.246 70.907V318.165C495.244 319.645 494.655 321.064 493.608 322.111C492.562 323.158 491.143 323.746 489.662 323.748ZM299.832 66.9189C298.775 66.9202 297.761 67.3408 297.013 68.0884C296.266 68.836 295.845 69.8497 295.844 70.907V318.165C295.845 319.222 296.266 320.236 297.013 320.983C297.761 321.731 298.775 322.152 299.832 322.153H489.662C490.72 322.152 491.733 321.731 492.481 320.983C493.229 320.236 493.649 319.222 493.65 318.165V70.907C493.649 69.8497 493.229 68.836 492.481 68.0884C491.733 67.3408 490.72 66.9202 489.662 66.9189H299.832Z" fill="#E6E6E6"/>
<path d="M431.607 173.638H351.049C349.568 173.636 348.149 173.048 347.103 172.001C346.056 170.954 345.467 169.535 345.465 168.055V105.044C345.467 103.564 346.056 102.145 347.102 101.098C348.149 100.051 349.568 99.4624 351.049 99.4607H431.607C433.087 99.4624 434.506 100.051 435.553 101.098C436.6 102.145 437.188 103.564 437.19 105.044V168.055C437.188 169.535 436.6 170.954 435.553 172.001C434.506 173.048 433.087 173.636 431.607 173.638Z" fill="#E6E6E6"/>
<path d="M431.437 279.082H350.879C349.398 279.08 347.979 278.492 346.932 277.445C345.886 276.398 345.297 274.979 345.295 273.499V210.488C345.297 209.008 345.886 207.589 346.932 206.542C347.979 205.495 349.398 204.907 350.879 204.905H431.437C432.917 204.907 434.336 205.495 435.383 206.542C436.43 207.589 437.018 209.008 437.02 210.488V273.499C437.018 274.979 436.43 276.398 435.383 277.445C434.336 278.492 432.917 279.08 431.437 279.082ZM350.879 206.5C349.821 206.501 348.808 206.922 348.06 207.669C347.312 208.417 346.892 209.431 346.891 210.488V273.499C346.892 274.556 347.312 275.57 348.06 276.318C348.808 277.065 349.821 277.486 350.879 277.487H431.437C432.494 277.486 433.508 277.065 434.255 276.318C435.003 275.57 435.424 274.556 435.425 273.499V210.488C435.424 209.431 435.003 208.417 434.255 207.669C433.508 206.922 432.494 206.501 431.437 206.5H350.879Z" fill="#3F3D56"/>
<path d="M453.77 296.63H373.212C371.732 296.628 370.312 296.039 369.266 294.993C368.219 293.946 367.63 292.527 367.629 291.047V228.036C367.63 226.555 368.219 225.136 369.266 224.09C370.312 223.043 371.732 222.454 373.212 222.452H453.77C455.25 222.454 456.669 223.043 457.716 224.09C458.763 225.136 459.352 226.555 459.353 228.036V291.047C459.352 292.527 458.763 293.946 457.716 294.993C456.669 296.039 455.25 296.628 453.77 296.63Z" fill="#EF6D53"/>
<path d="M422.528 278.18H382.086C382.035 278.181 381.984 278.177 381.935 278.168L401.062 245.037C401.179 244.83 401.348 244.659 401.553 244.539C401.758 244.42 401.991 244.357 402.228 244.357C402.465 244.357 402.698 244.42 402.902 244.539C403.107 244.659 403.277 244.83 403.393 245.037L416.23 267.271L416.845 268.335L422.528 278.18Z" fill="white"/>
<path opacity="0.2" d="M422.528 278.181H408.721L415.499 268.335L415.987 267.626L416.23 267.271L416.845 268.335L422.528 278.181Z" fill="black"/>
<path d="M445.047 278.18H410.067L416.845 268.335L417.333 267.625L426.166 254.794C426.322 254.598 426.518 254.437 426.74 254.322C426.963 254.206 427.207 254.139 427.457 254.124C427.707 254.109 427.958 254.147 428.193 254.235C428.427 254.323 428.641 254.46 428.819 254.636C428.865 254.686 428.907 254.739 428.946 254.794L445.047 278.18Z" fill="white"/>
<path d="M443.408 244.908C446.717 244.908 449.4 242.226 449.4 238.917C449.4 235.608 446.717 232.926 443.408 232.926C440.1 232.926 437.417 235.608 437.417 238.917C437.417 242.226 440.1 244.908 443.408 244.908Z" fill="white"/>
<path d="M217.386 323.676H27.5559C26.0757 323.674 24.6565 323.086 23.6099 322.039C22.5632 320.992 21.9744 319.573 21.9727 318.093V255.082C21.9744 253.602 22.5632 252.183 23.6099 251.136C24.6565 250.089 26.0757 249.501 27.5559 249.499H217.386C218.867 249.501 220.286 250.089 221.332 251.136C222.379 252.183 222.968 253.602 222.97 255.082V318.093C222.968 319.573 222.379 320.992 221.332 322.039C220.286 323.086 218.867 323.674 217.386 323.676Z" fill="#E6E6E6"/>
<path d="M216.589 233.546H26.7583C25.2781 233.545 23.8589 232.956 22.8123 231.909C21.7656 230.863 21.1768 229.443 21.175 227.963V74.0251C21.1767 72.5449 21.7655 71.1257 22.8122 70.079C23.8589 69.0323 25.278 68.4436 26.7583 68.4419H216.589C218.069 68.4436 219.488 69.0324 220.535 70.0791C221.581 71.1258 222.17 72.5449 222.172 74.0251V227.963C222.17 229.443 221.581 230.863 220.535 231.909C219.488 232.956 218.069 233.545 216.589 233.546ZM26.7583 70.0371C25.701 70.0384 24.6873 70.4589 23.9397 71.2065C23.1921 71.9542 22.7715 72.9678 22.7703 74.0251V227.963C22.7715 229.021 23.1921 230.034 23.9397 230.782C24.6873 231.529 25.701 231.95 26.7583 231.951H216.589C217.646 231.95 218.66 231.529 219.407 230.782C220.155 230.034 220.575 229.021 220.577 227.963V74.0251C220.575 72.9678 220.155 71.9542 219.407 71.2065C218.66 70.4589 217.646 70.0384 216.589 70.0371H26.7583Z" fill="#3F3D56"/>
<path d="M247.695 261.463H57.865C56.3848 261.461 54.9657 260.872 53.919 259.825C52.8723 258.779 52.2835 257.36 52.2817 255.879V101.941C52.2835 100.461 52.8723 99.042 53.9189 97.9954C54.9656 96.9487 56.3847 96.3599 57.865 96.3582H247.695C249.176 96.3599 250.595 96.9487 251.641 97.9954C252.688 99.042 253.277 100.461 253.279 101.941V255.879C253.277 257.36 252.688 258.779 251.641 259.825C250.595 260.872 249.176 261.461 247.695 261.463Z" fill="#EF6D53"/>
<path d="M174.438 223.576H77.5241C77.4028 223.578 77.2816 223.568 77.162 223.548L122.998 144.154C123.277 143.659 123.683 143.248 124.174 142.962C124.665 142.675 125.223 142.525 125.791 142.525C126.359 142.525 126.917 142.675 127.408 142.962C127.898 143.248 128.304 143.659 128.584 144.154L159.346 197.433L160.819 199.983L174.438 223.576Z" fill="white"/>
<path opacity="0.2" d="M174.437 223.576H141.349L157.592 199.982L158.761 198.283L159.346 197.433L160.82 199.982L174.437 223.576Z" fill="black"/>
<path d="M228.398 223.576H144.576L160.819 199.983L161.988 198.283L183.154 167.536C183.528 167.066 183.997 166.68 184.53 166.404C185.063 166.127 185.649 165.965 186.248 165.93C186.848 165.894 187.448 165.984 188.01 166.196C188.573 166.407 189.084 166.734 189.512 167.156C189.621 167.276 189.723 167.403 189.816 167.536L228.398 223.576Z" fill="white"/>
<path d="M222.65 142.22C230.579 142.22 237.007 135.793 237.007 127.864C237.007 119.934 230.579 113.507 222.65 113.507C214.721 113.507 208.293 119.934 208.293 127.864C208.293 135.793 214.721 142.22 222.65 142.22Z" fill="white"/>
<path d="M288.173 253.429C289.467 252.717 290.968 252.479 292.419 252.755L315.167 231.498L311.391 212.543L326.326 213.353L327.661 236.359L297.567 259.795C297.435 260.88 297.026 261.913 296.38 262.795C295.734 263.676 294.872 264.377 293.877 264.83C292.883 265.282 291.788 265.472 290.699 265.38C289.61 265.288 288.562 264.917 287.658 264.304C286.753 263.691 286.021 262.856 285.532 261.878C285.042 260.901 284.813 259.814 284.864 258.722C284.916 257.63 285.248 256.57 285.827 255.643C286.406 254.716 287.214 253.954 288.173 253.429Z" fill="#FFB8B8"/>
<path d="M263.055 413.436H253.276L248.624 375.719H263.056L263.055 413.436Z" fill="#FFB6B6"/>
<path d="M265.548 422.915L234.018 422.914V422.515C234.018 419.26 235.311 416.139 237.613 413.837C239.914 411.536 243.036 410.243 246.291 410.243L265.549 410.243L265.548 422.915Z" fill="#2F2E41"/>
<path d="M336.434 413.436H326.656L322.004 375.719H336.436L336.434 413.436Z" fill="#FFB6B6"/>
<path d="M338.928 422.915L307.398 422.914V422.515C307.398 419.26 308.691 416.139 310.993 413.837C313.294 411.536 316.416 410.243 319.67 410.243L338.929 410.243L338.928 422.915Z" fill="#2F2E41"/>
<path d="M318.6 201.381C317.42 199.89 315.745 198.87 313.879 198.506C312.013 198.142 310.078 198.457 308.423 199.394C306.788 200.321 305.533 201.796 304.88 203.559C304.227 205.321 304.218 207.258 304.854 209.027L309.649 222.346L329.289 214.883L318.6 201.381Z" fill="#63A3B2"/>
<path d="M316.837 260.203C315.943 259.532 314.982 258.956 313.97 258.483L278.226 263.982L279.011 286.372C261.723 319.003 250.29 356.23 244.052 397.533L266.442 402.639C276.46 363.829 287.839 329.002 302.186 302.869L317.31 401.695L343.037 401.068C339.649 342.972 337.034 275.243 316.837 260.203Z" fill="#2F2E41"/>
<path d="M290.158 195.754C297.853 195.754 304.09 189.516 304.09 181.822C304.09 174.127 297.853 167.889 290.158 167.889C282.464 167.889 276.226 174.127 276.226 181.822C276.226 189.516 282.464 195.754 290.158 195.754Z" fill="#FFB8B8"/>
<path d="M320.796 217.623C321.433 213.77 320.807 209.814 319.011 206.347C317.214 202.879 314.343 200.086 310.828 198.385L295.116 199.171C292.558 199.833 290.186 201.07 288.178 202.788C286.171 204.506 284.582 206.659 283.532 209.084C276.722 225.022 275.752 245.401 278.619 268.696L315.834 259.843C310.729 248.351 314.832 233.343 320.796 217.623Z" fill="#63A3B2"/>
<path d="M272.883 178.424C272.883 176.538 273.254 174.671 273.976 172.93C274.697 171.188 275.755 169.605 277.088 168.272C278.421 166.939 280.004 165.881 281.745 165.16C283.487 164.438 285.354 164.067 287.24 164.067H288.063C290.663 161.999 293.888 160.874 297.21 160.876C301.123 160.876 304.876 162.431 307.644 165.198C310.411 167.966 311.965 171.719 311.965 175.632V194.376C302.425 194.138 291.62 196.019 280.061 199.162C282.974 191.092 284.911 183.673 283.588 178.424H272.883Z" fill="#2F2E41"/>
<path d="M243.371 243.03C244.848 243.028 246.28 243.54 247.42 244.479L277.583 236.768L283.381 218.331L296.089 226.218L286.205 247.036L248.551 253.127C247.914 254.015 247.059 254.725 246.069 255.187C245.078 255.65 243.986 255.85 242.896 255.769C241.806 255.688 240.755 255.328 239.844 254.724C238.933 254.12 238.193 253.292 237.694 252.319C237.195 251.347 236.954 250.263 236.995 249.17C237.036 248.078 237.357 247.015 237.927 246.082C238.497 245.149 239.297 244.379 240.25 243.844C241.203 243.31 242.278 243.029 243.371 243.03Z" fill="#FFB8B8"/>
<path d="M302.182 212.745C302.727 210.924 302.603 208.967 301.832 207.229C301.06 205.491 299.693 204.086 297.977 203.268C296.28 202.459 294.352 202.276 292.533 202.751C290.714 203.227 289.122 204.33 288.038 205.865L279.873 217.429L297.247 229.244L302.182 212.745Z" fill="#63A3B2"/>
<path d="M379.769 424.239H184.919C184.794 424.239 184.67 424.215 184.555 424.167C184.439 424.119 184.334 424.05 184.246 423.961C184.157 423.873 184.087 423.768 184.039 423.653C183.991 423.537 183.966 423.414 183.966 423.289C183.966 423.164 183.991 423.04 184.039 422.925C184.087 422.809 184.157 422.705 184.246 422.616C184.334 422.528 184.439 422.458 184.555 422.411C184.67 422.363 184.794 422.339 184.919 422.339H379.769C379.894 422.339 380.018 422.363 380.134 422.411C380.249 422.458 380.354 422.528 380.443 422.616C380.531 422.705 380.601 422.809 380.649 422.925C380.697 423.04 380.722 423.164 380.722 423.289C380.722 423.414 380.697 423.537 380.649 423.653C380.601 423.768 380.531 423.873 380.443 423.961C380.354 424.05 380.249 424.119 380.134 424.167C380.018 424.215 379.894 424.239 379.769 424.239Z" fill="#CACACA"/>
</g>
<defs>
<clipPath id="clip0_617_3638">
<rect width="519.445" height="425" fill="white"/>
</clipPath>
</defs>
</svg>
