<svg width="941" height="468" viewBox="0 0 941 468" fill="none" xmlns="http://www.w3.org/2000/svg">
<g clip-path="url(#clip0_60_12)">
<path d="M646.028 466.953V394.613C646.028 394.613 674.22 445.899 646.028 466.953Z" fill="#F1F1F1"/>
<path d="M647.769 466.94L594.479 418.019C594.479 418.019 651.325 431.935 647.769 466.94Z" fill="#F1F1F1"/>
<path d="M636.028 17.4297H0.271484V319.107H636.028V17.4297Z" fill="#E6E6E6"/>
<path d="M617.85 43.2991H18.4512V294.998H617.85V43.2991Z" fill="white"/>
<path d="M635.757 0H0V27.0089H635.757V0Z" fill="#EF6D53"/>
<path d="M20.0704 17.4988C22.8352 17.4988 25.0764 15.2576 25.0764 12.4928C25.0764 9.72811 22.8352 7.48685 20.0704 7.48685C17.3057 7.48685 15.0645 9.72811 15.0645 12.4928C15.0645 15.2576 17.3057 17.4988 20.0704 17.4988Z" fill="white"/>
<path d="M39.0724 17.4988C41.8371 17.4988 44.0784 15.2576 44.0784 12.4928C44.0784 9.72811 41.8371 7.48685 39.0724 7.48685C36.3077 7.48685 34.0664 9.72811 34.0664 12.4928C34.0664 15.2576 36.3077 17.4988 39.0724 17.4988Z" fill="white"/>
<path d="M58.0743 17.4988C60.8391 17.4988 63.0803 15.2576 63.0803 12.4928C63.0803 9.72811 60.8391 7.48685 58.0743 7.48685C55.3096 7.48685 53.0684 9.72811 53.0684 12.4928C53.0684 15.2576 55.3096 17.4988 58.0743 17.4988Z" fill="white"/>
<path d="M553.229 228.714V226.714H565.118L565.195 228.712L565.156 228.713L553.229 228.714ZM541.339 228.714H529.45V226.714H541.339V228.714ZM517.561 228.714H505.672V226.714H517.561V228.714ZM493.783 228.714H481.894V226.714H493.783V228.714ZM470.005 228.714H458.115V226.714H470.005V228.714ZM446.226 228.714H434.337V226.714H446.226V228.714ZM422.448 228.714H410.559V226.714H422.448V228.714ZM398.67 228.714H386.781V226.714H398.67V228.714ZM374.892 228.714H364.325C363.672 228.706 363.039 228.492 362.516 228.101L363.681 226.475C363.865 226.621 364.092 226.705 364.327 226.714H374.892L374.892 228.714ZM569.836 217.333H567.836V205.444H569.836V217.333ZM361.606 216.055H359.606V204.166H361.606V216.055ZM569.836 193.555H567.836V181.666H569.836V193.555ZM361.606 192.277H359.606V180.388H361.606V192.277ZM569.836 169.777H567.836V157.887H569.836V169.777ZM361.606 168.499H359.606V156.61H361.606V168.499ZM569.836 145.999H567.836V134.11H569.836V145.999ZM361.606 144.72H359.606V132.831H361.606V144.72ZM569.836 122.22H567.836V118.192C567.834 114.819 566.753 112.521 565.75 111.814L566.902 110.179C568.682 111.434 569.834 114.579 569.836 118.191V122.22ZM361.606 120.942H359.606V118.192C359.606 113.326 361.619 109.625 364.287 109.584L364.318 111.584C363.186 111.601 361.606 114.124 361.606 118.192V120.942ZM554.529 111.584H542.64V109.584H554.529V111.584ZM530.751 111.584H518.861V109.584H530.751V111.584ZM506.972 111.584H495.083V109.584H506.972V111.584ZM483.194 111.584H471.305V109.584H483.194V111.584ZM459.416 111.584H447.527V109.584H459.416V111.584ZM435.637 111.584H423.748V109.584H435.637V111.584ZM411.859 111.584H399.97V109.584H411.859V111.584ZM388.081 111.584H376.192V109.584H388.081V111.584Z" fill="#E4E4E4"/>
<path d="M200.35 116.623H77.7891V123.659H200.35V116.623Z" fill="#E6E6E6"/>
<path d="M267.05 142.287H77.7891V149.322H267.05V142.287Z" fill="#EF6D53"/>
<path d="M232.032 166.464H77.7891V173.5H232.032V166.464Z" fill="#E6E6E6"/>
<path d="M167.834 190.552H77.7891V197.588H167.834V190.552Z" fill="#E6E6E6"/>
<path d="M213.69 214.638H77.7891V221.674H213.69V214.638Z" fill="#E6E6E6"/>
<path d="M675.616 161.458C676.897 162.06 678.294 162.374 679.709 162.378C681.124 162.382 682.523 162.076 683.807 161.481C685.091 160.886 686.229 160.016 687.141 158.934C688.053 157.851 688.716 156.582 689.084 155.216L723.4 152.78L712.527 138.59L681.607 143.078C679.27 142.612 676.843 143.019 674.787 144.222C672.73 145.426 671.186 147.342 670.448 149.607C669.71 151.873 669.828 154.33 670.78 156.514C671.733 158.698 673.453 160.457 675.616 161.458Z" fill="#9E616A"/>
<path d="M809.328 139.818L820.134 133.566C823.369 131.694 825.773 128.665 826.862 125.09C827.95 121.515 827.642 117.66 826 114.303L826.37 114.184C824.766 111.091 822.146 108.645 818.951 107.256C815.756 105.868 812.18 105.622 808.825 106.56L692 137.654L696.224 165.646L809.328 139.818Z" fill="#63A3B2"/>
<path d="M703.661 270.001H502.868C500.816 269.996 499.152 266.594 499.149 262.393V160.48C499.149 156.28 500.816 152.879 502.868 152.872H703.661C705.713 152.877 707.377 156.279 707.379 160.48V262.392C707.377 266.592 705.71 269.996 703.661 270.001Z" fill="white"/>
<path d="M567.443 210.78C577.14 210.78 585.001 202.919 585.001 193.222C585.001 183.524 577.14 175.663 567.443 175.663C557.746 175.663 549.885 183.524 549.885 193.222C549.885 202.919 557.746 210.78 567.443 210.78Z" fill="#3F3D56"/>
<path d="M622.504 247.328H536.369C536.262 247.33 536.154 247.321 536.048 247.302L576.787 176.74C577.036 176.3 577.397 175.934 577.833 175.68C578.269 175.425 578.765 175.291 579.27 175.291C579.775 175.291 580.271 175.425 580.707 175.68C581.143 175.934 581.504 176.3 581.753 176.74L609.093 224.093L610.403 226.358L622.504 247.328Z" fill="#EF6D53"/>
<path d="M670.461 247.329H595.961L610.397 226.361L611.436 224.851L630.248 197.524C630.58 197.106 630.997 196.762 631.471 196.516C631.946 196.27 632.466 196.126 633 196.094C633.533 196.062 634.067 196.143 634.567 196.331C635.067 196.519 635.522 196.811 635.902 197.186C635.999 197.293 636.09 197.406 636.173 197.524L670.461 247.329Z" fill="#EF6D53"/>
<path d="M703.661 270.001H502.868C500.816 269.996 499.152 266.594 499.149 262.393V160.48C499.149 156.28 500.816 152.879 502.868 152.872H703.661C705.713 152.877 707.377 156.279 707.379 160.48V262.392C707.377 266.592 705.71 269.996 703.661 270.001ZM502.868 155.915C501.636 155.915 500.638 157.96 500.636 160.48V262.392C500.636 264.912 501.636 266.955 502.868 266.957H703.661C704.893 266.957 705.891 264.913 705.892 262.392V160.48C705.892 157.96 704.893 155.917 703.661 155.915H502.868Z" fill="#E6E6E6"/>
<path d="M801.767 86.4157C814.869 86.4157 825.49 75.7943 825.49 62.6921C825.49 49.5899 814.869 38.9685 801.767 38.9685C788.664 38.9685 778.043 49.5899 778.043 62.6921C778.043 75.7943 788.664 86.4157 801.767 86.4157Z" fill="#9E616A"/>
<path d="M818.555 81.4611C814.129 86.1755 805.91 83.6447 805.333 77.2042C805.288 76.7042 805.291 76.2009 805.343 75.7016C805.64 72.8487 807.289 70.2586 806.894 67.2464C806.804 66.4967 806.525 65.7823 806.082 65.1708C802.556 60.4481 794.277 67.2831 790.948 63.0078C788.907 60.3863 791.307 56.2589 789.74 53.3289C787.673 49.4618 781.551 51.3695 777.711 49.2517C773.439 46.8954 773.695 40.341 776.507 36.3542C779.936 31.4922 785.949 28.8979 791.887 28.524C797.825 28.1501 803.722 29.7553 809.266 31.9158C815.565 34.3704 821.811 37.7629 825.687 43.3014C830.401 50.0368 830.854 59.0919 828.497 66.9677C827.063 71.7587 822.169 77.6113 818.555 81.4611Z" fill="#2F2E41"/>
<path d="M815.218 455.858H803.985L798.641 412.531L815.22 412.532L815.218 455.858Z" fill="#9E616A"/>
<path d="M818.083 466.747L781.863 466.745V466.287C781.864 462.548 783.349 458.963 785.993 456.319C788.636 453.675 792.222 452.19 795.961 452.19L818.083 452.191L818.083 466.747Z" fill="#2F2E41"/>
<path d="M725.742 455.491L714.815 452.884L719.67 409.5L735.796 413.347L725.742 455.491Z" fill="#9E616A"/>
<path d="M726.002 466.747L690.771 458.342L690.878 457.897C691.745 454.26 694.022 451.117 697.207 449.158C700.392 447.2 704.225 446.587 707.861 447.455L729.38 452.588L726.002 466.747Z" fill="#2F2E41"/>
<path d="M754.068 233.752L710.035 441.357L737.613 439.688L785.16 322.029L792.326 440.812L822.449 442.596L822.081 270.55C822.081 270.55 834.648 243.5 823.75 228.733C812.853 213.967 754.068 233.752 754.068 233.752Z" fill="#2F2E41"/>
<path d="M819.693 94.5945L793.01 94H789.792C776.982 104.436 771.6 127.66 769.801 144.084L750.555 241.904C750.555 241.904 799.294 255.808 826.996 239.578L828.545 175.468C828.545 175.468 835.385 110.286 819.693 94.5945Z" fill="#63A3B2"/>
<path d="M691.925 239.365C693.336 239.26 694.707 238.847 695.942 238.155C697.176 237.463 698.244 236.508 699.069 235.359C699.895 234.21 700.459 232.893 700.721 231.502C700.983 230.111 700.936 228.68 700.585 227.309L729.272 208.32L712.828 201.308L688.107 220.415C685.843 221.158 683.93 222.705 682.731 224.764C681.531 226.822 681.128 229.25 681.599 231.586C682.069 233.921 683.38 236.004 685.284 237.437C687.187 238.871 689.55 239.557 691.925 239.365Z" fill="#9E616A"/>
<path d="M810.817 138.008L817.153 127.252C819.05 124.032 819.655 120.212 818.846 116.564C818.037 112.915 815.873 109.709 812.793 107.594C809.958 105.646 806.531 104.75 803.105 105.06C799.679 105.37 796.469 106.867 794.03 109.293L692.165 210.564L709.603 232.864L810.817 138.008Z" fill="#63A3B2"/>
<path d="M939.221 467.484H558.221C557.955 467.484 557.701 467.378 557.514 467.191C557.326 467.003 557.221 466.749 557.221 466.484C557.221 466.219 557.326 465.964 557.514 465.777C557.701 465.589 557.955 465.484 558.221 465.484H939.221C939.486 465.484 939.74 465.589 939.928 465.777C940.115 465.964 940.221 466.219 940.221 466.484C940.221 466.749 940.115 467.003 939.928 467.191C939.74 467.378 939.486 467.484 939.221 467.484Z" fill="#CACACA"/>
<path d="M466.694 160.998H464.155V179.937H466.694V160.998Z" fill="#E4E4E4"/>
<path d="M475.806 169.409L473.946 171.141L465.426 161.973L456.904 171.141L455.045 169.409L465.426 158.246L475.806 169.409Z" fill="#E4E4E4"/>
<path d="M464.721 189.456C460.705 189.456 456.779 188.265 453.439 186.033C450.1 183.802 447.497 180.631 445.96 176.92C444.423 173.209 444.021 169.126 444.804 165.187C445.588 161.248 447.522 157.629 450.362 154.789C453.202 151.949 456.82 150.015 460.76 149.232C464.699 148.448 468.782 148.85 472.492 150.387C476.203 151.924 479.375 154.527 481.606 157.867C483.837 161.206 485.028 165.132 485.028 169.149C485.022 174.533 482.881 179.694 479.074 183.501C475.267 187.308 470.105 189.45 464.721 189.456ZM464.721 151.38C461.207 151.38 457.771 152.422 454.849 154.375C451.927 156.327 449.65 159.102 448.305 162.349C446.96 165.596 446.608 169.168 447.294 172.615C447.979 176.062 449.672 179.228 452.157 181.713C454.642 184.198 457.808 185.89 461.255 186.576C464.701 187.262 468.274 186.91 471.521 185.565C474.768 184.22 477.543 181.942 479.495 179.02C481.448 176.098 482.49 172.663 482.49 169.149C482.485 164.438 480.611 159.921 477.28 156.59C473.949 153.259 469.432 151.385 464.721 151.38Z" fill="#E4E4E4"/>
</g>
<defs>
<clipPath id="clip0_60_12">
<rect width="940.221" height="467.484" fill="white"/>
</clipPath>
</defs>
</svg>
