<svg width="40" height="40" viewBox="0 0 40 40" fill="none" xmlns="http://www.w3.org/2000/svg">
<path d="M35 13.0769L32.3846 15.7692C31.9231 16.2307 31.6923 16.7692 31.6923 17.3846V30.7692C31.6923 31.3846 31.1538 31.923 30.5385 31.923H9.76923C9.15385 31.923 8.61538 31.3846 8.61538 30.7692V9.99994C8.61538 9.38456 9.15385 8.8461 9.76923 8.8461H23.2308C23.8462 8.8461 24.4615 8.61533 24.8462 8.15379L27.4615 5.53841C27.9231 5.07687 27.6154 4.23071 26.9231 4.23071H7.07692C5.38462 4.23071 4 5.61533 4 7.30764V33.4615C4 35.1538 5.38462 36.5384 7.07692 36.5384H33.2308C34.9231 36.5384 36.3077 35.1538 36.3077 33.4615V13.6153C36.3077 12.923 35.4615 12.6153 35 13.0769Z" fill="black"/>
<path d="M14.5385 23.6153L17.3846 26.4615C17.5385 26.6153 17.6923 26.6153 17.8462 26.4615L32.7692 11.1538C32.9231 10.9999 32.9231 10.8461 32.7692 10.6922L30 7.923C29.8462 7.76916 29.6923 7.76916 29.5385 7.923L14.5385 23.1538C14.3846 23.3076 14.3846 23.4615 14.5385 23.6153Z" fill="black"/>
<path d="M30.8462 6.61523C30.6923 6.76908 30.6923 6.92293 30.8462 7.07677L33.6154 9.846C33.7692 9.99985 33.9231 9.99985 34.0769 9.846L36 7.92293C36.5385 7.46139 36.5385 6.69216 36 6.1537L34.6154 4.76908C34.0769 4.23062 33.3077 4.23062 32.7692 4.76908C32.6923 4.76908 30.8462 6.61523 30.8462 6.61523Z" fill="black"/>
<path d="M12 28.3845C11.9231 28.6922 12.2308 28.9999 12.5385 28.923C13 28.7691 13.5385 28.6922 14 28.5383C14.3846 28.4614 14.7692 28.3845 15.1538 28.2306C15.5385 28.1537 15.9231 28.0768 16.2308 27.923C16.3846 27.846 16.6923 27.5383 16.4615 27.3076L13.5385 24.3845C13.3077 24.1537 13.0769 24.3845 13 24.5383C12.7692 24.846 12.6923 25.3076 12.6154 25.6153C12.5385 25.9999 12.3846 26.3845 12.3077 26.7691C12.2308 27.4614 12.1538 27.923 12 28.3845Z" fill="black"/>
</svg>
