<svg width="20" height="20" viewBox="0 0 20 20" fill="none" xmlns="http://www.w3.org/2000/svg">
<g clip-path="url(#clip0_239_1135)">
<path d="M1.41439 0H18.5856C18.9746 0 19.3294 0.160472 19.585 0.417554C19.8405 0.674636 20 1.0316 20 1.42296V18.577C20 18.9684 19.8405 19.3254 19.585 19.5824C19.3294 19.8395 18.9746 20 18.5856 20H1.41439C1.02539 20 0.670573 19.8395 0.415039 19.5824C0.159505 19.3254 0 18.9684 0 18.577V1.42296C0 1.0316 0.159505 0.674636 0.415039 0.417554C0.670573 0.160472 1.02539 0 1.41439 0ZM1.14258 14.4588L7.24772 8.90945C7.48047 8.69822 7.84017 8.71623 8.05013 8.95039C8.05501 8.9553 8.05827 8.96021 8.06315 8.96512L8.06478 8.96348L13.1836 15.0581L13.9681 10.2129C14.0186 9.90011 14.3115 9.68888 14.6224 9.73964C14.7445 9.75929 14.8503 9.8166 14.9316 9.89684L18.8623 13.6925V1.42296C18.8623 1.34763 18.8314 1.2805 18.7826 1.22974C18.7337 1.18061 18.6654 1.1495 18.5905 1.1495H1.41439C1.33952 1.1495 1.27279 1.18061 1.22233 1.22974C1.1735 1.27886 1.14258 1.34763 1.14258 1.42296V14.4588ZM18.8574 15.2808L14.9154 11.4737L14.1097 16.4533C14.0918 16.5892 14.0251 16.7202 13.9128 16.8168C13.6719 17.0215 13.3138 16.9903 13.1104 16.7496L7.57161 10.1556L1.14258 16.0013V18.577C1.14258 18.6524 1.1735 18.7195 1.22233 18.7703C1.27279 18.821 1.33952 18.8505 1.41439 18.8505H18.5856C18.6605 18.8505 18.7272 18.8194 18.7777 18.7703C18.8265 18.7211 18.8574 18.6524 18.8574 18.577V15.2808ZM15.0716 3.25201C15.638 3.25201 16.1491 3.48289 16.5202 3.85623C16.8913 4.22957 17.1208 4.74537 17.1208 5.31357C17.1208 5.88178 16.8913 6.39758 16.5202 6.77092C16.1491 7.14426 15.6364 7.37514 15.0716 7.37514C14.5052 7.37514 13.9941 7.14426 13.623 6.77092C13.252 6.39758 13.0225 5.88178 13.0225 5.31357C13.0225 4.74537 13.252 4.22957 13.623 3.85623C13.9941 3.48289 14.5052 3.25201 15.0716 3.25201ZM15.8822 4.49812C15.6755 4.29016 15.389 4.1608 15.0716 4.1608C14.7559 4.1608 14.4694 4.29016 14.2611 4.49812C14.0544 4.70607 13.9258 4.99427 13.9258 5.31357C13.9258 5.63124 14.0544 5.91944 14.2611 6.12903C14.4678 6.33699 14.7542 6.46635 15.0716 6.46635C15.3874 6.46635 15.6738 6.33699 15.8822 6.12903C16.0889 5.92107 16.2174 5.63288 16.2174 5.31357C16.2174 4.99591 16.0889 4.70771 15.8822 4.49812Z" fill="black"/>
</g>
<defs>
<clipPath id="clip0_239_1135">
<rect width="20" height="20" fill="white"/>
</clipPath>
</defs>
</svg>
