<svg width="134" height="103" viewBox="0 0 134 103" fill="none" xmlns="http://www.w3.org/2000/svg">
<path fill-rule="evenodd" clip-rule="evenodd" d="M43.9991 36.5325C44.1883 36.5213 44.2204 36.6366 44.4209 36.6174C44.1178 36.8879 43.8515 37.1857 43.3655 37.3042C43.4072 36.9087 43.9237 36.9007 43.9991 36.5325Z" fill="#EF6D53"/>
<path fill-rule="evenodd" clip-rule="evenodd" d="M79.4205 39.7088C78.5287 39.8977 77.4509 39.9377 76.5751 40.1378C76.7884 39.5487 77.8182 39.7136 78.4726 39.7088C78.8238 39.7072 79.1125 39.5519 79.4205 39.7088Z" fill="#EF6D53"/>
<path fill-rule="evenodd" clip-rule="evenodd" d="M79.5247 39.8816C79.7637 39.7199 80.6491 39.7631 80.8961 39.8816C80.5352 40.1409 79.9915 39.8191 79.5247 39.8816Z" fill="#EF6D53"/>
<path fill-rule="evenodd" clip-rule="evenodd" d="M75.9415 39.9666C76.0714 40.005 76.158 40.077 76.1516 40.2243C74.0841 40.916 72.1048 41.6797 71.7247 43.7466C71.6301 43.7082 71.5355 43.6713 71.513 43.5753C70.0326 45.1171 69.3653 47.3217 68.4559 49.3294C68.4944 49.443 68.642 49.4639 68.6676 49.5871C71.0831 49.0652 74.6904 49.3774 76.4676 48.127C76.7964 48.4552 75.7779 48.42 75.8356 48.8138C75.7875 49.0828 75.927 49.1981 76.2574 49.1581C76.0024 49.4014 75.6544 49.0716 75.3079 49.0716C74.4819 49.0716 73.2853 49.5999 72.0407 49.6736C71.5435 49.7024 71.019 49.632 70.5651 49.6736C69.4952 49.7713 68.735 50.3012 68.0341 50.4453C67.9731 50.1379 68.1576 50.0306 68.2458 49.8449C68.2907 49.7056 67.8528 49.5567 67.8239 49.7584C67.8961 49.2013 68.0276 48.6457 68.2458 48.127C68.658 47.144 69.3814 46.3274 69.9315 45.2932C70.0005 45.1635 70.1849 45.0898 70.2491 44.949C70.302 44.8321 70.1865 44.6336 70.2491 44.5199C70.7062 43.6745 71.582 42.9589 72.0407 42.1151C73.2388 41.3146 74.2429 40.3588 75.9415 39.9666Z" fill="#EF6D53"/>
<path fill-rule="evenodd" clip-rule="evenodd" d="M21.7557 42.9731C22.0925 43.0708 22.2497 43.3158 22.2818 43.66C22.0155 43.5063 21.8856 43.2389 21.7557 42.9731Z" fill="#EF6D53"/>
<path fill-rule="evenodd" clip-rule="evenodd" d="M72.6742 62.6433C73.3126 62.9539 73.7328 63.4406 74.5717 63.5879C73.7713 63.7993 72.6742 63.0852 72.6742 62.6433Z" fill="#EF6D53"/>
<mask id="mask0_232_633" style="mask-type:luminance" maskUnits="userSpaceOnUse" x="15" y="26" width="76" height="77">
<path d="M15.3208 26.6284H90.1781V102.08H15.3208V26.6284Z" fill="white"/>
</mask>
<g mask="url(#mask0_232_633)">
<path fill-rule="evenodd" clip-rule="evenodd" d="M46.4243 44.9488C46.45 44.8495 46.9825 45.0592 47.0563 45.2065C47.0563 45.6644 46.5141 45.6804 46.3185 45.9798C45.494 47.0845 45.4331 48.7112 46.2126 50.1889C46.5366 50.7989 47.1381 51.4249 47.584 52.163C48.418 53.5479 49.1221 55.1297 50.2192 56.2873C50.6202 56.3561 50.354 55.8806 50.431 55.6853C50.7694 55.1889 51.0565 54.6494 51.1688 53.9674C51.6259 53.8249 51.7446 53.407 51.9066 53.0228C52.7567 52.4848 53.3629 51.7467 54.12 51.1335C54.112 50.9975 54.1713 50.8053 54.0141 50.7893C54.2451 50.6901 54.3975 50.53 54.6477 50.4451C54.5001 49.9824 55.0214 49.6654 55.0679 49.4156C55.1882 48.7752 54.9059 48.0003 54.5418 47.44C53.5057 45.8421 51.5842 44.1531 50.957 42.544C50.9073 41.5018 51.1656 40.7861 51.3789 39.6237C51.9595 38.9801 52.5642 38.3557 53.4881 37.9907C53.0069 39.1034 52.0333 39.7262 52.1167 40.9974C52.176 41.8908 52.7406 42.56 52.9604 43.4022C54.0719 44.8159 55.5283 45.9478 56.6494 47.3535C57.0456 46.806 56.9141 46.1463 56.967 45.4643C57.1466 43.1044 57.2557 40.1473 56.2292 38.3349C56.4361 37.6481 55.6614 37.5072 55.9116 37.0461C54.6365 35.4323 53.889 33.6455 54.12 31.7211C54.2868 30.3314 54.9252 29.3692 55.8057 28.4566C56.2757 27.9715 56.8387 27.4111 57.0712 26.6538C57.8652 27.0829 56.8643 27.5616 56.8611 28.1139C55.4513 28.7688 55.6405 30.7268 55.1738 32.1501C55.4817 32.5328 55.2973 32.9747 55.3855 33.3525C55.841 35.3426 57.5877 36.5866 58.0208 38.5927C58.4346 38.5286 58.5228 38.2004 58.5469 37.8194C59.0473 37.4543 59.4274 36.9901 59.7065 36.4457C60.4459 35.8453 61.3489 35.3778 61.9216 34.6413C62.8615 34.39 64.1141 33.5398 65.4005 33.3525C66.4607 33.1988 67.893 33.2484 68.14 34.2971C67.5578 34.4908 66.6724 34.2523 66.2442 34.0394C64.7445 34.4028 63.1165 34.9199 62.1317 35.9302C62.9801 36.0454 64.0885 36.2488 64.9787 36.015C64.7782 36.569 63.9521 36.9084 63.503 36.9596C63.1421 37.0029 62.8278 36.7499 62.2375 36.7883C60.4652 36.9052 59.1772 38.9833 58.9703 40.4819C58.8821 41.1143 59.012 41.8316 59.0746 42.4576C59.2542 44.2331 58.9062 46.9773 58.2325 48.7272C58.1379 48.9722 57.9021 49.1867 57.8107 49.4156C57.4033 50.4291 56.9959 51.4313 56.335 52.3359C55.2043 53.8793 53.1897 54.9952 53.2779 56.8876C53.703 56.806 53.8409 56.489 54.0157 56.2008C55.1465 55.9206 55.5684 55.0609 56.967 54.9984C59.243 53.8729 61.1998 53.977 62.8711 53.1941C63.5303 52.8851 63.8992 52.3007 64.5568 51.9052C64.9578 51.6667 65.378 51.6395 65.7165 51.3049C67.2611 49.7807 67.6476 47.8626 68.8794 45.8069C69.1762 45.3138 69.6349 44.8447 69.9332 44.3468C70.5379 43.3397 70.8731 42.6273 71.7248 41.8572C73.0272 40.682 74.6841 39.8559 77.1012 39.366C77.6337 39.2587 78.8479 39.1771 79.8423 39.2795C80.3877 39.3356 80.6443 39.5757 81.3195 39.6237C82.0606 39.675 82.5514 39.4732 83.0053 39.4508C83.1336 39.8703 82.7679 39.8879 82.6893 40.1393C80.1727 40.3874 77.685 40.0864 75.6256 40.7397C74.9359 40.959 74.1644 41.4217 73.6239 41.7707C73.1651 42.0653 72.6727 42.4576 72.4626 42.8866C73.8468 42.3823 75.4139 43.6439 76.6794 43.2309C76.6473 43.6631 76.2479 43.7944 75.9416 44.0042C74.3954 43.7448 72.538 43.3974 71.5147 44.2619C71.0479 44.8671 70.5026 45.6884 70.1449 46.4954C69.7808 47.3135 69.4905 48.138 69.1954 49.0714C71.2581 48.9065 73.9398 48.9289 75.7314 48.1268C76.0827 47.9699 76.4195 47.6897 76.7852 47.44C77.1333 47.203 77.5487 47.0445 77.8406 46.838C78.2352 46.5594 78.6041 45.999 79.1045 45.7221C79.4959 45.5059 80.2642 45.0881 80.7919 45.7221C80.6796 46.0311 79.9899 45.871 79.8423 46.1511C78.8912 47.1502 77.9433 48.154 76.365 48.6423C77.0258 49.5213 79.0853 49.3964 79.7381 48.8137C79.7734 49.4733 79.0949 49.5501 78.7885 49.9312C77.6866 50.0625 76.596 50.0336 75.9432 49.5869C75.2871 49.6686 74.1788 49.4797 73.7281 49.9312C72.7465 49.976 71.4377 50.0208 70.5652 50.1889C67.5947 50.7589 66.7815 53.4214 64.4526 54.6542C65.6154 55.1553 66.9435 55.277 68.0358 55.7717C68.5827 56.0183 68.8987 56.585 69.6172 56.545C70.2813 57.2623 71.1009 57.6001 72.2525 58.0052C72.8716 58.2213 73.7217 58.5559 74.6777 58.6055C75.6368 58.6552 76.8991 58.5431 77.9449 58.3478C78.1662 58.3062 78.3619 58.1476 78.5784 58.09C79.0003 57.9763 79.4686 58.0308 79.8439 57.9187C80.6876 57.6641 81.3019 57.083 82.0574 56.8012C82.3701 56.6843 82.7936 56.6459 83.1111 56.5434C83.8698 56.3001 85.1401 55.9174 86.1683 55.7701C86.6751 55.6981 87.129 55.6597 87.6439 55.6853C88.8436 55.7445 90.284 56.3385 89.8589 57.3167C89.5028 57.2062 89.5108 56.798 89.1211 56.7163C87.3006 56.4025 84.9669 57.0686 83.217 57.8322C83.0422 57.9091 82.6685 57.9715 82.4792 58.09C82.2627 58.2245 81.974 58.7016 81.9515 58.5191C81.9724 58.7 83.7591 59.326 84.0607 59.5502C84.4905 59.8704 84.6301 60.3651 84.9044 60.839C85.1113 61.1976 85.5443 61.2424 85.6422 61.6971C84.2804 62.1358 84.1906 60.9975 83.7447 60.5812C83.618 60.4627 83.2475 60.3058 83.0069 60.1521C82.399 59.7647 81.488 59.4717 80.2658 59.6366C79.775 59.7022 79.3772 59.96 78.8944 60.0657C76.612 60.5684 73.8484 60.554 71.8323 59.8944C71.6205 61.5578 73.1443 62.5441 74.4675 63.2437C75.053 63.3206 75.2487 63.0788 75.733 63.0724C75.7234 64.0058 74.4611 64.1371 73.4137 63.8457C73.1828 63.7817 73.2485 63.7448 72.9919 63.5879C72.4482 63.2565 72.1434 63.0644 71.6205 62.5569C71.489 62.4288 71.3479 62.2911 71.1987 62.1278C71.0929 62.0109 70.8378 61.8684 70.7785 61.7836C70.3438 61.18 70.2893 60.3859 69.829 59.7231C69.7343 59.587 69.4937 59.4893 69.3013 59.294C68.78 58.7592 68.6661 58.6216 67.8256 58.09C67.2226 57.709 66.7702 57.2447 66.034 57.0606C65.3427 56.8876 64.1655 56.8476 63.2929 56.8028C60.6111 56.6651 58.9078 57.1998 56.967 58.0052C56.5644 58.5351 55.7528 58.7336 55.2813 59.2075C54.9974 59.4909 54.999 59.8992 54.5434 60.0657C52.7583 64.1755 51.8713 69.2188 51.3805 74.1531C51.1976 75.9943 51.2024 77.7987 51.3805 79.4782C51.597 81.5067 52.4455 84.3325 53.6998 86.3498C53.9307 86.7212 54.1152 87.1167 54.3317 87.4657C55.4032 89.1868 56.3559 90.6437 57.9165 91.9326C58.6976 91.9534 59.1676 92.2304 59.6039 92.533C60.2968 92.4625 60.6593 92.7907 61.2912 92.8772C63.2143 93.1413 65.4005 92.2352 67.1937 92.1039C68.3245 92.0206 70.2043 92.1343 70.1465 93.1349C69.4905 93.0725 68.7046 92.8852 67.9315 92.962C66.2233 93.1333 64.5312 94.1628 62.9769 94.0795C63.3474 94.5999 64.1847 94.5919 64.7701 94.8528C65.3315 95.1026 65.7662 95.5797 66.4559 95.6245C67.0638 96.3034 68.0951 96.638 68.4592 97.5154C68.2523 97.9204 68.4688 98.6681 68.1432 98.9755C67.4984 98.5848 67.3797 97.7651 66.7719 97.3424C64.9081 96.5419 63.2945 95.5397 60.6576 95.3684C58.834 94.3837 56.1618 93.7657 54.4376 92.533C53.9227 92.1647 53.6565 91.7276 53.0678 91.417C53.1833 92.6034 51.9451 94.2188 52.33 95.3684C52.5225 95.9431 53.2619 96.0632 53.8056 96.4843C55.2829 96.5659 56.1538 96.0104 57.6005 96.313C57.8668 96.6396 58.2341 96.8845 58.2341 97.4289C57.8524 97.6963 57.9326 97.0382 57.4963 97.0863C55.9004 96.8061 54.5691 97.7315 52.8577 97.344C53.5522 98.0357 54.9669 99.3117 55.177 100.522C55.2508 100.945 55.339 101.862 54.6493 102.067C54.1312 102.013 54.7054 101.604 54.5434 101.294C53.5666 98.9435 50.2914 97.7475 49.9049 94.9377C49.73 93.6649 50.1422 92.653 50.1166 91.0728C49.321 91.5355 49.2954 92.0158 48.641 92.4481C48.2945 92.6754 47.661 92.8964 47.0595 93.1349C45.9816 93.5624 44.8958 93.9531 43.4747 94.3373C42.3968 94.6287 41.5387 94.72 41.1554 95.3684C41.4136 95.9752 40.8763 96.4875 40.7336 96.915C40.6566 97.1455 40.7961 97.4561 40.7336 97.6883C40.5363 98.4263 39.7279 98.9483 39.0478 98.46C39.0719 98.1654 39.6108 98.2887 39.6798 98.0309C39.6878 96.7901 39.7247 96.0504 39.6798 94.8528C37.646 94.7344 36.6307 96.3818 35.2529 97.4305C34.8712 97.7203 33.7628 98.4648 33.2496 98.6329C32.4813 98.8826 30.6833 99.11 29.8749 98.46C29.7963 98.0261 30.2775 98.6457 30.2967 98.3751C32.7604 98.2102 33.8495 96.4331 35.463 95.1971C36.658 94.2813 38.5586 93.4519 40.5234 93.0501C41.1714 92.9172 41.8675 92.93 42.5252 92.7923C43.4875 92.589 44.3745 92.2239 45.3721 91.9326C46.2286 91.4571 46.6986 90.6661 47.3755 90.0433C47.5455 89.0123 47.5936 88.0725 47.3755 87.0366C47.1685 86.06 46.604 85.1058 46.4259 84.2028C46.2543 83.3286 46.2014 82.3824 46.1099 81.4538C45.6945 77.2799 46.6441 72.7923 46.952 69.1707C47.0033 68.5768 46.9135 67.962 47.0579 67.4528C47.1172 67.2463 47.3289 67.059 47.3739 66.8524C47.7973 64.952 47.8839 63.2181 48.2175 61.5258C48.0475 59.7439 47.2295 58.2805 46.0041 56.9741C45.648 56.5947 45.3352 56.1239 45.0546 55.943C43.4314 54.8944 40.0214 55.0144 37.6765 55.2562C35.9699 55.4323 34.406 55.9751 32.8262 56.6315C30.6817 57.5216 29.4675 57.8515 28.2934 59.2075C27.145 60.5332 26.8788 62.4096 25.4464 63.5879C25.0422 63.921 23.549 64.7135 23.0229 64.7903C22.5465 64.8608 21.7526 64.8111 21.3356 64.4477C21.5136 64.1179 22.0637 64.4141 22.6011 64.2748C23.0582 64.1563 24.351 63.3286 24.7102 62.9011C25.5732 61.8732 25.8298 60.3251 26.6077 59.294C24.7375 59.6046 22.6171 60.1025 20.4935 59.6366C18.5864 59.2203 17.8534 58.0596 16.5927 57.147C16.1613 56.8348 15.6271 56.782 15.3272 56.3737C15.7394 55.9302 16.2816 56.3369 16.5927 56.4586C17.5775 56.8492 18.6041 57.6994 19.4381 58.2629C20.3732 58.351 21.2698 58.7608 22.2851 58.7785C23.6965 58.8041 25.0246 58.1989 26.08 58.0916C28.356 56.9101 30.7474 55.8246 33.1437 54.7407C32.847 54.278 32.0787 54.4477 31.6665 54.3116C31.5831 54.2844 31.4853 54.1099 31.3505 54.0538C31.0666 53.9353 30.5437 53.8697 30.4026 53.5383C27.3295 52.8931 25.5363 51.204 23.9708 49.3308C24.1168 48.6952 23.5763 48.415 23.3389 47.9555C22.7903 46.8956 22.5529 45.2786 22.0734 44.2619C21.6916 43.4518 21.257 42.6241 20.1759 42.4592C20.9362 41.521 22.3749 42.7185 22.7053 43.2325C22.8465 43.4486 22.8801 43.7464 23.0229 44.0042C23.2924 44.4973 23.6645 44.9296 23.9708 45.6372C24.3814 46.5834 24.5274 47.9139 25.4464 48.5575C25.4897 47.749 25.9597 47.1758 26.2901 46.5818C26.4088 46.3673 26.3815 46.0727 26.5018 45.895C26.7809 45.4803 27.3054 45.1681 27.4498 44.6926C27.5909 44.2267 27.2637 43.82 27.6615 43.4038C28.7169 44.1114 28.0625 44.8975 27.7657 45.6372C27.6374 45.959 27.6711 46.3128 27.5556 46.5818C27.392 46.9629 27.0087 47.2542 26.9237 47.6129C26.8579 47.8867 26.8996 48.4486 26.9237 48.8153C26.9894 49.8383 27.6005 50.7157 28.3993 51.22C28.688 51.4025 29.2237 51.4874 29.769 51.7355C30.162 51.9148 30.4972 52.1902 30.9287 52.3359C31.9745 52.6913 33.3587 53.0884 34.5135 53.1957C38.1576 53.5319 42.2445 52.6225 45.2663 53.4534C44.8428 52.2687 44.0136 51.3769 43.1571 50.4467C42.4498 49.6782 42.0007 49.1835 40.9437 48.6439C40.7624 48.5511 40.4978 48.4902 40.3117 48.3862C40.1353 48.2869 40.0423 48.0339 39.8899 47.9555C39.5499 47.7826 39.1793 47.6945 38.8345 47.5264C38.5281 47.3759 38.2282 47.2174 37.8866 47.0109C37.3284 46.6731 36.6034 46.3705 36.095 45.9798C35.7004 45.6788 35.4823 45.2257 35.1454 44.9504C34.8664 44.7198 34.4718 44.5821 34.1975 44.3484C33.5495 43.7992 33.2432 43.0756 32.5102 42.4592C32.3161 41.3064 31.6296 40.3698 31.3505 39.366C31.1789 38.7496 31.2735 38.13 30.9287 37.5632C30.2791 36.4969 28.3175 35.8325 27.8716 34.3852C27.6871 33.7864 27.7256 33.1172 27.8716 32.2382C28.4971 32.7393 28.3127 33.4566 28.6094 34.041C28.8404 34.4956 29.2943 34.8383 29.769 35.1585C30.2663 35.4931 30.8934 36.1079 31.6665 36.1895C32.0707 34.9295 33.0764 33.3941 33.248 31.8075C33.333 31.031 33.1181 30.0304 32.932 29.4028C33.5062 29.8655 33.8671 30.8725 33.9858 31.6362C34.3322 33.86 32.5166 35.967 32.8262 38.2501C32.9224 38.9545 33.24 39.9119 33.4597 40.6548C33.7516 41.6506 34.8599 42.4736 35.5673 43.2325C35.9506 42.8962 35.7646 42.5888 35.8833 42.2879C36.1928 41.5018 36.8167 40.9286 37.4647 40.3122C38.0774 39.7262 38.6549 39.025 39.3622 38.5943C40.4737 37.9154 41.9124 37.4479 43.1571 36.7899C43.5549 36.5802 44.0697 36.4425 44.3167 36.1879C44.7835 35.7092 44.6247 35.0208 44.8444 34.47C45.3513 34.7806 45.6432 35.7829 45.2663 36.4457C44.8444 37.1902 43.6142 37.5984 42.631 38.0788C42.1354 38.3189 41.5836 38.6855 41.0495 39.0234C39.9941 39.6894 39.2579 40.4435 38.3084 41.0839C37.6909 42.2126 36.9531 43.7256 38.0967 44.8639C38.3517 45.1169 38.7719 45.2193 39.2563 45.4643C40.0166 45.8517 40.6694 46.2024 41.5756 46.6667C42.53 47.1566 43.1972 47.5761 44.0008 48.2133C44.32 47.8482 44.2109 47.3247 44.4226 46.9244C44.5413 46.7003 45.0947 45.9718 45.3721 45.7221C45.6913 45.4339 46.5077 45.2209 46.4243 44.9488ZM57.4931 37.9907C57.0071 37.6705 56.8996 37.0429 56.4393 36.7019C56.4441 36.593 56.574 36.5834 56.5436 36.4457C55.9196 35.6084 55.0294 34.3227 54.8578 32.9234C54.7054 31.6874 55.1882 30.3122 55.278 29.5741C55.0278 29.7694 55.0326 30.1745 54.752 30.3474C54.861 30.7028 54.7407 31.055 54.5402 31.3768C54.8193 32.3743 54.6429 33.5046 54.9621 34.47C55.4256 35.8645 56.497 36.8652 56.9654 38.0772C57.1707 38.6055 57.2653 39.3019 57.3872 39.9664C57.5171 40.6772 57.6872 41.4697 57.7032 42.1998C57.7273 43.2052 57.793 44.2747 57.5989 45.6356C57.461 46.5994 56.9846 49.0682 55.8057 48.2981C55.9934 48.1636 56.3687 48.1828 56.2276 47.7826C54.7311 45.3666 51.7783 44.1354 51.589 40.6532C51.1688 42.9507 52.7887 44.2715 53.804 45.4643C54.5964 46.3945 55.8635 47.6337 55.8057 49.0714C55.6935 51.9164 51.6371 53.4758 51.0629 55.8566C50.9234 56.4313 51.3532 57.1662 50.5352 57.3167C49.8519 56.9869 49.374 56.4874 49.1654 55.7701C48.734 55.4627 48.3186 54.9696 48.0058 54.4829C47.8374 54.2203 47.8518 53.9081 47.6898 53.6231C47.5519 53.383 47.2856 53.1733 47.1621 52.9363C47.0787 52.7746 47.1397 52.5985 47.0563 52.4208C46.766 51.7948 46.2014 51.3705 45.8966 50.9606C45.077 49.8575 45.0914 48.2069 45.2647 46.6667C45.1155 47.0781 44.9343 47.4015 44.8428 47.7826C44.7033 48.367 45.0866 49.065 44.421 49.3292C43.8356 48.9754 43.3945 48.5047 42.9454 48.0404C42.2028 47.6961 41.6478 47.3407 40.9421 47.0093C40.7801 46.934 40.6919 46.7579 40.5202 46.6667C38.9724 45.8389 37.0702 45.4211 36.937 43.7464C36.6884 40.6628 40.4208 39.017 42.7337 37.5616C41.5403 37.9987 40.1433 38.4966 39.1505 39.2795C38.3132 39.9375 36.9836 41.2312 36.6195 42.1133C36.3853 42.6817 36.6724 43.5319 35.8816 43.9177C35.301 43.5335 34.5151 43.1284 33.9842 42.5424C33.835 42.3775 33.8206 42.0893 33.6682 41.8556C33.503 41.601 33.2303 41.4745 33.1405 41.2552C32.9994 40.9078 33.0282 40.1921 32.8245 39.5373C32.7524 39.3051 32.5727 39.153 32.5086 38.9353C32.2391 38.0291 32.4637 36.9901 32.5086 36.5306C32.5406 36.1975 32.446 35.8917 32.5086 35.5859C32.6128 35.0704 33.0748 34.5853 33.2464 34.1258C33.3041 33.9689 33.248 33.764 33.3506 33.6103C32.9721 33.8488 32.8887 34.3083 32.7187 34.7278C32.4043 35.5011 32.2824 36.4025 31.7708 37.0461C31.4692 36.9196 31.5815 36.4553 30.9271 36.617C30.7603 36.0374 30.0465 35.903 29.4515 35.6724C30.0289 36.4137 31.1164 36.6042 31.559 37.5616C31.9263 38.3557 31.8975 39.3788 32.191 40.3106C32.3289 40.7461 32.6465 41.1191 32.8245 41.513C32.8823 41.6394 32.7716 41.814 32.8245 41.942C32.9625 42.2782 33.3955 42.4319 33.4565 42.8018C33.5046 42.8674 33.6682 43.058 33.6682 43.058C34.1751 43.6759 34.6851 44.2907 35.5657 44.6045C36.0645 45.2914 36.9547 45.7141 37.6732 46.1511C38.3212 46.5434 38.8586 46.7419 39.5707 47.0957C40.1513 47.3823 40.7191 47.7394 41.1522 48.0404C41.6061 48.3558 41.9092 48.5383 42.3118 48.8137C42.878 49.1995 42.9342 49.5005 43.3672 49.9296C43.6543 50.2162 44.0713 50.3939 44.3151 50.7029C44.6231 51.0903 44.8316 51.7211 45.1588 52.163C45.3769 52.4592 45.6961 52.5953 45.7908 52.8498C45.9191 53.1909 46.0682 53.9161 45.5807 54.1387C44.644 53.8345 42.8764 53.5239 41.574 53.5367C41.0303 53.5431 40.5026 53.6071 40.0984 53.6231C36.2554 54.0554 33.5511 53.9273 30.6111 52.765C30.5277 52.5456 30.2422 53.0067 30.0834 52.765C29.9952 52.5216 29.7225 52.4288 29.5573 52.2495C28.0945 51.7387 26.6318 50.7189 26.5002 49.1579C26.4537 48.6215 26.4232 47.8418 26.5002 47.3535C26.5981 46.7211 27.1402 46.2776 27.1322 45.7221C26.5211 46.6298 25.9148 47.9251 25.9725 49.0714C25.987 49.3468 26.4746 49.6222 25.9725 49.8447C25.2219 49.5629 25.0102 48.6343 24.6012 48.2117C24.3253 47.9267 24.0863 47.4704 23.9692 47.0957C23.7366 46.3513 23.5859 45.5748 23.2314 44.9488C23.1143 44.7422 22.8368 44.5389 22.7037 44.3468C22.5834 44.1723 22.6476 43.796 22.2819 43.8312C23.164 45.5748 23.6067 47.6273 24.6012 49.1579C24.9588 49.7054 25.5363 50.1025 25.7608 50.7029C27.3824 51.5866 28.5789 52.8162 30.8212 53.1941C30.8758 53.407 31.0779 53.4999 31.2431 53.6231C31.798 53.6584 32.2487 53.7784 32.5086 54.0522C33.1935 54.0666 33.7532 54.1835 33.8783 54.6542C33.1598 55.53 31.5975 55.9238 30.1893 56.5434C27.9726 57.5184 26.1329 58.9354 23.1255 59.1211C21.4735 59.2235 20.2609 58.8985 19.1205 58.6055C18.7789 58.2517 18.1726 57.6609 17.7492 57.6609C18.7949 58.7961 20.7453 59.5133 23.0197 59.4637C24.5226 59.4317 25.8298 58.7528 27.0263 58.7769C27.1001 59.6094 26.4714 60.4323 26.0768 61.1816C25.6533 61.9901 25.3566 62.8195 24.707 63.415C26.7136 62.043 27.0007 59.2716 28.8179 57.7458C30.2807 57.0878 32.1413 56.2824 33.7725 55.6853C34.5071 55.4163 35.285 55.0897 35.9875 54.912C37.0301 54.6462 38.148 54.6958 39.3606 54.6542C39.9172 54.635 40.5042 54.4957 41.0463 54.4813C42.3295 54.4509 43.4618 54.8463 44.737 54.9968C45.3417 55.6869 46.2944 56.1095 46.9504 56.8012C47.337 57.2094 47.7155 57.7874 48.0042 58.3462C48.2945 58.9097 48.7228 59.5437 48.8479 60.0657C49.3659 62.2143 48.4742 64.1563 48.1101 66.2489C47.6898 68.66 47.3113 70.9415 47.1605 73.4647C47.0418 75.4612 46.6938 76.9229 46.7403 78.7033C46.7547 79.2812 46.9055 80.0209 46.9504 80.4212C47.045 81.2841 46.8766 82.1711 46.9504 82.9988C47.0434 84.0187 47.3594 85.0129 47.6882 86.004C47.9833 86.8941 48.6201 88.6857 48.3218 89.5262C47.9769 90.4916 47.0386 91.6828 46.4243 92.0174C45.9544 92.272 45.2823 92.4337 44.737 92.6178C43.7153 92.9652 42.6294 93.2262 41.7857 93.3911C40.9453 93.556 39.9685 93.5416 39.0446 93.8218C38.3357 94.0363 37.5241 94.3629 36.9354 94.6799C36.3147 95.0145 35.9554 95.5285 35.3556 95.9688C35.1198 96.1401 34.7348 96.2121 34.5119 96.3978C34.244 96.6188 34.1189 96.955 33.8783 97.1711C33.3458 97.6514 32.6609 97.914 31.8766 98.46C33.1052 98.4904 33.2961 97.9973 33.9842 97.5154C34.398 97.2256 34.8728 97.0767 35.1438 96.8285C35.309 96.6764 35.3892 96.4571 35.5657 96.3114C36.767 95.3251 38.3806 94.126 40.4144 94.4222C39.9123 95.2627 40.0326 96.4074 40.3101 97.3424C40.4737 96.2153 40.3358 95.133 41.258 94.5086C41.9782 94.0203 43.2245 94.0091 44.2093 93.7353C45.1235 93.4808 46.1741 93.0293 46.8462 92.7043C47.8598 92.2127 48.6522 91.7885 49.3756 91.2441C49.5424 90.8086 49.6546 90.3267 50.2192 90.2147C50.9298 90.402 50.6154 91.0712 50.6395 91.5019C50.7084 92.653 50.2818 93.8522 50.4293 94.8528C50.8207 97.5137 53.124 98.3879 54.436 100.178C54.5162 99.1388 53.4961 98.9963 53.2763 98.2022C52.6091 98.0165 51.9755 97.3873 52.2209 96.7421C52.6508 96.7629 52.9427 97.0254 53.3806 97.0847C54.2515 97.2048 54.8273 96.9342 55.6999 96.8269C56.1297 96.7757 56.5644 96.9582 56.8595 96.6556C56.0656 96.3658 55.1481 96.9486 54.2243 96.9134C53.0662 96.8685 51.8184 96.1753 51.6949 95.2819C51.6419 94.9057 51.8264 94.3597 51.905 93.9931C52.0926 93.1093 52.3444 92.2031 52.4327 91.1593C52.2659 90.9767 52.0156 90.2499 52.4327 90.1282C53.0357 90.165 53.6244 90.9223 54.0141 91.4154C55.8458 92.685 57.6342 94.0043 60.2326 94.4222C60.701 94.8656 61.6633 95.0882 62.4476 95.0241C62.9128 95.2467 63.3122 95.5221 64.1334 95.4532C64.9209 95.8423 65.5753 96.3402 66.5585 96.5691C66.682 96.7244 66.9322 96.9758 67.1905 97.1711C67.3573 97.2976 67.7936 97.7395 67.824 97.4289C67.7759 96.9854 67.2033 96.726 66.8745 96.4843C66.4815 96.1929 66.0902 95.9255 65.7149 95.6245C64.8327 95.5717 64.2681 95.2579 63.8174 94.8512C62.7732 94.816 62.2135 94.3853 61.7098 93.9066C62.1413 93.7818 62.5343 93.7001 62.9737 93.6489C65.1888 93.3975 66.8713 92.9108 68.6677 92.533C67.9507 92.4593 67.5337 92.3664 66.9804 92.4465C64.9257 92.7411 63.3651 93.4231 61.288 93.3062C60.8533 93.2806 60.1187 93.1718 59.6007 93.0485C59.4595 93.0133 59.3488 92.8467 59.1788 92.7907C58.943 92.7123 58.619 92.7763 58.441 92.7043C57.4193 92.288 56.8627 91.7084 56.2276 91.0728C55.995 90.8391 55.6277 90.6533 55.4898 90.4708C55.278 90.1938 55.2075 89.8016 54.9621 89.4414C54.5787 88.8746 54.1296 88.3895 53.8024 87.9812C53.1528 87.1679 52.7615 86.3754 52.5369 85.4036C51.658 84.3981 51.3532 82.8547 51.0613 81.3674C51.0212 81.164 50.8817 80.9703 50.8512 80.7654C50.4069 77.7683 50.7197 75.3411 51.0613 72.5201C51.249 70.9719 51.4254 69.0971 51.6949 67.8819C51.8633 67.1182 51.7542 66.2969 51.905 65.562C52.1985 64.1291 52.7567 62.5457 53.1689 61.3529C53.4399 60.578 53.78 60.0673 54.0125 59.4637C54.7744 58.9962 55.2829 58.3222 56.0159 57.8322C56.8114 57.5361 57.4754 57.131 58.1234 56.7147C60.0754 56.2953 63.2111 56.0071 65.293 56.5434C65.6924 56.6667 65.4951 56.3065 65.8207 56.3721C67.4423 57.2831 69.3959 57.9251 70.3534 59.3772C70.6518 60.4019 71.2725 61.8076 72.3568 62.4704C71.8611 61.4986 70.833 60.5044 70.9854 59.2924C72.5172 59.7935 74.2253 60.0929 76.2575 59.9792C78.1662 59.872 79.8183 58.953 81.3163 59.1195C81.52 59.1419 81.751 59.3965 82.0542 59.4637C82.3044 59.5181 82.5658 59.4141 82.6877 59.4637C83.3854 59.7455 83.881 60.4131 84.4793 60.8374C84.1681 59.4029 82.229 59.2924 81.0004 58.6039C82.9973 57.2655 86.133 56.2472 88.9078 56.2857C85.0744 55.4947 82.2562 57.5713 79.5247 58.5191C79.5103 58.7929 79.6932 58.6071 79.2088 58.6039C77.3803 58.9658 75.478 59.3308 73.6207 59.0346C72.9197 58.9209 72.1964 58.5511 71.5131 58.2613C70.7897 57.9539 70.2123 57.6001 69.6156 57.2303C68.2796 56.4041 66.8472 55.9735 65.5031 55.4259C64.961 55.5316 64.3804 55.2914 63.8174 55.1681C63.3972 55.1457 63.0748 55.3859 62.8679 55.0833C62.7091 54.2828 64.0243 54.2796 64.5552 53.9658C64.6354 53.9177 64.8231 53.7352 64.977 53.6231C65.8769 52.9571 66.4206 52.3631 67.0846 51.6475C67.3733 51.3353 67.731 51.0743 67.9283 50.7029C67.2979 50.871 67.8385 50.0881 67.5065 50.016C67.3092 50.3699 66.9306 50.5764 66.7686 50.9606C66.6868 51.2792 66.5216 51.5626 66.5585 51.3897C65.941 51.6315 65.8352 52.2895 64.8712 52.2479C64.2585 53.2389 62.9801 53.6856 61.8141 54.2235C57.7914 54.8415 54.5643 56.1047 52.747 58.5191C52.2675 57.5585 52.2819 57.1598 52.4311 56.3721C52.5225 55.8822 52.8898 55.1249 53.2747 54.6542C53.5763 54.2844 54.1104 54.0586 54.4344 53.7096C54.5964 53.5335 54.683 53.2229 54.8562 53.0212C55.3919 52.4 56.0656 51.8476 56.4361 51.2184C56.6622 50.8358 56.8611 50.1185 57.0696 49.8447C57.2814 49.5661 57.4001 49.2187 57.4915 48.985C57.8925 47.9587 58.0192 46.9132 58.2293 45.8069C58.6848 43.4118 57.9229 40.6708 59.0714 38.764C59.5028 38.0499 60.3353 36.8572 61.0747 36.617C61.8975 36.3496 62.9625 36.7163 63.4998 36.3592C62.9497 36.2648 61.8766 36.3544 61.3923 36.2728C62.531 34.8014 64.5648 33.6807 67.4006 33.868C66.8408 33.6087 66.419 33.5703 65.6074 33.6951C64.3162 33.8953 63.7773 34.0986 62.9737 34.5549C62.831 34.6349 62.167 34.9776 62.0242 35.0704C60.8084 35.8597 59.6279 37.0781 58.9671 38.162C58.6704 38.5783 58.6046 39.1835 57.9117 39.2795C57.6487 38.9513 57.554 38.4838 57.4931 37.9907ZM29.3456 35.5859C29.2654 35.333 28.9061 34.8623 28.7137 34.9856C29.0489 35.0848 28.9735 35.5187 29.3456 35.5859ZM43.3672 37.3039C43.8532 37.1838 44.1195 36.886 44.421 36.617C44.2221 36.6362 44.1884 36.5193 43.9992 36.5306C43.9254 36.8988 43.4089 36.9084 43.3672 37.3039ZM78.471 39.7086C77.8182 39.7134 76.7884 39.5485 76.5735 40.1377C77.4509 39.9359 78.5271 39.8975 79.4205 39.7086C79.1109 39.5517 78.8238 39.7054 78.471 39.7086ZM80.8961 39.8799C80.6491 39.763 79.7637 39.7198 79.5264 39.8799C79.9915 39.8191 80.5368 40.1393 80.8961 39.8799ZM72.0408 42.1133C71.5821 42.9587 70.7063 43.6743 70.2492 44.5181C70.1866 44.6334 70.3021 44.8303 70.2492 44.9488C70.185 45.0897 70.0006 45.1617 69.9332 45.2914C69.3831 46.3273 68.6597 47.1438 68.2459 48.1268C68.0277 48.6439 67.8962 49.1995 67.824 49.7583C67.8529 49.5565 68.2908 49.7054 68.2459 49.8447C68.1577 50.0304 67.9732 50.1361 68.0358 50.4451C68.7351 50.2994 69.4953 49.7711 70.5652 49.6718C71.0207 49.6302 71.5452 49.7006 72.0408 49.6718C73.2854 49.5998 74.482 49.0698 75.3096 49.0714C75.6544 49.0714 76.0025 49.4012 76.2575 49.1563C75.9271 49.1963 75.7876 49.0826 75.8357 48.8137C75.7796 48.4198 76.7965 48.455 76.4692 48.1268C74.6905 49.3772 71.0832 49.0634 68.6677 49.5869C68.642 49.4637 68.4945 49.4413 68.456 49.3292C69.367 47.3215 70.0327 45.1169 71.5147 43.5735C71.5371 43.6695 71.6318 43.708 71.7248 43.7448C72.1049 41.6795 74.0842 40.9158 76.1533 40.2241C76.1581 40.0768 76.0715 40.0032 75.9416 39.9664C74.2446 40.3586 73.2389 41.3144 72.0408 42.1133ZM22.2835 43.6599C22.2498 43.3157 22.0926 43.0708 21.7558 42.9731C21.8873 43.2389 22.0156 43.5062 22.2835 43.6599ZM75.2037 43.4886C74.6231 43.2469 72.8909 42.9107 72.6743 43.4022C73.4057 43.1236 74.6985 43.5831 75.2037 43.4886ZM74.5718 63.5879C73.7329 63.4407 73.3127 62.9539 72.6743 62.6433C72.6743 63.0852 73.7714 63.7993 74.5718 63.5879Z" fill="#EF6D53"/>
</g>
<path fill-rule="evenodd" clip-rule="evenodd" d="M57.9133 39.2797C58.6062 39.1852 58.672 38.58 58.9687 38.1637C59.6295 37.0798 60.81 35.8599 62.0258 35.0722C62.1686 34.9777 62.8326 34.6367 62.9737 34.5566C63.7773 34.0987 64.3178 33.897 65.609 33.6969C66.4206 33.572 66.8424 33.6104 67.4022 33.8682C64.5664 33.6825 62.5327 34.8016 61.3923 36.2745C61.8783 36.3546 62.9513 36.2649 63.5014 36.3594C62.9641 36.7164 61.8991 36.3498 61.0763 36.6171C60.3369 36.8573 59.5028 38.0517 59.073 38.7641C57.9245 40.6726 58.6864 43.4135 58.2309 45.8087C58.0208 46.915 57.8941 47.9588 57.4931 48.9867C57.4017 49.2188 57.283 49.5663 57.0713 49.8448C56.8627 50.1202 56.6639 50.8375 56.4377 51.2201C56.0672 51.8493 55.3935 52.4017 54.8578 53.0229C54.6846 53.2246 54.598 53.5352 54.436 53.7097C54.112 54.0588 53.5779 54.2845 53.2763 54.6543C52.8914 55.1266 52.5241 55.8839 52.4327 56.3738C52.2835 57.1599 52.2691 57.5602 52.7486 58.5208C54.5659 56.1065 57.793 54.8433 61.8157 54.2253C62.9802 53.6857 64.2601 53.2406 64.8728 52.2496C65.8368 52.2912 65.9426 51.6332 66.5585 51.3914C66.5233 51.5627 66.6885 51.2794 66.7703 50.9608C66.9307 50.5781 67.3108 50.37 67.5081 50.0162C67.8401 50.0898 67.2996 50.8727 67.9299 50.703C67.7326 51.076 67.3765 51.337 67.0862 51.6476C66.4222 52.3649 65.8785 52.9588 64.9787 53.6233C64.8247 53.7369 64.637 53.9195 64.5568 53.9675C64.0259 54.2813 62.7107 54.2845 62.8695 55.085C63.0764 55.386 63.3988 55.1475 63.819 55.1699C64.382 55.2931 64.9626 55.5333 65.5048 55.4276C66.8489 55.9736 68.2812 56.4043 69.6172 57.232C70.2155 57.6018 70.7913 57.9541 71.5147 58.2615C72.198 58.5528 72.9214 58.9227 73.6223 59.0348C75.4796 59.3325 77.3819 58.9659 79.2104 58.6057C79.6932 58.6089 79.5119 58.7946 79.5264 58.5192C82.2579 57.573 85.076 55.4965 88.9094 56.2858C86.1346 56.2474 82.9973 57.2672 81.002 58.6057C82.2306 59.2941 84.1698 59.403 84.4809 60.8391C83.8827 60.4132 83.387 59.7472 82.6893 59.4638C82.5674 59.4158 82.306 59.5183 82.0558 59.4638C81.7526 59.3982 81.5217 59.1436 81.318 59.1212C79.8199 58.9547 78.1678 59.8721 76.2591 59.9794C74.227 60.0946 72.5188 59.7952 70.987 59.2925C70.8346 60.5061 71.8628 61.5003 72.3584 62.4706C71.2741 61.8093 70.6534 60.4036 70.3551 59.379C69.3959 57.9268 67.4439 57.2848 65.8223 56.3722C65.4967 56.3082 65.694 56.6684 65.2946 56.5452C63.2127 56.0088 60.0786 56.297 58.125 56.7165C57.4771 57.1327 56.813 57.5362 56.0175 57.8324C55.2845 58.3239 54.776 58.9979 54.0142 59.4654C53.7816 60.0674 53.4415 60.5781 53.1705 61.3546C52.7583 62.5474 52.2001 64.1308 51.9066 65.5637C51.7558 66.297 51.8649 67.1199 51.6949 67.882C51.427 69.0972 51.2506 70.972 51.0629 72.5218C50.7213 75.3428 50.4085 77.77 50.8528 80.7671C50.8833 80.972 51.0228 81.1658 51.0629 81.3675C51.3548 82.8565 51.6596 84.3999 52.5385 85.4053C52.7615 86.3771 53.1544 87.168 53.804 87.9814C54.1312 88.3912 54.5803 88.8763 54.9637 89.4415C55.2091 89.8033 55.2813 90.1956 55.4914 90.4726C55.6293 90.6551 55.9966 90.8408 56.2292 91.0745C56.8627 91.7102 57.4209 92.2881 58.4426 92.706C58.6191 92.778 58.9447 92.714 59.1804 92.7924C59.3488 92.8469 59.4611 93.015 59.6023 93.0486C60.1203 93.1735 60.8549 93.2824 61.2896 93.308C63.3667 93.4249 64.9273 92.7428 66.982 92.4482C67.5353 92.3682 67.9524 92.4594 68.6693 92.5347C66.8713 92.9125 65.1904 93.3992 62.9753 93.6506C62.5359 93.7002 62.1429 93.7835 61.7114 93.9084C62.2135 94.3855 62.7749 94.8177 63.819 94.853C64.2681 95.2596 64.8343 95.5718 65.7165 95.6263C66.0918 95.9257 66.4832 96.1946 66.8761 96.4844C67.2049 96.7278 67.7775 96.9871 67.8256 97.4306C67.7952 97.7412 67.3589 97.2977 67.1921 97.1729C66.9339 96.9775 66.6836 96.7246 66.5601 96.5709C65.5769 96.3419 64.9225 95.844 64.135 95.455C63.3138 95.5222 62.9128 95.2468 62.4493 95.0243C61.6649 95.0899 60.7026 94.8674 60.2342 94.4239C57.6358 94.0044 55.8475 92.6852 54.0142 91.4172C53.626 90.9224 53.0374 90.1652 52.4327 90.1283C52.0173 90.2516 52.2675 90.9785 52.4327 91.1594C52.3445 92.2049 52.0942 93.1095 51.9066 93.9948C51.828 94.3599 51.6435 94.9074 51.6965 95.2821C51.8184 96.177 53.0678 96.8703 54.2259 96.9151C55.1497 96.9503 56.0672 96.3659 56.8611 96.6573C56.5644 96.9599 56.1313 96.7758 55.7015 96.8286C54.829 96.9343 54.2531 97.2049 53.3822 97.0864C52.9443 97.0256 52.6524 96.7646 52.2226 96.7422C51.9772 97.389 52.6107 98.0182 53.2779 98.2039C53.4977 98.998 54.5178 99.1389 54.4376 100.178C53.1256 98.3896 50.8223 97.5155 50.431 94.853C50.2834 93.8539 50.71 92.6548 50.6411 91.5036C50.6154 91.0713 50.9314 90.4037 50.2192 90.2148C49.6547 90.3269 49.544 90.8104 49.3772 91.2459C48.6538 91.7886 47.8615 92.2145 46.8462 92.706C46.1757 93.031 45.1251 93.4825 44.2109 93.7371C43.2261 94.0108 41.9798 94.022 41.2597 94.5104C40.3374 95.1348 40.4753 96.217 40.3101 97.3442C40.0342 96.4092 39.914 95.2644 40.416 94.4239C38.3822 94.1261 36.7686 95.3253 35.5673 96.3131C35.3925 96.4572 35.3107 96.6765 35.1455 96.8286C34.8744 97.0784 34.3996 97.2257 33.9858 97.5171C33.2977 97.9974 33.1068 98.4921 31.8766 98.4617C32.6626 97.9157 33.3474 97.6532 33.8799 97.1729C34.1205 96.9567 34.2456 96.6205 34.5135 96.3996C34.7364 96.2138 35.1214 96.1418 35.3556 95.9705C35.957 95.5302 36.3163 95.0163 36.937 94.6817C37.5257 94.3647 38.3357 94.038 39.0462 93.8219C39.9701 93.5433 40.9469 93.5577 41.7873 93.3928C42.631 93.2279 43.7169 92.9654 44.7386 92.6195C45.2839 92.4354 45.956 92.2737 46.4259 92.0191C47.0402 91.6845 47.9785 90.4918 48.3234 89.528C48.6233 88.6874 47.985 86.8959 47.6898 86.0057C47.361 85.0131 47.0451 84.0204 46.952 82.999C46.8782 82.1728 47.0467 81.2859 46.952 80.4229C46.9071 80.0226 46.7563 79.283 46.7419 78.705C46.6954 76.9246 47.0434 75.4629 47.1621 73.4648C47.3129 70.9432 47.6914 68.6617 48.1117 66.2506C48.4758 64.158 49.3659 62.2144 48.8495 60.0658C48.7228 59.5439 48.2961 58.9099 48.0058 58.3479C47.7171 57.7892 47.3386 57.2112 46.952 56.8029C46.296 56.1113 45.3433 55.6886 44.7386 54.9986C43.4635 54.8481 42.3295 54.4526 41.0479 54.483C40.5058 54.4958 39.9188 54.6351 39.3622 54.6543C38.148 54.6976 37.0317 54.6479 35.9875 54.9137C35.2866 55.0914 34.5087 55.418 33.7741 55.6854C32.1413 56.2826 30.2823 57.0895 28.8195 57.7475C27.0023 59.2733 26.7136 62.0447 24.7086 63.4168C25.3566 62.8212 25.655 61.9903 26.0784 61.1833C26.473 60.4341 27.1017 59.6111 27.0279 58.7786C25.8314 58.7546 24.5242 59.4334 23.0213 59.4654C20.7453 59.5135 18.7965 58.7978 17.7508 57.6627C18.1742 57.6611 18.7805 58.2535 19.1221 58.6073C20.2625 58.9003 21.4751 59.2237 23.1272 59.1228C26.1345 58.9371 27.9743 57.5202 30.1909 56.5452C31.5991 55.9256 33.1598 55.5317 33.8799 54.6559C33.7548 54.1852 33.1951 54.0684 32.5102 54.054C32.2503 53.7802 31.7996 53.6585 31.2447 53.6249C31.0795 53.5016 30.8774 53.4087 30.8228 53.1958C28.5805 52.818 27.384 51.5884 25.7624 50.7046C25.5379 50.1042 24.9605 49.7072 24.6028 49.158C23.6083 47.6274 23.1657 45.5765 22.2835 43.833C22.6492 43.7978 22.585 44.1724 22.7053 44.3485C22.8384 44.5406 23.1159 44.744 23.233 44.9505C23.5875 45.5765 23.7383 46.3514 23.9708 47.0975C24.0879 47.4721 24.3269 47.9268 24.6028 48.2134C25.0118 48.6361 25.2235 49.5647 25.9741 49.8464C26.4762 49.6239 25.9886 49.3485 25.9741 49.0732C25.9148 47.9252 26.5227 46.6316 27.1338 45.7222C27.1418 46.2778 26.5997 46.7228 26.5002 47.3552C26.4248 47.8436 26.4553 48.6233 26.5002 49.158C26.6334 50.7206 28.0962 51.7405 29.5589 52.2512C29.7241 52.4305 29.9968 52.5234 30.085 52.7651C30.2438 53.0069 30.5293 52.5474 30.6127 52.7651C33.5527 53.9275 36.2554 54.0572 40.1 53.6249C40.5042 53.6089 41.0319 53.5448 41.5756 53.5384C42.878 53.5256 44.6456 53.8362 45.5823 54.1404C46.0699 53.9179 45.9207 53.191 45.7924 52.8516C45.6977 52.5954 45.3786 52.4609 45.1604 52.1647C44.8332 51.7213 44.6247 51.092 44.3168 50.7046C44.0714 50.3956 43.6559 50.2179 43.3672 49.9313C42.9358 49.5006 42.8796 49.2012 42.3134 48.8154C41.9109 48.54 41.6077 48.3559 41.1538 48.0421C40.7207 47.7411 40.1529 47.3841 39.5723 47.0975C38.8602 46.7437 38.3228 46.5451 37.6749 46.1529C36.9563 45.7158 36.0661 45.2931 35.5673 44.6063C34.6867 44.2925 34.1767 43.6777 33.6698 43.0597C33.673 43.0805 33.6586 43.0405 33.4581 42.8019C33.3972 42.4337 32.9641 42.28 32.8262 41.9438C32.7732 41.8157 32.8823 41.6412 32.8262 41.5147C32.6481 41.1208 32.3305 40.7478 32.1926 40.3123C31.8991 39.3805 31.928 38.3559 31.559 37.5634C31.1164 36.6059 30.0289 36.4154 29.4515 35.6725C30.0465 35.9047 30.7603 36.0376 30.9271 36.6187C31.5831 36.4554 31.4692 36.9197 31.7708 37.0478C32.2824 36.4026 32.4043 35.5028 32.7187 34.7279C32.8887 34.3085 32.9721 33.8506 33.3522 33.612C33.248 33.7657 33.3057 33.969 33.2464 34.1275C33.0748 34.5854 32.6128 35.0722 32.5086 35.5877C32.446 35.8935 32.5407 36.1993 32.5086 36.5323C32.4637 36.9918 32.2391 38.0309 32.5086 38.937C32.5727 39.1548 32.7524 39.3069 32.8246 39.5374C33.0283 40.1938 32.9994 40.9095 33.1405 41.2569C33.2304 41.4763 33.503 41.6027 33.6682 41.8573C33.8206 42.0911 33.835 42.3792 33.9842 42.5442C34.5151 43.1301 35.301 43.5352 35.8817 43.9194C36.674 43.532 36.3853 42.6834 36.6195 42.1151C36.9852 41.2329 38.3148 39.9393 39.1505 39.2813C40.1433 38.4984 41.5403 38.0004 42.7337 37.5634C40.4208 39.0171 36.6884 40.6645 36.937 43.7465C37.0718 45.4228 38.9724 45.8407 40.5202 46.6668C40.6919 46.7597 40.7801 46.9342 40.9421 47.011C41.6478 47.3424 42.2044 47.6979 42.9454 48.0421C43.3945 48.5064 43.8356 48.9771 44.421 49.3309C45.0866 49.0651 44.7033 48.3687 44.8428 47.7843C44.9343 47.4033 45.1155 47.0783 45.2647 46.6668C45.0915 48.2086 45.077 49.8593 45.8966 50.9624C46.2014 51.3722 46.766 51.7965 47.0563 52.4225C47.1397 52.6002 47.0787 52.7763 47.1621 52.938C47.2856 53.175 47.5519 53.3847 47.6898 53.6249C47.8518 53.9099 47.8374 54.2221 48.0058 54.483C48.3186 54.9697 48.734 55.4645 49.1655 55.7719C49.3756 56.4891 49.8519 56.987 50.5352 57.3184C51.3532 57.168 50.9234 56.4331 51.0629 55.8583C51.6371 53.4776 55.6935 51.9166 55.8074 49.0732C55.8635 47.6354 54.5964 46.3962 53.804 45.4644C52.7887 44.2733 51.1688 42.9524 51.5906 40.6549C51.7783 44.1372 54.7327 45.3668 56.2276 47.7843C56.3687 48.1846 55.9934 48.1654 55.8074 48.2999C56.9846 49.0699 57.461 46.6012 57.5989 45.6373C57.793 44.2749 57.7273 43.2054 57.7032 42.2015C57.6872 41.4715 57.5172 40.679 57.3872 39.9681C57.2653 39.3037 57.1707 38.6072 56.9654 38.0789C56.497 36.8653 55.4256 35.8647 54.9637 34.4702C54.6429 33.5063 54.8193 32.376 54.5418 31.3786C54.7407 31.0568 54.861 30.7045 54.752 30.3475C55.0327 30.1746 55.0278 29.7711 55.2797 29.5742C55.1882 30.3123 54.7055 31.6892 54.8578 32.9252C55.0294 34.3245 55.9196 35.6101 56.5452 36.4458C56.574 36.5851 56.4457 36.5947 56.4393 36.7036C56.8996 37.0446 57.0087 37.6722 57.4931 37.9924C57.554 38.4855 57.6487 38.9514 57.9149 39.2797H57.9133Z" fill="#EF6D53"/>
<path fill-rule="evenodd" clip-rule="evenodd" d="M28.7121 34.9857C28.9061 34.8625 29.2654 35.3348 29.3456 35.5877C28.9719 35.5189 29.0473 35.085 28.7121 34.9857Z" fill="#EF6D53"/>
<path fill-rule="evenodd" clip-rule="evenodd" d="M72.6727 43.4023C72.8909 42.9092 74.6215 43.247 75.2037 43.4872C74.6985 43.5833 73.4041 43.1238 72.6727 43.4023Z" fill="#EF6D53"/>
<mask id="mask1_232_633" style="mask-type:luminance" maskUnits="userSpaceOnUse" x="0" y="47" width="16" height="15">
<path d="M0.98642 47.5024H15.1203V61.6123H0.98642V47.5024Z" fill="white"/>
</mask>
<g mask="url(#mask1_232_633)">
<mask id="mask2_232_633" style="mask-type:luminance" maskUnits="userSpaceOnUse" x="0" y="47" width="16" height="15">
<path d="M8.05336 47.5024C4.15099 47.5024 0.98642 50.6613 0.98642 54.5566C0.98642 58.4535 4.15099 61.6123 8.05336 61.6123C11.9573 61.6123 15.1203 58.4535 15.1203 54.5566C15.1203 50.6613 11.9573 47.5024 8.05336 47.5024Z" fill="white"/>
</mask>
<g mask="url(#mask2_232_633)">
<path d="M0.98642 47.5024H15.1203V61.6123H0.98642V47.5024Z" fill="#63A3B2"/>
</g>
</g>
<mask id="mask3_232_633" style="mask-type:luminance" maskUnits="userSpaceOnUse" x="27" y="17" width="12" height="12">
<path d="M27.6084 17.9475H38.2328V28.5527H27.6084V17.9475Z" fill="white"/>
</mask>
<g mask="url(#mask3_232_633)">
<mask id="mask4_232_633" style="mask-type:luminance" maskUnits="userSpaceOnUse" x="27" y="17" width="12" height="12">
<path d="M32.9206 17.9475C29.987 17.9475 27.6084 20.3218 27.6084 23.2501C27.6084 26.1784 29.987 28.5527 32.9206 28.5527C35.8542 28.5527 38.2328 26.1784 38.2328 23.2501C38.2328 20.3218 35.8542 17.9475 32.9206 17.9475Z" fill="white"/>
</mask>
<g mask="url(#mask4_232_633)">
<path d="M27.6084 17.9475H38.2328V28.5527H27.6084V17.9475Z" fill="#63A3B2"/>
</g>
</g>
<mask id="mask5_232_633" style="mask-type:luminance" maskUnits="userSpaceOnUse" x="83" y="31" width="14" height="14">
<path d="M83.9835 31.9727H96.5616V44.5263H83.9835V31.9727Z" fill="white"/>
</mask>
<g mask="url(#mask5_232_633)">
<mask id="mask6_232_633" style="mask-type:luminance" maskUnits="userSpaceOnUse" x="83" y="31" width="14" height="14">
<path d="M90.2725 31.9727C86.8 31.9727 83.9835 34.7825 83.9835 38.2503C83.9835 41.7165 86.8 44.5263 90.2725 44.5263C93.745 44.5263 96.5616 41.7165 96.5616 38.2503C96.5616 34.7825 93.745 31.9727 90.2725 31.9727Z" fill="white"/>
</mask>
<g mask="url(#mask6_232_633)">
<path d="M83.9835 31.9727H96.5616V44.5263H83.9835V31.9727Z" fill="#63A3B2"/>
</g>
</g>
<mask id="mask7_232_633" style="mask-type:luminance" maskUnits="userSpaceOnUse" x="89" y="52" width="18" height="18">
<path d="M89.822 52.8962H106.657V69.7006H89.822V52.8962Z" fill="white"/>
</mask>
<g mask="url(#mask7_232_633)">
<mask id="mask8_232_633" style="mask-type:luminance" maskUnits="userSpaceOnUse" x="86" y="50" width="24" height="23">
<path d="M95.2834 50.189L109.417 58.5351L101.054 72.645L86.9205 64.2972L95.2834 50.189Z" fill="white"/>
</mask>
<g mask="url(#mask8_232_633)">
<mask id="mask9_232_633" style="mask-type:luminance" maskUnits="userSpaceOnUse" x="89" y="53" width="18" height="17">
<path d="M102.35 54.363C98.4464 52.0575 93.4116 53.3463 91.102 57.2432C88.7923 61.1385 90.0851 66.1658 93.9875 68.4712C97.8914 70.7767 102.926 69.4863 105.236 65.591C107.546 61.6941 106.253 56.6669 102.35 54.363Z" fill="white"/>
</mask>
<g mask="url(#mask9_232_633)">
<path d="M95.2834 50.189L109.417 58.5351L101.054 72.645L86.9205 64.2972L95.2834 50.189Z" fill="#63A3B2"/>
</g>
</g>
</g>
<mask id="mask10_232_633" style="mask-type:luminance" maskUnits="userSpaceOnUse" x="11" y="36" width="9" height="9">
<path d="M11.1808 36.2634H19.4604V44.5263H11.1808V36.2634Z" fill="white"/>
</mask>
<g mask="url(#mask10_232_633)">
<mask id="mask11_232_633" style="mask-type:luminance" maskUnits="userSpaceOnUse" x="11" y="36" width="9" height="9">
<path d="M15.3206 36.2634C13.035 36.2634 11.1808 38.1126 11.1808 40.3957C11.1808 42.6771 13.035 44.5263 15.3206 44.5263C17.6078 44.5263 19.4604 42.6771 19.4604 40.3957C19.4604 38.1126 17.6078 36.2634 15.3206 36.2634Z" fill="white"/>
</mask>
<g mask="url(#mask11_232_633)">
<path d="M11.1808 36.2634H19.4604V44.5263H11.1808V36.2634Z" fill="#63A3B2"/>
</g>
</g>
<mask id="mask12_232_633" style="mask-type:luminance" maskUnits="userSpaceOnUse" x="25" y="27" width="5" height="5">
<path d="M25.3612 27.1101H29.8539V31.5946H25.3612V27.1101Z" fill="white"/>
</mask>
<g mask="url(#mask12_232_633)">
<mask id="mask13_232_633" style="mask-type:luminance" maskUnits="userSpaceOnUse" x="25" y="27" width="5" height="5">
<path d="M27.6084 27.1101C26.3669 27.1101 25.3612 28.114 25.3612 29.3531C25.3612 30.5907 26.3669 31.5946 27.6084 31.5946C28.8482 31.5946 29.8539 30.5907 29.8539 29.3531C29.8539 28.114 28.8482 27.1101 27.6084 27.1101Z" fill="white"/>
</mask>
<g mask="url(#mask13_232_633)">
<path d="M25.3612 27.1101H29.8539V31.5946H25.3612V27.1101Z" fill="#63A3B2"/>
</g>
</g>
<mask id="mask14_232_633" style="mask-type:luminance" maskUnits="userSpaceOnUse" x="41" y="26" width="8" height="8">
<path d="M41.7118 26.6284H48.6825V33.5865H41.7118V26.6284Z" fill="white"/>
</mask>
<g mask="url(#mask14_232_633)">
<mask id="mask15_232_633" style="mask-type:luminance" maskUnits="userSpaceOnUse" x="41" y="26" width="8" height="8">
<path d="M45.1971 26.6284C43.2724 26.6284 41.7118 28.1862 41.7118 30.1075C41.7118 32.0287 43.2724 33.5865 45.1971 33.5865C47.1218 33.5865 48.6825 32.0287 48.6825 30.1075C48.6825 28.1862 47.1218 26.6284 45.1971 26.6284Z" fill="white"/>
</mask>
<g mask="url(#mask15_232_633)">
<path d="M41.7118 26.6284H48.6825V33.5865H41.7118V26.6284Z" fill="#63A3B2"/>
</g>
</g>
<mask id="mask16_232_633" style="mask-type:luminance" maskUnits="userSpaceOnUse" x="25" y="38" width="6" height="5">
<path d="M25.7399 38.1526H30.2325V42.6371H25.7399V38.1526Z" fill="white"/>
</mask>
<g mask="url(#mask16_232_633)">
<mask id="mask17_232_633" style="mask-type:luminance" maskUnits="userSpaceOnUse" x="25" y="38" width="6" height="5">
<path d="M27.987 38.1526C26.7455 38.1526 25.7399 39.1564 25.7399 40.3956C25.7399 41.6332 26.7455 42.6371 27.987 42.6371C29.2268 42.6371 30.2325 41.6332 30.2325 40.3956C30.2325 39.1564 29.2268 38.1526 27.987 38.1526Z" fill="white"/>
</mask>
<g mask="url(#mask17_232_633)">
<path d="M25.7399 38.1526H30.2325V42.6371H25.7399V38.1526Z" fill="#63A3B2"/>
</g>
</g>
<mask id="mask18_232_633" style="mask-type:luminance" maskUnits="userSpaceOnUse" x="12" y="60" width="9" height="10">
<path d="M12.4737 60.9192H20.7532V69.1837H12.4737V60.9192Z" fill="white"/>
</mask>
<g mask="url(#mask18_232_633)">
<mask id="mask19_232_633" style="mask-type:luminance" maskUnits="userSpaceOnUse" x="12" y="60" width="9" height="10">
<path d="M16.6135 60.9192C14.3279 60.9192 12.4737 62.7684 12.4737 65.0514C12.4737 67.3329 14.3279 69.1837 16.6135 69.1837C18.8991 69.1837 20.7532 67.3329 20.7532 65.0514C20.7532 62.7684 18.8991 60.9192 16.6135 60.9192Z" fill="white"/>
</mask>
<g mask="url(#mask19_232_633)">
<path d="M12.4737 60.9192H20.7532V69.1837H12.4737V60.9192Z" fill="#63A3B2"/>
</g>
</g>
<mask id="mask20_232_633" style="mask-type:luminance" maskUnits="userSpaceOnUse" x="54" y="18" width="9" height="9">
<path d="M54.7373 18.9675H62.0336V26.2522H54.7373V18.9675Z" fill="white"/>
</mask>
<g mask="url(#mask20_232_633)">
<mask id="mask21_232_633" style="mask-type:luminance" maskUnits="userSpaceOnUse" x="54" y="18" width="9" height="9">
<path d="M58.3863 18.9675C56.3717 18.9675 54.7373 20.599 54.7373 22.6099C54.7373 24.6208 56.3717 26.2522 58.3863 26.2522C60.4008 26.2522 62.0336 24.6208 62.0336 22.6099C62.0336 20.599 60.4008 18.9675 58.3863 18.9675Z" fill="white"/>
</mask>
<g mask="url(#mask21_232_633)">
<path d="M54.7373 18.9675H62.0336V26.2522H54.7373V18.9675Z" fill="#63A3B2"/>
</g>
</g>
<mask id="mask22_232_633" style="mask-type:luminance" maskUnits="userSpaceOnUse" x="84" y="62" width="6" height="6">
<path d="M84.0734 62.3232H89.4113V67.6515H84.0734V62.3232Z" fill="white"/>
</mask>
<g mask="url(#mask22_232_633)">
<mask id="mask23_232_633" style="mask-type:luminance" maskUnits="userSpaceOnUse" x="83" y="61" width="8" height="8">
<path d="M85.942 61.6123L90.271 64.1691L87.7095 68.4903L83.3805 65.9335L85.942 61.6123Z" fill="white"/>
</mask>
<g mask="url(#mask23_232_633)">
<mask id="mask24_232_633" style="mask-type:luminance" maskUnits="userSpaceOnUse" x="84" y="62" width="6" height="6">
<path d="M88.1057 62.8915C86.9108 62.1855 85.3678 62.5793 84.6604 63.7737C83.9531 64.9665 84.3493 66.5067 85.5442 67.2127C86.7407 67.9188 88.2837 67.5233 88.9911 66.3306C89.6984 65.1362 89.3022 63.5976 88.1057 62.8915Z" fill="white"/>
</mask>
<g mask="url(#mask24_232_633)">
<path d="M85.942 61.6123L90.271 64.1691L87.7095 68.4903L83.3805 65.9335L85.942 61.6123Z" fill="#63A3B2"/>
</g>
</g>
</g>
<mask id="mask25_232_633" style="mask-type:luminance" maskUnits="userSpaceOnUse" x="75" y="61" width="8" height="7">
<path d="M75.8612 61.0938H82.4309V67.6516H75.8612V61.0938Z" fill="white"/>
</mask>
<g mask="url(#mask25_232_633)">
<mask id="mask26_232_633" style="mask-type:luminance" maskUnits="userSpaceOnUse" x="74" y="60" width="10" height="9">
<path d="M78.012 60.1042L83.3804 63.2727L80.2046 68.6313L74.8362 65.4613L78.012 60.1042Z" fill="white"/>
</mask>
<g mask="url(#mask26_232_633)">
<mask id="mask27_232_633" style="mask-type:luminance" maskUnits="userSpaceOnUse" x="75" y="61" width="8" height="7">
<path d="M80.6954 61.6894C79.2134 60.8136 77.3015 61.3035 76.4241 62.7829C75.5484 64.2622 76.0376 66.1707 77.5212 67.0464C79.0033 67.9222 80.9152 67.4323 81.7925 65.9529C82.6683 64.4736 82.1775 62.5635 80.6954 61.6894Z" fill="white"/>
</mask>
<g mask="url(#mask27_232_633)">
<path d="M78.012 60.1042L83.3804 63.2727L80.2046 68.6313L74.8362 65.4613L78.012 60.1042Z" fill="#63A3B2"/>
</g>
</g>
</g>
<mask id="mask28_232_633" style="mask-type:luminance" maskUnits="userSpaceOnUse" x="81" y="42" width="5" height="6">
<path d="M81.0693 42.637H85.5507V47.1102H81.0693V42.637Z" fill="white"/>
</mask>
<g mask="url(#mask28_232_633)">
<mask id="mask29_232_633" style="mask-type:luminance" maskUnits="userSpaceOnUse" x="81" y="42" width="5" height="6">
<path d="M83.31 42.637C82.0734 42.637 81.0693 43.6392 81.0693 44.8736C81.0693 46.1096 82.0734 47.1102 83.31 47.1102C84.5483 47.1102 85.5507 46.1096 85.5507 44.8736C85.5507 43.6392 84.5483 42.637 83.31 42.637Z" fill="white"/>
</mask>
<g mask="url(#mask29_232_633)">
<path d="M81.0693 42.637H85.5507V47.1102H81.0693V42.637Z" fill="#63A3B2"/>
</g>
</g>
<mask id="mask30_232_633" style="mask-type:luminance" maskUnits="userSpaceOnUse" x="68" y="31" width="6" height="7">
<path d="M68.7559 31.9727H73.8292V37.0367H68.7559V31.9727Z" fill="white"/>
</mask>
<g mask="url(#mask30_232_633)">
<mask id="mask31_232_633" style="mask-type:luminance" maskUnits="userSpaceOnUse" x="68" y="31" width="6" height="7">
<path d="M71.2917 31.9727C69.8915 31.9727 68.7559 33.1062 68.7559 34.5039C68.7559 35.9032 69.8915 37.0367 71.2917 37.0367C72.6936 37.0367 73.8292 35.9032 73.8292 34.5039C73.8292 33.1062 72.6936 31.9727 71.2917 31.9727Z" fill="white"/>
</mask>
<g mask="url(#mask31_232_633)">
<path d="M68.7559 31.9727H73.8292V37.0367H68.7559V31.9727Z" fill="#63A3B2"/>
</g>
</g>
<mask id="mask32_232_633" style="mask-type:luminance" maskUnits="userSpaceOnUse" x="64" y="36" width="5" height="5">
<path d="M64.6659 36.0073H68.9644V40.2981H64.6659V36.0073Z" fill="white"/>
</mask>
<g mask="url(#mask32_232_633)">
<mask id="mask33_232_633" style="mask-type:luminance" maskUnits="userSpaceOnUse" x="64" y="36" width="5" height="5">
<path d="M66.8152 36.0073C65.6283 36.0073 64.6659 36.9679 64.6659 38.1527C64.6659 39.3375 65.6283 40.2981 66.8152 40.2981C68.0021 40.2981 68.9644 39.3375 68.9644 38.1527C68.9644 36.9679 68.0021 36.0073 66.8152 36.0073Z" fill="white"/>
</mask>
<g mask="url(#mask33_232_633)">
<path d="M64.6659 36.0073H68.9644V40.2981H64.6659V36.0073Z" fill="#63A3B2"/>
</g>
</g>
<mask id="mask34_232_633" style="mask-type:luminance" maskUnits="userSpaceOnUse" x="85" y="47" width="8" height="7">
<path d="M85.5506 47.1104H92.1204V53.6666H85.5506V47.1104Z" fill="white"/>
</mask>
<g mask="url(#mask34_232_633)">
<mask id="mask35_232_633" style="mask-type:luminance" maskUnits="userSpaceOnUse" x="85" y="47" width="8" height="7">
<path d="M88.8355 47.1104C87.0214 47.1104 85.5506 48.5785 85.5506 50.3893C85.5506 52.2 87.0214 53.6666 88.8355 53.6666C90.6495 53.6666 92.1204 52.2 92.1204 50.3893C92.1204 48.5785 90.6495 47.1104 88.8355 47.1104Z" fill="white"/>
</mask>
<g mask="url(#mask35_232_633)">
<path d="M85.5506 47.1104H92.1204V53.6666H85.5506V47.1104Z" fill="#63A3B2"/>
</g>
</g>
<mask id="mask36_232_633" style="mask-type:luminance" maskUnits="userSpaceOnUse" x="96" y="42" width="10" height="10">
<path d="M96.1688 42.2334H105.942V51.9869H96.1688V42.2334Z" fill="white"/>
</mask>
<g mask="url(#mask36_232_633)">
<mask id="mask37_232_633" style="mask-type:luminance" maskUnits="userSpaceOnUse" x="96" y="42" width="10" height="10">
<path d="M101.056 42.2334C98.3566 42.2334 96.1688 44.4172 96.1688 47.1101C96.1688 49.8047 98.3566 51.9869 101.056 51.9869C103.754 51.9869 105.942 49.8047 105.942 47.1101C105.942 44.4172 103.754 42.2334 101.056 42.2334Z" fill="white"/>
</mask>
<g mask="url(#mask37_232_633)">
<path d="M96.1688 42.2334H105.942V51.9869H96.1688V42.2334Z" fill="#63A3B2"/>
</g>
</g>
<mask id="mask38_232_633" style="mask-type:luminance" maskUnits="userSpaceOnUse" x="62" y="23" width="8" height="8">
<path d="M62.0338 23.2502H69.5499V30.7527H62.0338V23.2502Z" fill="white"/>
</mask>
<g mask="url(#mask38_232_633)">
<mask id="mask39_232_633" style="mask-type:luminance" maskUnits="userSpaceOnUse" x="62" y="23" width="8" height="8">
<path d="M65.7919 23.2502C63.7164 23.2502 62.0338 24.9297 62.0338 27.0015C62.0338 29.0732 63.7164 30.7527 65.7919 30.7527C67.8673 30.7527 69.5499 29.0732 69.5499 27.0015C69.5499 24.9297 67.8673 23.2502 65.7919 23.2502Z" fill="white"/>
</mask>
<g mask="url(#mask39_232_633)">
<path d="M62.0338 23.2502H69.5499V30.7527H62.0338V23.2502Z" fill="#63A3B2"/>
</g>
</g>
<mask id="mask40_232_633" style="mask-type:luminance" maskUnits="userSpaceOnUse" x="75" y="29" width="8" height="8">
<path d="M75.3511 29.3533H82.8671V36.8541H75.3511V29.3533Z" fill="white"/>
</mask>
<g mask="url(#mask40_232_633)">
<mask id="mask41_232_633" style="mask-type:luminance" maskUnits="userSpaceOnUse" x="75" y="29" width="8" height="8">
<path d="M79.1091 29.3533C77.0336 29.3533 75.3511 31.0328 75.3511 33.1045C75.3511 35.1746 77.0336 36.8541 79.1091 36.8541C81.1846 36.8541 82.8671 35.1746 82.8671 33.1045C82.8671 31.0328 81.1846 29.3533 79.1091 29.3533Z" fill="white"/>
</mask>
<g mask="url(#mask41_232_633)">
<path d="M75.3511 29.3533H82.8671V36.8541H75.3511V29.3533Z" fill="#63A3B2"/>
</g>
</g>
<mask id="mask42_232_633" style="mask-type:luminance" maskUnits="userSpaceOnUse" x="70" y="16" width="13" height="13">
<path d="M70.4304 16.8318H82.006V28.3864H70.4304V16.8318Z" fill="white"/>
</mask>
<g mask="url(#mask42_232_633)">
<mask id="mask43_232_633" style="mask-type:luminance" maskUnits="userSpaceOnUse" x="70" y="16" width="13" height="13">
<path d="M76.219 16.8318C73.0224 16.8318 70.4304 19.419 70.4304 22.6099C70.4304 25.8008 73.0224 28.3864 76.219 28.3864C79.4141 28.3864 82.006 25.8008 82.006 22.6099C82.006 19.419 79.4141 16.8318 76.219 16.8318Z" fill="white"/>
</mask>
<g mask="url(#mask43_232_633)">
<path d="M70.4304 16.8318H82.006V28.3864H70.4304V16.8318Z" fill="#63A3B2"/>
</g>
</g>
<mask id="mask44_232_633" style="mask-type:luminance" maskUnits="userSpaceOnUse" x="40" y="13" width="13" height="13">
<path d="M40.2893 13.1267H52.6813V25.4963H40.2893V13.1267Z" fill="white"/>
</mask>
<g mask="url(#mask44_232_633)">
<mask id="mask45_232_633" style="mask-type:luminance" maskUnits="userSpaceOnUse" x="40" y="13" width="13" height="13">
<path d="M46.4853 13.1267C43.0641 13.1267 40.2893 15.8965 40.2893 19.3115C40.2893 22.7281 43.0641 25.4963 46.4853 25.4963C49.9081 25.4963 52.6813 22.7281 52.6813 19.3115C52.6813 15.8965 49.9081 13.1267 46.4853 13.1267Z" fill="white"/>
</mask>
<g mask="url(#mask45_232_633)">
<path d="M40.2893 13.1267H52.6813V25.4963H40.2893V13.1267Z" fill="#63A3B2"/>
</g>
</g>
<mask id="mask46_232_633" style="mask-type:luminance" maskUnits="userSpaceOnUse" x="62" y="13" width="8" height="8">
<path d="M62.5839 13.1267H69.8802V20.4114H62.5839V13.1267Z" fill="white"/>
</mask>
<g mask="url(#mask46_232_633)">
<mask id="mask47_232_633" style="mask-type:luminance" maskUnits="userSpaceOnUse" x="62" y="13" width="8" height="8">
<path d="M66.2328 13.1267C64.2167 13.1267 62.5839 14.7582 62.5839 16.769C62.5839 18.7799 64.2167 20.4114 66.2328 20.4114C68.2474 20.4114 69.8802 18.7799 69.8802 16.769C69.8802 14.7582 68.2474 13.1267 66.2328 13.1267Z" fill="white"/>
</mask>
<g mask="url(#mask47_232_633)">
<path d="M62.5839 13.1267H69.8802V20.4114H62.5839V13.1267Z" fill="#63A3B2"/>
</g>
</g>
<mask id="mask48_232_633" style="mask-type:luminance" maskUnits="userSpaceOnUse" x="49" y="0" width="16" height="16">
<path d="M49.066 0H64.6659V15.5716H49.066V0Z" fill="white"/>
</mask>
<g mask="url(#mask48_232_633)">
<mask id="mask49_232_633" style="mask-type:luminance" maskUnits="userSpaceOnUse" x="49" y="0" width="16" height="16">
<path d="M56.866 0C52.5578 0 49.066 3.48544 49.066 7.7858C49.066 12.0862 52.5578 15.5716 56.866 15.5716C61.1741 15.5716 64.6659 12.0862 64.6659 7.7858C64.6659 3.48544 61.1741 0 56.866 0Z" fill="white"/>
</mask>
<g mask="url(#mask49_232_633)">
<path d="M49.066 0H64.6659V15.5716H49.066V0Z" fill="#63A3B2"/>
</g>
</g>
<mask id="mask50_232_633" style="mask-type:luminance" maskUnits="userSpaceOnUse" x="15" y="27" width="8" height="8">
<path d="M15.4185 27.2207H22.7148V34.5038H15.4185V27.2207Z" fill="white"/>
</mask>
<g mask="url(#mask50_232_633)">
<mask id="mask51_232_633" style="mask-type:luminance" maskUnits="userSpaceOnUse" x="15" y="27" width="8" height="8">
<path d="M19.0675 27.2207C17.053 27.2207 15.4185 28.8506 15.4185 30.863C15.4185 32.8739 17.053 34.5038 19.0675 34.5038C21.082 34.5038 22.7148 32.8739 22.7148 30.863C22.7148 28.8506 21.082 27.2207 19.0675 27.2207Z" fill="white"/>
</mask>
<g mask="url(#mask51_232_633)">
<path d="M15.4185 27.2207H22.7148V34.5038H15.4185V27.2207Z" fill="#63A3B2"/>
</g>
</g>
<mask id="mask52_232_633" style="mask-type:luminance" maskUnits="userSpaceOnUse" x="45" y="39" width="6" height="6">
<path d="M45.4169 39.5166H50.4356V44.5262H45.4169V39.5166Z" fill="white"/>
</mask>
<g mask="url(#mask52_232_633)">
<mask id="mask53_232_633" style="mask-type:luminance" maskUnits="userSpaceOnUse" x="45" y="39" width="6" height="6">
<path d="M47.9254 39.5166C46.5396 39.5166 45.4169 40.6389 45.4169 42.0222C45.4169 43.4055 46.5396 44.5262 47.9254 44.5262C49.3112 44.5262 50.4356 43.4055 50.4356 42.0222C50.4356 40.6389 49.3112 39.5166 47.9254 39.5166Z" fill="white"/>
</mask>
<g mask="url(#mask53_232_633)">
<path d="M45.4169 39.5166H50.4356V44.5262H45.4169V39.5166Z" fill="#63A3B2"/>
</g>
</g>
<mask id="mask54_232_633" style="mask-type:luminance" maskUnits="userSpaceOnUse" x="80" y="47" width="4" height="4">
<path d="M80.2721 47.5024H83.7382V50.9639H80.2721V47.5024Z" fill="white"/>
</mask>
<g mask="url(#mask54_232_633)">
<mask id="mask55_232_633" style="mask-type:luminance" maskUnits="userSpaceOnUse" x="80" y="47" width="4" height="4">
<path d="M82.0059 47.5024C81.0484 47.5024 80.2721 48.2773 80.2721 49.2332C80.2721 50.189 81.0484 50.9639 82.0059 50.9639C82.9635 50.9639 83.7382 50.189 83.7382 49.2332C83.7382 48.2773 82.9635 47.5024 82.0059 47.5024Z" fill="white"/>
</mask>
<g mask="url(#mask55_232_633)">
<path d="M80.2721 47.5024H83.7382V50.9639H80.2721V47.5024Z" fill="#63A3B2"/>
</g>
</g>
<mask id="mask56_232_633" style="mask-type:luminance" maskUnits="userSpaceOnUse" x="83" y="19" width="11" height="11">
<path d="M83.3805 19.3115H93.8189V29.731H83.3805V19.3115Z" fill="white"/>
</mask>
<g mask="url(#mask56_232_633)">
<mask id="mask57_232_633" style="mask-type:luminance" maskUnits="userSpaceOnUse" x="83" y="19" width="11" height="11">
<path d="M88.5997 19.3115C85.7174 19.3115 83.3805 21.6442 83.3805 24.5213C83.3805 27.3983 85.7174 29.731 88.5997 29.731C91.482 29.731 93.8189 27.3983 93.8189 24.5213C93.8189 21.6442 91.482 19.3115 88.5997 19.3115Z" fill="white"/>
</mask>
<g mask="url(#mask57_232_633)">
<path d="M83.3805 19.3115H93.8189V29.731H83.3805V19.3115Z" fill="#63A3B2"/>
</g>
</g>
<mask id="mask58_232_633" style="mask-type:luminance" maskUnits="userSpaceOnUse" x="0" y="36" width="10" height="10">
<path d="M0 36.0073H9.67013V45.6599H0V36.0073Z" fill="white"/>
</mask>
<g mask="url(#mask58_232_633)">
<mask id="mask59_232_633" style="mask-type:luminance" maskUnits="userSpaceOnUse" x="0" y="36" width="10" height="10">
<path d="M4.83426 36.0073C2.16531 36.0073 0 38.1687 0 40.8328C0 43.4985 2.16531 45.6599 4.83426 45.6599C7.50482 45.6599 9.67013 43.4985 9.67013 40.8328C9.67013 38.1687 7.50482 36.0073 4.83426 36.0073Z" fill="white"/>
</mask>
<g mask="url(#mask59_232_633)">
<path d="M0 36.0073H9.67013V45.6599H0V36.0073Z" fill="#63A3B2"/>
</g>
</g>
<path d="M17.4791 89.1025C14.7412 89.1025 12.6128 88.3596 11.0954 86.8738C9.58131 85.3881 8.82426 83.2795 8.82426 80.5466V70.364H14.0338V80.3929C14.0338 83.3307 15.1983 84.7989 17.5304 84.7989C19.8433 84.7989 21.0013 83.3307 21.0013 80.3929V70.364H26.1275V80.5466C26.1275 83.2795 25.3673 85.3881 23.8499 86.8738C22.3358 88.3596 20.2122 89.1025 17.4791 89.1025Z" fill="#EF6D53"/>
<path d="M38.1695 74.2771C39.9354 74.2771 41.3581 74.8022 42.4359 75.8525C43.517 76.9028 44.0591 78.4878 44.0591 80.6044V88.7376H39.0613V81.4177C39.0613 79.4756 38.2801 78.5038 36.7195 78.5038C35.8598 78.5038 35.1701 78.784 34.6536 79.3428C34.1404 79.9031 33.8837 80.7421 33.8837 81.8596V88.7376H28.8859V74.5141H33.6464V76.0638C34.2061 75.4843 34.8718 75.0424 35.6417 74.7382C36.4115 74.4308 37.2536 74.2771 38.1695 74.2771Z" fill="#EF6D53"/>
<path d="M82.8913 70.364L76.9247 88.7374H71.3494L67.8272 77.5558L64.1509 88.7374H58.5757L52.609 70.364H57.9726L61.6745 82.0964L65.5688 70.364H70.355L74.0633 82.2052L77.9255 70.364H82.8913Z" fill="#63A3B2"/>
<path d="M91.5453 88.9745C90.0183 88.9745 88.6405 88.6607 87.4135 88.0331C86.1849 87.4023 85.2257 86.5266 84.5328 85.4075C83.8432 84.2851 83.4999 83.0155 83.4999 81.597C83.4999 80.2009 83.8432 78.9441 84.5328 77.825C85.2257 76.7027 86.1817 75.8317 87.4007 75.2121C88.6197 74.5893 90.0007 74.2771 91.5453 74.2771C93.085 74.2771 94.4676 74.5893 95.6962 75.2121C96.9232 75.8317 97.8792 76.6963 98.5641 77.8058C99.2474 78.9169 99.5906 80.1801 99.5906 81.597C99.5906 83.0155 99.2474 84.2851 98.5641 85.4075C97.8792 86.5266 96.9232 87.4023 95.6962 88.0331C94.4676 88.6607 93.085 88.9745 91.5453 88.9745ZM91.5453 85.0104C92.421 85.0104 93.1396 84.7094 93.7009 84.1074C94.2607 83.5022 94.5414 82.6649 94.5414 81.597C94.5414 80.5467 94.2607 79.7254 93.7009 79.1314C93.1396 78.539 92.421 78.2412 91.5453 78.2412C90.6679 78.2412 89.9477 78.539 89.3831 79.1314C88.8218 79.7254 88.5427 80.5467 88.5427 81.597C88.5427 82.6649 88.8218 83.5022 89.3831 84.1074C89.9477 84.7094 90.6679 85.0104 91.5453 85.0104Z" fill="#63A3B2"/>
<path d="M108.529 88.9745C107.002 88.9745 105.624 88.6607 104.397 88.0331C103.168 87.4023 102.209 86.5266 101.516 85.4075C100.827 84.2851 100.483 83.0155 100.483 81.597C100.483 80.2009 100.827 78.9441 101.516 77.825C102.209 76.7027 103.165 75.8317 104.384 75.2121C105.603 74.5893 106.984 74.2771 108.529 74.2771C110.069 74.2771 111.451 74.5893 112.68 75.2121C113.907 75.8317 114.863 76.6963 115.548 77.8058C116.231 78.9169 116.574 80.1801 116.574 81.597C116.574 83.0155 116.231 84.2851 115.548 85.4075C114.863 86.5266 113.907 87.4023 112.68 88.0331C111.451 88.6607 110.069 88.9745 108.529 88.9745ZM108.529 85.0104C109.405 85.0104 110.123 84.7094 110.685 84.1074C111.244 83.5022 111.525 82.6649 111.525 81.597C111.525 80.5467 111.244 79.7254 110.685 79.1314C110.123 78.539 109.405 78.2412 108.529 78.2412C107.651 78.2412 106.931 78.539 106.367 79.1314C105.805 79.7254 105.526 80.5467 105.526 81.597C105.526 82.6649 105.805 83.5022 106.367 84.1074C106.931 84.7094 107.651 85.0104 108.529 85.0104Z" fill="#63A3B2"/>
<path d="M133.5 69.2627V88.7376H128.746V87.3223C127.812 88.4238 126.419 88.9746 124.563 88.9746C123.267 88.9746 122.083 88.6736 121.015 88.0716C119.945 87.4664 119.098 86.6034 118.474 85.4843C117.854 84.3668 117.544 83.07 117.544 81.597C117.544 80.1289 117.854 78.8401 118.474 77.7289C119.098 76.6194 119.945 75.7677 121.015 75.1737C122.083 74.5765 123.267 74.2771 124.563 74.2771C126.265 74.2771 127.58 74.767 128.509 75.7437V69.2627H133.5ZM125.615 85.0104C126.475 85.0104 127.184 84.7094 127.745 84.1074C128.305 83.5022 128.586 82.6649 128.586 81.597C128.586 80.5467 128.31 79.7254 127.758 79.1314C127.206 78.5391 126.491 78.2413 125.615 78.2413C124.738 78.2413 124.019 78.5391 123.459 79.1314C122.898 79.7254 122.619 80.5467 122.619 81.597C122.619 82.6649 122.898 83.5022 123.459 84.1074C124.019 84.7094 124.738 85.0104 125.615 85.0104Z" fill="#63A3B2"/>
</svg>
