<svg width="30" height="30" viewBox="0 0 30 30" fill="none" xmlns="http://www.w3.org/2000/svg">
<path d="M15 2.5C8.10754 2.5 2.5 8.10755 2.5 15C2.5 21.8925 8.10754 27.5 15 27.5C21.8925 27.5 27.5 21.8925 27.5 15C27.5 8.10755 21.8925 2.5 15 2.5ZM15 4.375C20.8791 4.375 25.625 9.12087 25.625 15C25.625 20.8791 20.8791 25.625 15 25.625C9.12086 25.625 4.375 20.8791 4.375 15C4.375 9.12087 9.12086 4.375 15 4.375ZM15 8.75C14.6685 8.75 14.3505 8.8817 14.1161 9.11612C13.8817 9.35054 13.75 9.66848 13.75 10C13.75 10.3315 13.8817 10.6495 14.1161 10.8839C14.3505 11.1183 14.6685 11.25 15 11.25C15.3315 11.25 15.6495 11.1183 15.8839 10.8839C16.1183 10.6495 16.25 10.3315 16.25 10C16.25 9.66848 16.1183 9.35054 15.8839 9.11612C15.6495 8.8817 15.3315 8.75 15 8.75ZM14.9854 13.1116C14.7369 13.1155 14.5002 13.2178 14.3272 13.3961C14.1541 13.5744 14.0589 13.8141 14.0625 14.0625V20.9375C14.0607 21.0617 14.0837 21.1851 14.13 21.3004C14.1763 21.4156 14.2451 21.5206 14.3323 21.609C14.4196 21.6975 14.5235 21.7678 14.6381 21.8157C14.7528 21.8637 14.8758 21.8883 15 21.8883C15.1242 21.8883 15.2472 21.8637 15.3619 21.8157C15.4765 21.7678 15.5804 21.6975 15.6676 21.609C15.7549 21.5206 15.8237 21.4156 15.87 21.3004C15.9163 21.1851 15.9393 21.0617 15.9375 20.9375V14.0625C15.9393 13.937 15.9159 13.8125 15.8687 13.6962C15.8214 13.5799 15.7513 13.4743 15.6626 13.3856C15.5738 13.297 15.4681 13.227 15.3517 13.1799C15.2354 13.1329 15.1108 13.1096 14.9854 13.1116Z" fill="#F17F69"/>
</svg>
