<svg xmlns="http://www.w3.org/2000/svg" xmlns:xlink="http://www.w3.org/1999/xlink" width="500" zoomAndPan="magnify" viewBox="0 0 375 374.999991" height="500" preserveAspectRatio="xMidYMid meet" version="1.0"><defs><clipPath id="30013f11ed"><path d="M 25.085938 25.085938 L 349.835938 25.085938 L 349.835938 349.835938 L 25.085938 349.835938 Z M 25.085938 25.085938 " clip-rule="nonzero"/></clipPath></defs><g clip-path="url(#30013f11ed)"><path fill="#000000" d="M 302.273438 72.644531 C 271.605469 41.976562 230.828125 25.085938 187.457031 25.085938 C 144.085938 25.085938 103.3125 41.976562 72.644531 72.644531 C 41.976562 103.3125 25.085938 144.085938 25.085938 187.457031 C 25.085938 230.828125 41.976562 271.605469 72.644531 302.273438 C 103.3125 332.941406 144.085938 349.828125 187.457031 349.828125 C 230.828125 349.828125 271.605469 332.941406 302.273438 302.273438 C 332.941406 271.605469 349.828125 230.828125 349.828125 187.457031 C 349.828125 144.085938 332.941406 103.3125 302.273438 72.644531 Z M 80.011719 80.011719 C 108.710938 51.308594 146.871094 35.503906 187.457031 35.503906 C 228.046875 35.503906 266.203125 51.308594 294.902344 80.011719 C 323.605469 108.710938 339.410156 146.871094 339.410156 187.457031 C 339.410156 221.199219 328.476562 253.253906 308.304688 279.597656 C 292.25 257.152344 266.613281 243.890625 238.773438 243.890625 L 136.140625 243.890625 C 108.300781 243.890625 82.664062 257.152344 66.609375 279.597656 C 46.4375 253.253906 35.503906 221.199219 35.503906 187.457031 C 35.503906 146.871094 51.308594 108.710938 80.011719 80.011719 Z M 187.457031 235.328125 C 229.175781 235.328125 263.117188 201.390625 263.117188 159.671875 C 263.117188 117.953125 229.175781 84.011719 187.457031 84.011719 C 145.738281 84.011719 111.800781 117.953125 111.800781 159.671875 C 111.800781 201.390625 145.738281 235.328125 187.457031 235.328125 Z M 187.457031 235.328125 " fill-opacity="1" fill-rule="nonzero"/></g></svg>