<svg width="20" height="16" viewBox="0 0 20 16" fill="none" xmlns="http://www.w3.org/2000/svg">
<path d="M11.3103 15.4027L8.10554 12.6867L4.8129 15.336C4.73966 15.4071 4.63549 15.4506 4.51993 15.4506C4.30021 15.4506 4.1228 15.2925 4.1228 15.0968V9.31225L0.123773 5.92478C-0.0357323 5.78992 -0.0406151 5.5666 0.109124 5.42449C0.15958 5.37663 0.223057 5.34473 0.289789 5.32733L19.4955 0.512946C19.7071 0.460742 19.9252 0.5695 19.9854 0.758015C20.0164 0.853723 19.9984 0.952331 19.9464 1.03209L11.9386 15.3041C11.8409 15.4781 11.6033 15.5492 11.408 15.4622C11.3705 15.4462 11.338 15.4259 11.3103 15.4027ZM7.52937 12.1994L4.91707 9.98655V14.3021L7.52937 12.1994ZM4.58178 8.7264L17.0037 1.87315L1.17521 5.84067L4.58178 8.7264ZM18.6248 1.80935L5.17423 9.22814L11.4682 14.5617L18.6248 1.80935Z" fill="black"/>
</svg>
