<svg width="30" height="30" viewBox="0 0 30 30" fill="none" xmlns="http://www.w3.org/2000/svg">
<path d="M29.209 8.20312C28.6992 7.88086 28.0547 7.83398 27.498 8.10937L22.9688 10.377V7.92773C22.9688 5.98828 21.3984 4.41797 19.459 4.41797H3.50977C1.57031 4.41797 0 5.98828 0 7.92773V22.0723C0 24.0117 1.57031 25.582 3.50977 25.582H19.4062C21.3457 25.582 22.916 24.0117 22.916 22.0723V19.623L27.4453 21.8906C27.6738 22.0312 27.9551 22.0781 28.2305 22.0781C28.5527 22.0781 28.875 21.9844 29.1562 21.8027C29.666 21.4805 29.9883 20.9238 29.9883 20.2793V9.68555C30.041 9.08203 29.7188 8.53125 29.209 8.20312Z" fill="#F17F69"/>
</svg>
